<svg width="57" height="121" viewBox="0 0 57 121" fill="none" xmlns="http://www.w3.org/2000/svg">
<path d="M30.59 0.54857C30.3406 0.429847 30.0423 0.535715 29.9236 0.785033L27.9889 4.84791C27.8701 5.09722 27.976 5.39558 28.2253 5.5143C28.4746 5.63303 28.773 5.52716 28.8917 5.27784L30.6115 1.6664L34.2229 3.38613C34.4722 3.50485 34.7706 3.39899 34.8893 3.14967C35.008 2.90035 34.9022 2.60199 34.6528 2.48327L30.59 0.54857ZM17.374 42.5L17.5717 42.9593L17.374 42.5ZM29.9038 1.1672C30.4039 2.57655 30.9652 3.95778 31.548 5.31221L32.4666 4.91695C31.8889 3.57441 31.3366 2.21468 30.8462 0.832795L29.9038 1.1672ZM35.1048 13.4091C36.2762 16.3054 37.1381 19.0754 37.2696 21.7794L38.2684 21.7308C38.1287 18.8584 37.217 15.9645 36.0318 13.0341L35.1048 13.4091ZM34.9879 29.8361C33.6521 31.8101 31.6498 33.8026 28.7734 35.8235L29.3483 36.6417C32.2965 34.5704 34.3956 32.4957 35.8161 30.3965L34.9879 29.8361ZM21.2049 40.1967C19.9523 40.8087 18.6112 41.4232 17.1764 42.0407L17.5717 42.9593C19.0199 42.336 20.3757 41.7148 21.6439 41.0952L21.2049 40.1967ZM17.1764 42.0407C15.5411 42.7445 14.0369 43.5588 12.6591 44.4722L13.2116 45.3057C14.538 44.4264 15.9894 43.6403 17.5717 42.9593L17.1764 42.0407ZM5.45698 51.6547C3.58385 54.4783 2.27915 57.6459 1.48027 61.0253L2.45344 61.2553C3.22843 57.977 4.48995 54.9213 6.29029 52.2075L5.45698 51.6547ZM0.518627 71.1274C0.613726 74.4322 1.07106 77.8132 1.84674 81.1779L2.82118 80.9533C2.05894 77.6469 1.61125 74.3316 1.51821 71.0987L0.518627 71.1274ZM4.95382 90.818C6.25333 93.9414 7.80957 96.9707 9.58535 99.8238L10.4343 99.2954C8.68761 96.4889 7.1561 93.508 5.8771 90.4339L4.95382 90.818ZM15.6694 107.923C18.0046 110.497 20.5497 112.777 23.2605 114.661L23.8313 113.84C21.1894 112.004 18.7003 109.775 16.41 107.251L15.6694 107.923ZM32.3583 119.188C35.6126 120.196 39.0042 120.614 42.4726 120.312L42.3857 119.316C39.0556 119.606 35.794 119.206 32.6542 118.233L32.3583 119.188ZM52.2521 117.514C53.721 116.792 55.1911 115.927 56.6586 114.911L56.0894 114.089C54.6605 115.078 53.233 115.918 51.8108 116.617L52.2521 117.514Z" fill="#8CB869"/>
</svg>
