<svg width="62" height="121" viewBox="0 0 62 121" fill="none" xmlns="http://www.w3.org/2000/svg">
<path d="M0.926953 1.50536C0.653773 1.54571 0.465022 1.79987 0.505365 2.07305L1.16279 6.52477C1.20313 6.79794 1.45729 6.9867 1.73047 6.94635C2.00365 6.90601 2.1924 6.65185 2.15206 6.37867L1.56768 2.42159L5.52477 1.83721C5.79794 1.79687 5.9867 1.54271 5.94635 1.26953C5.90601 0.996347 5.65185 0.807595 5.37867 0.847938L0.926953 1.50536ZM35 59.5L34.8992 59.0103L35 59.5ZM0.701892 2.40141C1.98765 3.35628 3.32476 4.37008 4.69823 5.43406L5.31064 4.64351C3.93192 3.57547 2.58941 2.55757 1.29811 1.59859L0.701892 2.40141ZM12.5306 11.7412C15.0573 13.8554 17.6101 16.0717 20.1106 18.3442L20.7832 17.6042C18.2716 15.3216 15.7085 13.0963 13.1723 10.9743L12.5306 11.7412ZM27.3776 25.2854C29.821 27.7515 32.1176 30.2275 34.1766 32.6599L34.9398 32.0138C32.8607 29.5576 30.5458 27.0622 28.088 24.5815L27.3776 25.2854ZM40.1328 40.69C42.2048 44.035 43.5044 47.1083 43.7938 49.7514L44.7879 49.6426C44.4749 46.7844 43.0879 43.5618 40.9829 40.1634L40.1328 40.69ZM39.5548 57.4575C38.315 58.0987 36.7752 58.624 34.8992 59.0103L35.1008 59.9897C37.0434 59.5898 38.6744 59.0386 40.0141 58.3458L39.5548 57.4575ZM34.8992 59.0103C33.2088 59.3583 31.7173 59.5104 30.409 59.4939L30.3965 60.4939C31.7902 60.5114 33.3547 60.3492 35.1008 59.9897L34.8992 59.0103ZM23.2079 55.7251C22.0889 53.5393 21.9382 50.5133 22.5718 47.0567L21.5882 46.8764C20.9372 50.4279 21.0539 53.7119 22.3177 56.1808L23.2079 55.7251ZM25.362 38.4725C26.5833 35.758 28.0976 33.0566 29.7959 30.554L28.9685 29.9925C27.2385 32.5417 25.6957 35.2936 24.45 38.0622L25.362 38.4725ZM35.5707 23.5996C38.0427 21.2237 40.5921 19.5047 42.9984 18.7627L42.7037 17.8071C40.0907 18.6129 37.409 20.4458 34.8778 22.8786L35.5707 23.5996ZM50.7567 20.8989C51.5873 21.852 52.3573 23.1031 53.0404 24.697L53.9596 24.303C53.2449 22.6355 52.4238 21.2899 51.5106 20.242L50.7567 20.8989ZM53.0404 24.697C53.6819 26.1936 54.2989 27.8689 54.8832 29.6963L55.8357 29.3917C55.2434 27.5395 54.6156 25.8338 53.9596 24.303L53.0404 24.697ZM57.5223 40.1183C58.189 43.4705 58.7519 47.0498 59.1852 50.7658L60.1785 50.65C59.7422 46.9087 59.1753 43.303 58.5031 39.9232L57.5223 40.1183ZM60.0409 61.5045C60.1947 65.0757 60.2189 68.6893 60.0941 72.2754L61.0935 72.3102C61.2193 68.6965 61.1948 65.0569 61.04 61.4615L60.0409 61.5045ZM59.2364 83.008C58.7643 86.6628 58.1039 90.2055 57.2327 93.5546L58.2005 93.8063C59.0837 90.4108 59.7515 86.8262 60.2281 83.1361L59.2364 83.008ZM53.6368 103.642C52.0159 107.036 50.0619 110.018 47.74 112.454L48.4638 113.144C50.8728 110.617 52.8827 107.542 54.5392 104.072L53.6368 103.642ZM39.0112 118.229C35.9541 119.322 32.4949 119.779 28.5898 119.461L28.5087 120.458C32.5413 120.786 36.1444 120.316 39.3478 119.171L39.0112 118.229ZM18.1699 117.08C16.5728 116.508 14.9196 115.832 13.2087 115.046L12.7913 115.954C14.5264 116.752 16.2064 117.439 17.8328 118.021L18.1699 117.08Z" fill="#8CB869"/>
</svg>
