<svg width="75" height="131" viewBox="0 0 75 131" fill="none" xmlns="http://www.w3.org/2000/svg">
<path d="M37.4249 3.26609C37.5718 3.0323 37.5014 2.72364 37.2677 2.57669L33.4578 0.181861C33.224 0.0349033 32.9154 0.105294 32.7684 0.339085C32.6215 0.572875 32.6918 0.881532 32.9256 1.02849L36.3122 3.15722L34.1834 6.54374C34.0365 6.77753 34.1069 7.08619 34.3406 7.23315C34.5744 7.38011 34.8831 7.30971 35.0301 7.07592L37.4249 3.26609ZM8.50133 45L8.83953 44.6317L8.50133 45ZM36.8904 2.51252C35.0749 2.92655 33.295 3.38507 31.5585 3.88544L31.8354 4.84634C33.5534 4.3513 35.3151 3.89744 37.1127 3.48748L36.8904 2.51252ZM21.1842 7.60163C17.595 9.17546 14.3352 10.9538 11.5098 12.9031L12.0776 13.7262C14.8426 11.8187 18.0449 10.0701 21.5858 8.51746L21.1842 7.60163ZM3.45884 20.5109C1.12294 23.7832 -0.103156 27.3376 0.117024 31.0632L1.11528 31.0042C0.911183 27.5507 2.04155 24.2176 4.27275 21.0919L3.45884 20.5109ZM4.36351 41.2932C5.42073 42.6499 6.68369 44.0096 8.16313 45.3683L8.83953 44.6317C7.39577 43.3058 6.1715 41.9865 5.15231 40.6785L4.36351 41.2932ZM8.16313 45.3683C9.41755 46.5203 10.6792 47.5704 11.9427 48.5241L12.5452 47.726C11.3079 46.792 10.0709 45.7626 8.83953 44.6317L8.16313 45.3683ZM20.3782 53.5361C23.6332 54.9774 26.8174 55.8452 29.834 56.2407L29.964 55.2492C27.0447 54.8664 23.9529 54.0253 20.7831 52.6217L20.3782 53.5361ZM39.6764 55.8285C43.3057 54.9801 46.3423 53.3753 48.4627 51.3204L47.7668 50.6023C45.7979 52.5104 42.9333 54.0402 39.4487 54.8547L39.6764 55.8285ZM51.4178 42.0331C50.9996 40.542 50.1616 39.0661 48.8693 37.6615L48.1334 38.3385C49.3347 39.6443 50.0851 40.9845 50.4549 42.3031L51.4178 42.0331ZM48.8693 37.6615C47.7058 36.3967 45.9806 36.0906 44.0262 36.4588L44.2113 37.4415C45.9789 37.1086 47.2921 37.424 48.1334 38.3385L48.8693 37.6615ZM35.4786 40.8099C33.1775 42.5356 30.7769 44.7051 28.4168 47.2215L29.1462 47.9055C31.4724 45.4253 33.8302 43.296 36.0786 41.6099L35.4786 40.8099ZM22.3994 54.5716C20.5931 57.0969 18.8958 59.8056 17.3873 62.6445L18.2704 63.1138C19.7569 60.3162 21.4306 57.6449 23.2127 55.1534L22.3994 54.5716ZM13.5588 71.3525C12.5075 74.3724 11.7186 77.4715 11.2717 80.5974L12.2616 80.739C12.6984 77.6842 13.4705 74.6478 14.5032 71.6812L13.5588 71.3525ZM11.0502 90.1307C11.3794 93.2622 12.1331 96.3658 13.3908 99.387L14.314 99.0027C13.0956 96.076 12.3644 93.0673 12.0447 90.0261L11.0502 90.1307ZM18.2859 107.576C20.1482 109.893 22.398 112.116 25.0765 114.216L25.6936 113.429C23.071 111.373 20.8766 109.203 19.0653 106.949L18.2859 107.576ZM33.0863 119.411C35.6766 120.809 38.5279 122.124 41.658 123.344L42.0212 122.412C38.9261 121.205 36.1123 119.907 33.5611 118.531L33.0863 119.411ZM50.637 126.355C53.5124 127.18 56.5723 127.94 59.8254 128.629L60.0325 127.651C56.8009 126.966 53.7641 126.212 50.9129 125.394L50.637 126.355ZM69.1243 130.317C70.6905 130.558 72.2947 130.784 73.9375 130.996L74.0652 130.004C72.4303 129.794 70.8342 129.568 69.2763 129.329L69.1243 130.317Z" fill="#8CB869"/>
</svg>
