<svg width="37" height="82" viewBox="0 0 37 82" fill="none" xmlns="http://www.w3.org/2000/svg">
<path d="M4.2921 0.597033C4.06954 0.433555 3.7566 0.481445 3.59313 0.703998L0.929108 4.33071C0.76563 4.55326 0.813521 4.8662 1.03607 5.02968C1.25863 5.19315 1.57157 5.14526 1.73504 4.92271L4.10306 1.69897L7.3268 4.06699C7.54935 4.23046 7.86229 4.18257 8.02577 3.96002C8.18925 3.73747 8.14136 3.42453 7.9188 3.26105L4.2921 0.597033ZM3.50185 1.07564C3.77375 2.85241 4.13734 4.56701 4.58009 6.22365L5.54618 5.96546C5.11264 4.34327 4.75662 2.66435 4.49034 0.924364L3.50185 1.07564ZM8.3307 15.9925C9.94411 19.1917 11.8196 22.1432 13.8148 24.8947L14.6244 24.3076C12.6536 21.5899 10.8081 18.6842 9.22358 15.5422L8.3307 15.9925ZM20.3773 33.0076C21.5863 34.3856 22.7869 35.7153 23.9498 37.0034C25.1136 38.2925 26.2392 39.5395 27.3026 40.7567L28.0556 40.0987C26.986 38.8743 25.8548 37.6213 24.6921 36.3333C23.5284 35.0444 22.3326 33.7199 21.1289 32.3481L20.3773 33.0076ZM33.4297 48.9866C35.2035 52.2196 35.9013 55.3252 34.9683 58.5708L35.9294 58.8471C36.9586 55.2665 36.1597 51.8834 34.3064 48.5055L33.4297 48.9866ZM29.3105 66.7751C27.214 68.7303 24.5098 70.7872 21.0992 72.9769L21.6395 73.8184C25.085 71.6063 27.8404 69.5134 29.9925 67.5065L29.3105 66.7751ZM12.1471 78.1645C10.68 78.9441 9.1317 79.7397 7.49901 80.5524L7.94463 81.4476C9.58458 80.6313 11.1408 79.8316 12.6164 79.0476L12.1471 78.1645Z" fill="#8CB869"/>
</svg>
