<svg width="653" height="282" viewBox="0 0 653 282" fill="none" xmlns="http://www.w3.org/2000/svg">
<path fill-rule="evenodd" clip-rule="evenodd" d="M195.269 29.5958C287.887 61.2387 443.571 -41.0379 550.062 19.629C621.862 49.5804 547.582 103.781 568.142 124.459C591.622 148.074 665.318 166.656 651.224 195.117C636.068 225.723 619.357 233.957 584.099 248.502C563.487 257.005 457.085 305.665 408.014 267.687C358.942 229.71 292.645 248.502 195.269 260.738C150.865 266.317 72.7019 291.732 37.9555 267.687C6.29232 245.777 90.6235 193.53 83.8611 159.402C76.8104 123.819 -4.24217 112.899 0.173992 77.0126C4.35726 43.019 45.029 15.1775 83.8613 5.73949C121.44 -3.39386 157.901 19.8633 195.269 29.5958Z" fill="#F5A964"/>
</svg>
