<svg width="24" height="24" viewBox="0 0 24 24" fill="none" xmlns="http://www.w3.org/2000/svg">
<g clip-path="url(#clip0_3315_2258)">
<path d="M2.08687 3.63501C0.934534 3.63501 0 4.56949 0 5.72266C0 6.87499 0.934534 7.80869 2.08687 7.80869C3.2392 7.80869 4.17374 6.87499 4.17374 5.72266C4.17374 4.56949 3.2392 3.63501 2.08687 3.63501Z" fill="#38854D"/>
<path d="M2.08687 9.91357C0.934534 9.91357 0 10.8473 0 12.0004C0 13.1528 0.934534 14.0873 2.08687 14.0873C3.2392 14.0873 4.17374 13.1528 4.17374 12.0004C4.17374 10.8473 3.2392 9.91357 2.08687 9.91357Z" fill="#38854D"/>
<path d="M2.08687 16.1913C0.934534 16.1913 0 17.1258 0 18.2781C0 19.4305 0.934534 20.365 2.08687 20.365C3.2392 20.365 4.17374 19.4305 4.17374 18.2781C4.17374 17.1258 3.2392 16.1913 2.08687 16.1913Z" fill="#38854D"/>
<path d="M22.4309 4.15262H7.58635C6.71979 4.15262 6.01709 4.85532 6.01709 5.72266C6.01709 6.58927 6.71974 7.29192 7.58635 7.29192H22.4309C23.2974 7.29192 24.0002 6.58927 24.0002 5.72266C24.0002 4.85532 23.2974 4.15262 22.4309 4.15262Z" fill="#38854D"/>
<path d="M22.4309 10.4304H7.58635C6.71979 10.4304 6.01709 11.133 6.01709 12.0004C6.01709 12.867 6.71974 13.5697 7.58635 13.5697H22.4309C23.2974 13.5697 24.0002 12.867 24.0002 12.0004C24.0002 11.133 23.2974 10.4304 22.4309 10.4304Z" fill="#38854D"/>
<path d="M22.4309 16.7089H7.58635C6.71979 16.7089 6.01709 17.4115 6.01709 18.2782C6.01709 19.1447 6.71974 19.8474 7.58635 19.8474H22.4309C23.2974 19.8474 24.0002 19.1447 24.0002 18.2782C24.0002 17.4115 23.2974 16.7089 22.4309 16.7089Z" fill="#38854D"/>
</g>
<defs>
<clipPath id="clip0_3315_2258">
<rect width="24" height="24" fill="white"/>
</clipPath>
</defs>
</svg>
