<svg width="22" height="22" viewBox="0 0 22 22" fill="none" xmlns="http://www.w3.org/2000/svg">
<path d="M4.36438 1.72556L4.17965 2.27638L2.55404 6.7636H2.52717V6.8165L1.73956 8.99377L1.6875 9.12476V10.1223H3.36685V9.41361L3.70776 8.44295H6.38464L6.72554 9.41361V10.1223H8.40489V9.12476L8.35199 8.99377L7.56522 6.81566V6.7636H7.54003L5.91106 2.27638L5.72969 1.72556H4.36186H4.36438ZM15.962 1.72556V17.4174L13.7838 15.2393L12.6033 16.4198L16.1971 20.0414L16.8016 20.6182L17.4062 20.0405L21 16.4198L19.8194 15.2393L17.6413 17.4165V1.72556H15.962ZM5.0462 4.7954L5.75488 6.7636H4.33751L5.0462 4.7954ZM1.6875 11.8016V13.481H6.35861L1.92261 17.9145L1.6875 18.1781V20.1984H8.40489V18.519H3.73379L8.16894 14.0856L8.40405 13.8219V11.8016H1.6875Z" fill="#38854D"/>
</svg>
