<svg width="24" height="24" viewBox="0 0 24 24" fill="none" xmlns="http://www.w3.org/2000/svg">
<g clip-path="url(#clip0_3121_7405)">
<path d="M14.6668 22V13L22.3135 5.33332C22.4271 5.21967 22.5169 5.08447 22.5776 4.93564C22.6383 4.78682 22.6686 4.62737 22.6668 4.46666V3.33332C22.6668 3.15651 22.5966 2.98694 22.4716 2.86192C22.3465 2.73689 22.177 2.66666 22.0002 2.66666H2.00016C1.82335 2.66666 1.65378 2.73689 1.52876 2.86192C1.40373 2.98694 1.3335 3.15651 1.3335 3.33332V4.44666C1.33362 4.60411 1.36491 4.75999 1.42555 4.9053C1.48619 5.05061 1.57499 5.18249 1.68683 5.29332L9.3335 13.0533V19.8533L14.6668 22Z" fill="#8CB869"/>
<path d="M22.3202 2.66666H1.65352C1.56627 2.67339 1.4848 2.71286 1.42545 2.77716C1.3661 2.84146 1.33326 2.92582 1.33352 3.01332V4.15999C1.33272 4.27752 1.35529 4.39404 1.39992 4.50276C1.44456 4.61149 1.51037 4.71026 1.59352 4.79332L9.59352 12.7933V19.46L14.4268 21.8667V12.78L22.4268 4.77999C22.5799 4.6149 22.6655 4.39844 22.6668 4.17332V3.01332C22.6668 2.92138 22.6303 2.83321 22.5653 2.76819C22.5003 2.70318 22.4121 2.66666 22.3202 2.66666Z" fill="#38854D"/>
</g>
<defs>
<clipPath id="clip0_3121_7405">
<rect width="24" height="24" fill="white"/>
</clipPath>
</defs>
</svg>
