<svg width="40" height="39" viewBox="0 0 40 39" fill="none" xmlns="http://www.w3.org/2000/svg">
<path d="M33.5042 6.04333H30.963C30.6454 6.04333 30.3277 6.36098 30.3277 6.67862C30.3277 6.73156 30.3277 6.73156 30.3277 6.73156L30.5395 11.1256C28.1572 8.26684 24.5572 6.46686 20.5866 6.46686C13.3338 6.46686 7.40444 12.3962 7.45738 19.6491C7.45738 26.9019 13.3338 32.7254 20.5866 32.7254C23.9748 32.7254 27.0454 31.4548 29.3748 29.3901C29.4807 29.2313 29.5865 29.0725 29.5865 28.9137C29.5865 28.7019 29.4807 28.5431 29.3748 28.4372L27.5748 26.6372C27.4689 26.5313 27.3101 26.4784 27.1513 26.4784C26.9925 26.4784 26.8336 26.5313 26.7278 26.6372C25.0866 28.0666 22.916 28.9137 20.5866 28.9137C15.3985 28.9137 11.2691 24.7843 11.2691 19.5961C11.2691 14.4609 15.3985 10.2786 20.5866 10.2786C23.7631 10.2786 26.6219 11.9197 28.316 14.4079L22.916 14.1432C22.916 14.1432 22.916 14.1432 22.8631 14.1432C22.5455 14.1432 22.2278 14.4609 22.2278 14.7785H22.2807V17.3197C22.2807 17.6373 22.5455 17.955 22.916 17.955H33.5042C33.8218 17.955 34.1394 17.6373 34.1394 17.3197V6.67862C34.1394 6.36098 33.8218 6.04333 33.5042 6.04333Z" fill="#C54F1D"/>
</svg>
