<svg width="54" height="46" viewBox="0 0 54 46" fill="none" xmlns="http://www.w3.org/2000/svg">
<g clip-path="url(#clip0_2274_2593)">
<path d="M51.7265 25.2778C51.7813 25.2411 51.8322 25.1991 51.8786 25.1524C52.4952 24.6057 53.1117 24.0652 53.7283 23.5082C53.9996 23.2616 54.0797 22.9903 53.9523 22.7704C53.7981 22.5012 53.5412 22.4848 53.2617 22.5156L53.1631 22.53C52.3636 22.6122 51.5621 22.6841 50.7647 22.7828C50.6721 22.8085 50.573 22.7971 50.4887 22.7511C50.4043 22.705 50.3411 22.6279 50.3125 22.5361C49.6764 21.1828 48.8764 19.9128 47.9306 18.7546C47.8567 18.6821 47.8086 18.5873 47.7937 18.4849C47.7789 18.3824 47.7981 18.2779 47.8484 18.1874C49.1267 15.2238 49.9858 12.1307 50.6907 8.99041C50.7346 8.81479 50.7594 8.63495 50.7647 8.45401C50.7647 7.97104 50.3537 7.74497 49.9426 7.9957C49.7923 8.09589 49.6513 8.20938 49.5213 8.33481C48.6047 9.15688 47.7312 10.0283 46.8722 10.912C45.6945 12.1246 44.5416 13.3638 43.4462 14.6524C43.3146 14.8066 43.216 14.8847 43.0002 14.7696C41.9677 14.228 40.8673 13.8271 39.7283 13.5776C39.4694 13.52 39.4016 13.3721 39.3995 13.1337C39.3767 12.3293 39.2949 11.5277 39.1549 10.7353C38.6314 7.59809 37.84 4.51156 36.7894 1.50953C36.7586 1.415 36.7278 1.32046 36.6887 1.23208C36.6556 1.12856 36.5889 1.03903 36.4992 0.977621C36.4095 0.916214 36.3019 0.886432 36.1934 0.892978C36.0857 0.899986 35.9831 0.941572 35.9009 1.01155C35.8187 1.08154 35.7613 1.17618 35.7372 1.28141C35.7063 1.37389 35.6817 1.46843 35.6591 1.56502C34.7199 5.45755 33.7519 9.33979 33.0901 13.2919C33.0852 13.3872 33.0455 13.4774 32.9784 13.5452C32.9113 13.6131 32.8216 13.6539 32.7263 13.6598C31.8334 13.8817 30.9776 14.2327 30.1861 14.7018C30.0679 14.7625 29.9539 14.8311 29.845 14.9073C29.6867 15.0244 29.5922 14.971 29.4832 14.8312C28.4824 13.5704 27.3828 12.3911 26.1949 11.3045C25.6729 10.8175 25.6606 10.6592 25.9894 10.0324C26.4007 9.28188 26.6697 8.46177 26.7827 7.61344C26.9143 6.58584 26.3594 5.81104 25.3605 5.55825C24.9467 5.45141 24.516 5.42628 24.0925 5.48426C23.3896 5.58497 22.7135 5.73911 22.1524 6.22618C21.4101 5.57632 20.486 5.17024 19.5053 5.06295C19.4029 5.05275 19.3042 5.01907 19.2168 4.96454C19.1295 4.91001 19.0559 4.83608 19.0018 4.74851C18.5647 4.12353 17.9103 3.68389 17.1665 3.51539C16.1513 3.26672 15.3826 3.63665 14.9777 4.60053C14.9586 4.67748 14.9154 4.74629 14.8544 4.79694C14.7934 4.84759 14.7178 4.87743 14.6386 4.88209C14.3433 4.89863 14.0495 4.93502 13.759 4.99102C12.3101 5.34657 10.8324 5.35684 9.35476 5.37739C8.48336 5.38972 7.61196 5.40411 6.74262 5.4411C5.72551 5.4622 4.7135 5.59102 3.72355 5.82542C3.0627 5.9771 2.47417 6.35156 2.05679 6.8859C1.63968 7.41355 1.29415 7.99403 1.0292 8.61226C0.152423 10.7492 -0.175412 13.0716 0.0755934 15.3676C0.128993 15.9352 0.303364 16.4848 0.586969 16.9793C0.870574 17.4739 1.25683 17.9019 1.71974 18.2346C2.07209 18.5039 2.45 18.7379 2.84804 18.9334C3.7866 19.3652 4.76925 19.6939 5.77873 19.9137C6.65424 20.1192 7.5503 20.259 8.40115 20.5693C8.86768 20.7399 8.87179 20.7502 8.86357 21.2393C8.81954 22.125 8.72485 23.0074 8.57995 23.8823C8.35594 25.5614 8.16891 27.2405 8.22851 28.938C8.27178 30.0552 8.50028 31.1574 8.90467 32.1996C9.41847 33.5129 10.1892 34.6658 11.0318 35.788C11.3956 36.273 11.7511 36.7642 12.1087 37.2574C12.2011 37.3829 12.2652 37.5268 12.2968 37.6793C12.3284 37.8318 12.3266 37.9894 12.2916 38.1412C12.1493 38.9134 11.9339 39.6704 11.6483 40.4019C11.5972 40.556 11.5065 40.6941 11.3853 40.8023C11.2642 40.9105 11.1168 40.985 10.9578 41.0184C10.4258 41.1284 9.92211 41.3467 9.47807 41.6596C9.19396 41.8597 8.97375 42.1376 8.84394 42.46C8.71413 42.7823 8.68027 43.1353 8.74642 43.4764C8.86357 44.2615 9.23761 44.8657 10.0391 45.1206C10.4 45.232 10.7737 45.2969 11.151 45.3138C14.1269 45.4884 17.0946 45.3507 20.0602 45.1206C21.1487 45.0418 22.1796 44.6012 22.9889 43.869C23.844 43.1233 24.6077 42.2789 25.2639 41.3534C25.5804 40.9074 25.938 40.8458 26.4005 40.9198C26.4477 40.9198 26.495 40.9424 26.5443 40.9506C27.5514 41.1232 28.5009 41.4911 29.5141 41.8405C29.3867 42.0172 29.2901 42.1488 29.2017 42.2844C28.8946 42.754 28.7284 43.3017 28.7228 43.8628C28.6985 44.1358 28.7681 44.409 28.9202 44.637C29.0724 44.865 29.2978 45.0341 29.5593 45.1165C29.9889 45.2801 30.4379 45.3872 30.8952 45.435C32.3964 45.5981 33.9082 45.6435 35.4166 45.5707C36.551 45.5275 37.6773 45.472 38.8158 45.4597C40.2449 45.4444 41.6654 45.237 43.0392 44.8431C45.265 44.204 47.2154 43.1106 48.7321 41.3246C49.5708 40.2908 50.2593 39.1436 50.777 37.9171C52.1417 34.9788 52.6079 31.7027 52.117 28.5003C51.9851 27.6073 51.7928 26.7243 51.5415 25.8573C51.4655 25.6004 51.484 25.4155 51.7265 25.2778Z" fill="#221B15"/>
<path d="M51.3824 27.4437C51.368 27.3677 51.3516 27.2916 51.3351 27.2177C51.2077 26.5929 51.0502 25.9763 50.8625 25.368C51.7441 24.6302 52.6238 23.8883 53.5342 23.0004C52.2662 23.1011 51.2735 23.2059 50.0609 23.3519C49.8351 22.7756 49.565 22.2177 49.2532 21.683C49.2039 21.5926 49.1505 21.5042 49.0991 21.4159C48.6531 20.6739 48.1496 19.9772 47.6317 19.2703L47.1159 18.5674C48.5072 15.3346 49.7876 11.8613 50.1801 8.40243C47.6831 10.5892 45.5231 13.115 43.2685 15.5237L43.0199 15.3921C42.7979 15.275 42.5718 15.164 42.3437 15.0571L42.1033 14.9482C41.7909 14.8084 41.4723 14.6769 41.1496 14.5598L40.827 14.457C40.605 14.381 40.3831 14.3131 40.157 14.2515L39.8857 14.1796L39.6103 14.1138L39.3349 14.046L39.0513 13.9946C38.5683 9.76297 37.8182 5.44502 36.1967 1.45796C35.1588 5.61971 34.1312 9.82462 33.4345 14.046C32.9753 14.133 32.5247 14.2609 32.0883 14.4282C31.6253 14.6074 31.1731 14.8133 30.734 15.0448C30.7272 15.0459 30.7202 15.0459 30.7134 15.0448C30.3311 15.2503 29.9551 15.4558 29.581 15.6613C29.505 15.5586 29.4248 15.4558 29.3447 15.3592C28.9891 14.9071 28.6089 14.4735 28.2143 14.0501C28.0848 13.9083 27.9512 13.7665 27.8177 13.6267C27.0922 12.8704 26.3338 12.1388 25.6001 11.3907L25.522 11.3105C25.2343 11.0146 24.9486 10.7186 24.6732 10.4145C24.3075 10.0996 24.0126 9.71089 23.808 9.27383C23.6972 9.04096 23.646 8.78424 23.6589 8.52669C23.6718 8.26915 23.7485 8.01883 23.882 7.79821C24.1646 7.36998 24.561 7.02906 25.0267 6.81378C25.3178 6.66616 25.6219 6.54576 25.9351 6.45412C25.6177 6.21355 25.2443 6.05793 24.85 6.00198C24.2922 5.91228 23.7204 5.98876 23.2058 6.22188C22.7968 6.40026 22.4575 6.7078 22.2399 7.09739C21.8696 6.64381 21.4067 6.27457 20.8821 6.01441C20.3575 5.75425 19.7834 5.60917 19.1982 5.58888C18.999 5.51007 18.8195 5.38873 18.6721 5.23334V5.22306C18.4265 4.93603 18.1666 4.66165 17.8932 4.40099C17.6187 4.1691 17.2775 4.03085 16.919 4.00639C16.6509 3.97567 16.3794 3.9973 16.1195 4.0701C15.9749 4.1132 15.8485 4.20277 15.7599 4.32495C15.6489 4.4832 15.5955 4.67638 15.4845 4.8634C15.3126 5.14097 15.0377 5.33904 14.72 5.41419C14.2851 5.53514 13.8354 5.59395 13.3841 5.58888C12.151 5.96909 10.6589 5.95265 9.15452 5.9136C7.47543 5.87045 5.77168 5.80057 4.35772 6.22805C3.48083 6.46413 2.7046 6.97921 2.14634 7.69545C2.14087 7.7006 2.13665 7.70692 2.134 7.71395C1.85089 8.08924 1.62574 8.50491 1.46607 8.94706C1.18261 9.69238 0.95724 10.4585 0.791969 11.2386C0.572449 12.2596 0.490201 13.3053 0.547401 14.3481C0.569956 14.7364 0.617322 15.1229 0.689209 15.5052C1.41058 12.6279 2.48339 9.99931 3.28491 9.13408C3.12871 9.5595 2.97458 9.98493 2.83071 10.4124C2.81633 10.4535 2.80194 10.4926 2.78961 10.5316C2.40067 11.6435 2.09362 12.7824 1.87094 13.9391C1.87192 13.9535 1.87192 13.9679 1.87094 13.9823C1.69034 14.9518 1.60977 15.9373 1.63048 16.9232C1.69208 17.2721 1.85259 17.596 2.0929 17.8563C2.4505 18.2406 2.9643 18.4728 3.53153 18.6558C4.04944 18.8284 4.61256 18.9805 5.1428 19.2045C5.77622 19.472 6.43151 19.6845 7.10139 19.8395C7.8988 20.0451 8.64689 20.2095 9.26961 20.5239C9.59359 20.6746 9.88447 20.8881 10.1254 21.152C10.3664 21.4159 10.5526 21.7249 10.6733 22.0612C10.7165 23.3806 10.7555 24.7165 10.8665 26.0421C10.9739 27.6728 11.2627 29.2865 11.7276 30.8533C11.9471 31.5589 12.222 32.2461 12.5497 32.9085C12.8251 33.2476 13.1025 33.5682 13.3882 33.8744C13.8308 34.3594 14.3023 34.8172 14.8001 35.2452C15.2112 35.5946 15.6469 35.9316 16.1154 36.2605C15.8723 35.0266 15.8265 33.7621 15.9798 32.5139C16.0003 32.3515 16.0229 32.1871 16.0476 32.0247C16.0723 31.8624 16.1031 31.7021 16.1339 31.5397C16.1648 31.3774 16.2017 31.2171 16.2387 31.0567C16.2757 30.8964 16.3168 30.7382 16.36 30.5799C16.4032 30.4217 16.4504 30.2614 16.4998 30.1052C16.5737 29.8688 16.6539 29.6346 16.7382 29.4023C16.7669 29.3263 16.7957 29.2482 16.8265 29.1721C16.8861 29.018 16.9498 28.8659 17.0135 28.7138C17.0773 28.5617 17.1471 28.4117 17.2191 28.2637C17.291 28.1158 17.3609 27.9657 17.4369 27.8198C17.513 27.6739 17.589 27.528 17.6692 27.3841C17.7082 27.3122 17.7493 27.2403 17.7904 27.1786C17.8726 27.0347 17.9569 26.895 18.0432 26.7552L18.1747 26.5497C18.2857 26.3976 18.3987 26.2476 18.5118 26.0996C18.6248 25.9517 18.744 25.8078 18.8632 25.6639C20.4189 23.8192 22.3581 22.3358 24.5458 21.3172C24.6897 21.2473 24.8356 21.1816 24.9815 21.1117C25.1274 21.0418 25.3186 20.9658 25.4871 20.9062C25.6556 20.8466 25.8262 20.7705 25.9968 20.7007C26.1673 20.6349 26.34 20.5732 26.5126 20.5136C26.9237 20.3766 27.3347 20.2485 27.7457 20.1293C28.0376 20.0471 28.3335 19.9731 28.6315 19.9053C30.7538 19.4206 32.9352 19.2468 35.1074 19.3895C35.3479 19.4038 35.5883 19.4223 35.8288 19.447C36.2275 19.4867 36.6234 19.5347 37.0167 19.5909C37.1893 19.6155 37.3599 19.6443 37.5325 19.6731C37.8552 19.7286 38.1737 19.7902 38.4923 19.858C38.7697 19.9176 39.0472 19.9834 39.3144 20.0636L39.674 20.1581L40.0111 20.2526C41.6722 20.7211 43.2673 21.3978 44.7586 22.2667C44.8921 22.3428 45.0257 22.425 45.1573 22.5072L45.2436 22.5627C45.334 22.6161 45.4224 22.6716 45.5066 22.7332C45.9423 23.0292 46.341 23.3827 46.7747 23.6807C47.0193 23.8657 47.2577 24.0609 47.4858 24.2664L47.5228 24.2993C47.7283 24.4945 47.9338 24.6959 48.1393 24.9035C48.1866 24.9528 48.2339 25.0022 48.2791 25.0535C48.3695 25.1481 48.4558 25.2447 48.5421 25.3413C48.8666 25.7043 49.1705 26.0851 49.4526 26.4819C49.4793 26.5168 49.504 26.5538 49.5286 26.5908L49.4978 26.5682L49.5286 26.6114C49.5841 26.6813 49.6293 26.7614 49.6807 26.8354C49.6376 26.7532 49.578 26.673 49.5348 26.5949C49.765 26.9382 49.9808 27.2916 50.1781 27.6534C50.2253 27.7356 50.2706 27.8178 50.3137 27.9041C50.3569 27.9904 50.4206 28.1096 50.472 28.2124C50.5233 28.3151 50.5542 28.3809 50.5932 28.4652C50.7124 28.7179 50.8234 28.9748 50.9241 29.2379C50.9693 29.353 51.0125 29.4701 51.0536 29.5873C51.0947 29.7044 51.1358 29.8216 51.1748 29.9408C51.2009 30.0202 51.2255 30.1004 51.2488 30.1812C51.2797 30.2758 51.3084 30.3724 51.3331 30.4669V30.4875C51.3619 30.5923 51.3906 30.693 51.4153 30.804C51.5259 31.2391 51.611 31.6804 51.6701 32.1254L51.6825 31.9096C51.7123 31.3229 51.7123 30.7351 51.6825 30.1484C51.6469 29.2408 51.5466 28.337 51.3824 27.4437ZM4.2344 7.56392C3.76582 8.24624 3.27463 7.2207 3.56236 6.76445C3.90763 6.17461 4.37416 6.87543 4.2714 7.38101C4.27217 7.44391 4.25956 7.50626 4.2344 7.56392ZM8.10432 10.2357C8.27284 10.0301 8.50508 10.1987 8.651 10.3425C10.4472 12.0607 12.5559 13.3225 14.646 14.6235C12.9095 14.0639 11.2845 13.2042 9.84506 12.0833C9.41347 11.5798 7.98101 10.9159 8.10432 10.2459V10.2357ZM4.96194 8.35928C4.04738 7.68928 5.67303 7.25975 6.20944 7.55364C7.124 8.22158 5.50245 8.64495 4.96194 8.35928ZM6.16833 14.4693C5.86622 14.196 5.89088 13.5281 6.39852 13.8733C6.97808 14.753 7.77549 15.4435 8.48658 16.1978C7.62546 15.7436 6.74995 15.3037 6.16833 14.4693ZM14.5103 17.6323C11.8145 16.5215 9.38978 14.8427 7.40144 12.7101C7.24525 12.5046 6.80339 12.1449 7.10344 11.888C7.51448 11.6825 7.74261 12.3977 8.04472 12.593C10.0547 14.6296 12.3873 16.1936 14.8268 17.6816C14.6686 17.7597 14.5946 17.6713 14.5103 17.6323ZM19.7326 8.69016C18.1377 9.8349 18.8529 8.02839 17.5253 8.27912C16.4402 8.48464 17.254 9.74858 15.7126 8.91829C14.4446 7.64818 20.8033 7.23098 19.7326 8.69016Z" fill="#EDA463"/>
<path d="M16.7272 38.6286C16.6198 39.0402 16.4824 39.4434 16.3161 39.8349C16.2144 40.0867 16.0589 40.3132 15.8605 40.4985C15.662 40.6838 15.4254 40.8235 15.1673 40.9078C14.7674 41.0597 14.4045 41.2951 14.1027 41.5983C13.5252 42.1511 13.4368 42.815 13.6341 43.5446C13.7959 44.0637 14.1103 44.522 14.5363 44.8599C14.3062 44.8599 14.1664 44.8599 14.0266 44.8599C12.9438 44.8801 11.8606 44.8438 10.7815 44.7509C9.93067 44.6687 9.4107 44.3029 9.27506 43.413C9.22555 43.146 9.26004 42.8702 9.37377 42.6236C9.4875 42.377 9.67488 42.1717 9.91011 42.0361C10.3216 41.7952 10.7671 41.6178 11.2316 41.5099C11.4305 41.4615 11.6139 41.3635 11.7648 41.2252C11.9157 41.0869 12.0292 40.9126 12.0948 40.7187C12.4399 39.8672 12.6928 38.9811 12.849 38.0757C12.9012 37.7819 12.848 37.4792 12.699 37.2208C12.3681 36.6537 11.9893 36.116 11.5666 35.6136C10.5513 34.2942 9.64294 32.9131 9.14969 31.2977C9.05433 30.9518 8.9802 30.6004 8.92773 30.2455C9.46516 30.7664 9.97486 31.3152 10.4547 31.8896C10.5246 31.9677 10.5945 32.0437 10.6603 32.1177C10.7774 32.2451 10.8987 32.3664 11.022 32.4835C11.1083 32.5719 11.1967 32.6562 11.2871 32.7384L11.5748 32.9973C11.9632 33.3385 12.3661 33.6612 12.7956 33.9982L12.9806 34.14L13.2107 34.3147C13.7471 35.1368 14.5569 35.6259 15.3851 36.1007C15.7075 36.2647 15.9978 36.4854 16.2421 36.7522C16.4774 36.9969 16.6457 37.2981 16.7306 37.6268C16.8156 37.9555 16.8144 38.3005 16.7272 38.6286Z" fill="#C5864F"/>
<path d="M13.2207 34.3208L12.9905 34.1461L12.8055 34.0043C12.376 33.6673 11.9835 33.3446 11.5848 33.0034L11.3053 32.7486C11.2148 32.6664 11.1265 32.5821 11.0401 32.4938C10.9168 32.3766 10.7956 32.2554 10.6784 32.1279C10.6044 32.0539 10.5346 31.9779 10.4729 31.8998C9.99303 31.3254 9.48333 30.7766 8.9459 30.2557C8.76288 29.2548 8.71175 28.2343 8.79382 27.2202C8.88425 25.4506 9.20486 23.7037 9.3816 21.9445C9.40832 21.6855 9.42682 21.4245 9.45559 21.0875C10.033 21.4648 10.4672 22.0249 10.6887 22.6782C10.7483 23.8209 10.7874 24.9636 10.8634 26.1042C10.9209 26.9386 11.0586 27.7318 11.1984 28.5518C11.4052 29.779 11.7224 31.0073 12.2506 32.1341C12.3657 32.3807 12.4438 32.6458 12.5384 32.9027C12.7089 33.3938 12.9343 33.864 13.2104 34.3044L13.2207 34.3208Z" fill="#FBD492"/>
<path d="M35.7903 40.4753C35.2642 40.5267 34.8326 40.5554 34.4051 40.6109C33.583 40.7198 32.8329 41.022 32.2903 41.694C31.6738 41.9221 31.0962 41.7844 30.5146 41.5933L30.3769 41.544C30.1961 41.4885 29.9412 41.4207 29.8241 41.3857H29.7953L29.4706 41.2788L29.2116 41.1946L29.0822 41.1514L28.8294 41.0692C28.5293 40.9706 28.2395 40.876 27.884 40.763L27.6148 40.6767C27.2135 40.5463 26.8005 40.4554 26.3817 40.4054C26.2595 40.3844 26.1351 40.3796 26.0117 40.391L26.0302 40.2718C26.1905 39.6737 26.4063 39.088 26.6283 38.4715C27.3517 38.677 28.0546 38.8825 28.7636 39.0592C29.9603 39.383 31.1798 39.6159 32.4116 39.756C32.5123 39.756 32.6171 39.7765 32.7096 39.7827C33.2298 39.8275 33.7526 39.8323 34.2736 39.7971C34.4935 39.7827 34.7113 39.7601 34.9312 39.7272H34.9436L35.7903 40.4753Z" fill="#FBD492"/>
<path d="M32.8861 45.0569C32.7053 45.0569 32.3888 45.0425 32.2922 45.0384C31.541 45.0212 30.794 44.9219 30.0643 44.7425C29.3224 44.5369 29.158 44.2369 29.2957 43.4806C29.4145 42.8819 29.7414 42.3445 30.2185 41.9639C30.3267 41.8496 30.4244 41.7258 30.5103 41.5939C31.0919 41.7851 31.6777 41.9227 32.286 41.6946C32.117 41.9754 31.9792 42.2738 31.875 42.5845C31.6756 43.5114 32.2264 44.391 32.8861 45.0569Z" fill="#C5864F"/>
<path d="M51.7007 32.1314C51.5157 35.132 50.7224 37.5386 49.477 39.4253C47.5944 42.28 44.6781 43.9467 41.2562 44.6845C38.9937 45.1438 36.6756 45.265 34.3775 45.0442C32.5977 44.5489 31.8024 43.4226 32.9389 41.7703C33.9809 40.903 35.3722 40.8084 36.6711 40.6337C36.5889 40.5413 36.5067 40.4508 36.4224 40.3604C36.4224 40.3604 36.4224 40.3604 36.4121 40.3501C36.3299 40.2618 36.2436 40.1734 36.1573 40.0871L35.9353 39.8672C35.2016 39.152 34.4083 38.4861 33.7301 37.7257L33.5945 37.5695C33.5308 37.4955 33.4691 37.4194 33.4095 37.3434C33.3898 37.3211 33.3712 37.2978 33.354 37.2735C33.2883 37.1934 33.2266 37.1112 33.167 37.0269C33.1074 36.9426 33.0334 36.8378 32.9615 36.7392C32.8896 36.6405 32.8382 36.5337 32.7806 36.4412C32.7354 36.3631 32.6923 36.2829 32.6512 36.2028H32.6388C31.9862 35.0928 31.6388 33.83 31.6318 32.5425C31.6251 32.1019 31.6443 31.6614 31.6893 31.2231C31.819 30.0734 32.2075 28.9681 32.8258 27.9902C33.2898 27.0963 33.9676 26.331 34.7988 25.7624C36.0587 24.8191 39.4826 24.069 39.4826 24.069C37.8575 24.039 36.2517 24.4245 34.8173 25.189C34.8158 25.1881 34.814 25.1877 34.8122 25.1877C34.8104 25.1877 34.8086 25.1881 34.807 25.189C32.4539 26.5146 30.8508 29.0631 30.9556 33.12C30.9782 34.051 31.3317 35.0539 31.8661 36.0116V36.026C32.5778 37.4859 33.6285 38.7543 34.9304 39.7254C34.1896 39.8298 33.4394 39.8491 32.6943 39.7829C30.6062 39.6103 28.625 39.0389 26.613 38.4717C26.366 39.0982 26.1601 39.7401 25.9965 40.3933C24.0297 40.9091 23.448 43.7371 21.2552 44.2981C19.3356 44.6927 16.8221 45.336 14.9745 44.4852C13.9839 43.9035 13.6962 42.3169 14.7936 41.76C14.9353 41.7013 15.0727 41.6326 15.2047 41.5545C15.291 41.5031 15.3753 41.4497 15.4575 41.3901L15.552 41.3222C15.6837 41.2217 15.8087 41.1125 15.9261 40.9955C16.0951 40.8305 16.2486 40.6503 16.3844 40.457C16.4419 40.381 16.4933 40.3029 16.5426 40.2227C17.3647 38.9197 17.4674 37.1954 16.1131 36.2685C15.8699 35.0347 15.8242 33.7701 15.9774 32.5219C15.998 32.3596 16.0206 32.1952 16.0453 32.0328C16.0699 31.8704 16.1007 31.7101 16.1316 31.5478C16.1624 31.3854 16.1994 31.2251 16.2364 31.0648C16.2734 30.9045 16.3145 30.7463 16.3576 30.588C16.4008 30.4298 16.4481 30.2694 16.4974 30.1133C16.5714 29.8769 16.6515 29.6426 16.7358 29.4104C16.7646 29.3343 16.7933 29.2562 16.8242 29.1802C16.8838 29.0261 16.9475 28.874 17.0112 28.7219C17.0749 28.5698 17.1448 28.4198 17.2167 28.2718C17.2886 28.1238 17.3585 27.9738 17.4346 27.8279C17.5106 27.682 17.5866 27.5361 17.6668 27.3922C17.7058 27.3203 17.7469 27.2483 17.7881 27.1867C17.8703 27.0428 17.9545 26.9031 18.0408 26.7633L18.1724 26.5578C18.2834 26.4057 18.3964 26.2557 18.5094 26.1077C18.6225 25.9597 18.7417 25.8159 18.8609 25.672C20.4217 23.8327 22.253 22.2355 24.566 21.2655C24.7099 21.1956 24.8558 21.1298 25.0017 21.06C25.1477 20.9901 25.3388 20.914 25.5073 20.8544C25.6758 20.7948 25.8464 20.7188 26.017 20.6489C26.1876 20.5832 26.3602 20.5215 26.5328 20.4619C26.9439 20.3249 27.3323 20.2566 27.7434 20.1374C28.0352 20.0552 28.3312 19.9812 28.6292 19.9134C30.7523 19.4255 32.9352 19.249 35.1092 19.3893C35.3496 19.4057 35.5901 19.4242 35.8305 19.4468C36.2292 19.4866 36.6252 19.5345 37.0184 19.5907C37.1911 19.6154 37.3616 19.6441 37.5343 19.6729C37.8569 19.7284 38.1755 19.7901 38.494 19.8579C38.7715 19.9175 39.0489 19.9832 39.3161 20.0634L39.6758 20.1579L40.0128 20.2525C41.6725 20.725 43.2672 21.4015 44.7603 22.2666C44.8939 22.3426 45.0275 22.4248 45.159 22.507L45.2453 22.5625C45.3358 22.6159 45.4241 22.6714 45.5084 22.7331C45.9441 23.029 46.3428 23.3825 46.7764 23.6805C47.021 23.8655 47.2594 24.0607 47.4875 24.2663L47.5245 24.2991C47.73 24.4944 47.9356 24.6958 48.1411 24.9034C48.1884 24.9527 48.2356 25.002 48.2808 25.0534C48.3713 25.1479 48.4576 25.2445 48.5439 25.3411C48.8645 25.709 49.1605 26.0913 49.4543 26.4817L49.4297 26.5023C49.4707 26.5303 49.5074 26.5643 49.5386 26.603C49.5941 26.6729 49.6393 26.753 49.6907 26.827C49.6475 26.7448 49.5879 26.6647 49.5448 26.5866C49.775 26.9298 49.9908 27.2833 50.1881 27.645C50.2353 27.7272 50.2805 27.8094 50.3237 27.8957C50.3669 27.982 50.4306 28.1012 50.4819 28.204C50.5333 28.3067 50.5642 28.3725 50.6032 28.4568C50.7224 28.7096 50.8334 28.9665 50.9341 29.2295C50.9793 29.3446 51.0225 29.4618 51.0636 29.5789C51.1047 29.6961 51.1458 29.8132 51.1848 29.9324C51.2108 30.0119 51.2355 30.092 51.2588 30.1729C51.2896 30.2674 51.3164 30.364 51.3431 30.4585V30.4791C51.3718 30.5839 51.3986 30.6846 51.4253 30.7956C51.5458 31.2409 51.6376 31.6862 51.7007 32.1314Z" fill="#D99559"/>
<path d="M25.374 11.1687C27.0962 12.8992 28.9397 14.6152 30.2818 16.6416C32.2938 20.4622 34.1311 24.5233 35.8308 28.4692C35.9109 28.6172 35.9582 28.5001 35.913 28.5473C35.8678 28.5946 35.878 28.5617 35.8678 28.5329C34.6573 24.1883 33.6852 19.7265 33.2577 15.2297C33.9482 10.622 35.0704 6.01428 36.213 1.47232C37.8962 5.61969 38.6402 10.1411 39.1211 14.5433C38.8128 19.0647 37.7935 23.9334 36.4946 28.198C38.036 24.1225 40.0316 19.6134 42.7444 16.0724C45.1921 13.5095 47.4775 10.7576 50.1821 8.40857C49.7855 11.8695 48.5051 15.3428 47.1179 18.5674C46.3595 21.3172 39.4294 26.634 36.9837 28.7302C40.8701 26.2126 45.2764 23.5553 50.0609 23.3333C51.2755 23.1977 52.2661 23.0847 53.5341 22.9819C52.6299 23.8697 51.7523 24.6117 50.8624 25.3495C49.2285 27.0984 46.7787 28.6645 44.3516 29.0488C41.8101 29.427 39.238 29.5578 36.6713 29.4393C39.0369 29.7496 41.4414 30.3826 43.7494 31.0958C45.8539 32.0884 47.5145 33.8456 49.2984 35.313C49.9766 35.761 49.804 36.2913 48.9881 35.983C47.5659 35.7302 46.1437 35.4774 44.7379 35.1383C41.8504 34.4663 39.4232 32.0699 37.1728 30.4689C38.634 32.2179 40.5577 33.8744 41.2667 36.3838C41.5031 36.8256 41.4497 37.3517 40.8557 37.0003C39.6431 36.281 38.1614 35.5391 37.6825 34.1231C37.1297 32.8057 36.6549 31.1328 36.2439 29.9325C36.5953 31.1245 36.6056 32.5755 36.8255 33.8538C37.0516 35.4473 37.2701 37.0407 37.4811 38.6342C37.5612 39.2322 37.4811 39.3391 36.8851 39.3597C35.7034 39.3987 35.6725 39.3967 35.7054 38.2273C35.8369 35.5555 35.7547 32.8694 36.026 30.212C35.6664 32.5097 34.647 34.4745 32.6617 36.1721C32.4418 36.3591 32.1006 36.7023 31.9341 36.8133C29.5583 39.0021 31.2333 35.461 31.7122 34.3717C32.4562 32.8283 34.0222 31.663 35.1073 30.4381C33.1878 31.9014 31.1696 33.9854 28.6952 34.606C26.9072 35.0397 25.1109 35.4281 23.3126 35.8021C23.0845 35.8494 22.7721 36.0077 22.6447 35.724C22.5399 35.4939 22.8235 35.3253 22.9838 35.1774C25.4336 32.7995 28.28 31.141 31.6546 30.4299C32.8672 30.1524 34.797 29.5626 35.652 29.5174C33.8434 29.7065 32.0472 29.2482 30.2407 29.2071C29.0344 29.094 27.8347 28.9198 26.6462 28.685C23.6928 27.6143 21.3582 25.2796 18.9043 23.3847C18.5652 23.1545 18.6001 22.7682 19.0892 22.8997C26.4036 23.5019 28.8699 24.6548 34.9142 28.5042C32.0513 26.0791 28.8699 23.3662 26.3379 20.5095C23.9395 17.1369 23.1421 12.9259 22.0898 9.00047C21.9398 8.58943 22.2522 8.38391 22.5707 8.69219C23.5325 9.48755 24.5642 10.2171 25.374 11.1687Z" fill="#38854D"/>
</g>
<defs>
<clipPath id="clip0_2274_2593">
<rect width="54" height="44.7167" fill="white" transform="translate(0 0.892822)"/>
</clipPath>
</defs>
</svg>
