<svg width="60" height="40" viewBox="0 0 60 40" fill="none" xmlns="http://www.w3.org/2000/svg">
<g clip-path="url(#clip0_2033_41)">
<path d="M52.4336 8.93686L55.3448 8.00276C53.3522 10.8687 50.5755 15.9941 44.9293 22.3032C43.4245 23.8651 41.7635 25.3331 39.9451 26.7078C38.1266 28.0826 36.2766 29.0818 34.3956 29.7068C33.5806 29.957 32.8282 30.1441 32.1384 30.2695C31.4492 30.3942 30.8529 30.4566 30.3516 30.4566C29.0978 30.4566 28.1885 30.1132 27.6239 29.4258C27.1656 28.7976 26.9172 28.0125 26.8778 27.0711C27.3673 26.7793 27.8558 26.4857 28.343 26.1902C32.0552 23.9071 35.7344 21.5382 39.1834 18.8676C41.4034 17.2529 43.7063 15.1498 44.2711 14.5247C45.4623 13.2747 46.0579 11.6813 46.0579 9.74455C46.0579 8.68229 45.7449 7.77693 45.1177 7.02718C44.4905 6.21442 43.3619 5.80867 41.7319 5.80867C39.8509 5.80867 37.8972 6.14079 35.8904 7.26542C33.8842 8.39004 32.0448 9.99468 30.3516 11.6189C28.659 13.2438 27.311 14.8057 26.3075 16.3052C25.4299 17.7423 24.4891 19.4913 23.4857 21.5535C22.5455 23.615 22.0751 25.5523 22.0751 27.3637C22.0751 27.6291 22.0924 27.8869 22.1266 28.1374C20.2366 29.2619 18.3318 30.3609 16.4107 31.4288C16.3076 31.4751 16.2046 31.5253 16.1025 31.5799C12.876 33.3071 10.753 33.6254 10.0632 33.7507C9.37405 33.8755 8.7778 33.9379 8.27641 33.9379C7.02262 33.9379 6.1134 33.5945 5.54878 32.9071C5.04739 32.2197 4.79637 31.3452 4.79637 30.283C4.79637 30.1776 4.79837 30.0706 4.80205 29.9624C6.30112 29.2079 7.77122 28.396 9.22279 27.5542C11.5907 26.163 13.918 24.6737 16.1307 23.0293C18.6059 21.3912 21.5474 18.7239 22.1959 18.006C23.3871 16.7559 23.9827 15.1626 23.9827 13.2258C23.9827 12.1636 23.6698 11.2582 23.0426 10.5084C22.4153 9.69568 21.2867 9.28994 19.6567 9.28994C17.7757 9.28994 15.8221 9.62206 13.8152 10.7467C11.809 11.8713 9.96965 13.4759 8.27641 15.1002C6.58382 16.7251 5.48747 18.2627 4.48405 19.7622C3.60646 21.1993 2.41396 22.9726 1.41054 25.0347C0.470416 27.0962 0 29.0335 0 30.845C0 32.2821 0.50139 33.5006 1.50481 34.5005C2.50824 35.4997 4.29504 36 6.86587 36C10.524 36 14.2148 34.1236 17.4626 32.2973C17.4995 32.2766 17.5354 32.256 17.5703 32.2357C19.2486 31.3839 20.9068 30.4943 22.5487 29.5758C22.7958 30.0991 23.1394 30.5802 23.58 31.0192C24.5834 32.0185 26.3702 32.5187 28.941 32.5187C31.5744 32.5187 34.1137 31.8937 36.5593 30.6444C39.0043 29.332 41.2305 27.7386 43.2367 25.8642C48.8435 20.5516 56.682 9.29528 56.6897 8.97223L56.6899 8.97197L56.7779 12.0676L60 3L52.4336 8.93686ZM6.11734 24.3326V24.3319C6.11992 24.3248 6.12315 24.3165 6.12637 24.3081C6.13799 24.2773 6.15025 24.2464 6.16186 24.2155C6.16896 24.1969 6.17735 24.1763 6.18574 24.1538C6.19284 24.1352 6.20058 24.1159 6.20768 24.0972H6.20833C6.40449 23.6014 6.80328 22.6266 6.96848 22.2235C6.96589 22.2235 6.96267 22.2228 6.96009 22.2228C6.9859 22.1669 7.01171 22.1103 7.03817 22.0537C7.04139 22.046 7.04333 22.0415 7.04333 22.0415H7.04397C7.66087 20.7118 8.47974 19.2097 9.4993 17.5372C10.5653 15.7876 11.8675 14.3081 13.2613 12.9448C14.4349 11.7969 16.3336 10.8833 18.152 10.8833C18.8418 10.8833 19.5086 11.2626 19.8222 11.7629C20.1359 12.2625 20.324 12.7598 20.324 13.5095C20.324 14.4862 20.302 15.487 19.6405 16.672C19.6405 16.6725 17.8732 19.3935 14.5722 22.1834C11.3757 24.5358 8.08134 26.7887 4.8638 29.1339C4.92491 28.5798 5.02706 27.9949 5.17257 27.3778C5.40617 26.3895 5.72042 25.3742 6.11728 24.3325L6.11734 24.3326ZM27.2478 23.8966C27.4814 22.9083 27.7956 21.893 28.1925 20.8513V20.8506C28.1951 20.8436 28.1983 20.8352 28.2015 20.8269C28.2131 20.796 28.2254 20.7651 28.237 20.7343C28.2441 20.7156 28.2525 20.695 28.2609 20.6725C28.268 20.6539 28.2757 20.6346 28.2828 20.6159H28.2835C28.4796 20.1202 28.8784 19.1454 29.0436 18.7422C29.041 18.7422 29.0378 18.7416 29.0352 18.7416C29.061 18.6856 29.0869 18.629 29.1133 18.5725C29.1165 18.5647 29.1185 18.5602 29.1185 18.5602H29.1191C29.736 17.2305 30.5549 15.7284 31.5744 14.0559C32.6405 12.3063 33.9426 10.8269 35.3365 9.46355C36.5101 8.31565 38.4087 7.40206 40.2271 7.40206C40.9169 7.40206 41.5838 7.78137 41.8974 8.28163C42.211 8.78125 42.3991 9.27849 42.3991 10.0282C42.3991 11.005 42.3771 12.0057 41.7157 13.1908C41.7157 13.1913 39.5134 16.5823 35.4331 19.6748C34.7794 20.1246 34.1222 20.5691 33.4651 21.0118C31.329 22.4191 29.1752 23.8048 27.0028 25.1622C27.0636 24.7558 27.1445 24.3345 27.2478 23.8965V23.8966Z" fill="#315097"/>
</g>
<defs>
<clipPath id="clip0_2033_41">
<rect width="60" height="40" fill="white"/>
</clipPath>
</defs>
</svg>
