<?xml version="1.0" standalone="no"?>
<!DOCTYPE svg PUBLIC "-//W3C//DTD SVG 20010904//EN"
 "http://www.w3.org/TR/2001/REC-SVG-20010904/DTD/svg10.dtd">
<svg version="1.0" xmlns="http://www.w3.org/2000/svg"
 width="960.000000pt" height="960.000000pt" viewBox="0 0 960.000000 960.000000"
 preserveAspectRatio="xMidYMid meet">
<metadata>
Created by potrace 1.14, written by Peter Selinger 2001-2017
</metadata>
<g transform="translate(0.000000,960.000000) scale(0.100000,-0.100000)"
fill="#000000" stroke="none">
<path d="M9560 7490 c-14 -11 -32 -26 -40 -33 -8 -7 -35 -28 -60 -47 -25 -19
-50 -39 -57 -45 -6 -5 -22 -18 -35 -28 -22 -17 -97 -76 -128 -100 -8 -7 -33
-26 -55 -42 -22 -16 -42 -32 -45 -35 -3 -3 -45 -37 -95 -75 -49 -38 -97 -75
-105 -82 -8 -7 -85 -68 -171 -135 -87 -68 -205 -160 -263 -206 -58 -46 -106
-85 -106 -87 0 -6 33 7 48 18 6 5 12 7 12 3 0 -3 16 0 35 8 20 9 39 16 43 16
18 2 58 13 67 19 6 3 16 7 23 8 19 5 36 9 52 16 8 3 50 17 92 30 88 29 88 30
27 -56 -16 -23 -36 -51 -43 -62 -25 -37 -351 -546 -361 -563 -5 -9 -12 -19
-15 -22 -5 -5 -78 -114 -95 -142 -43 -71 -283 -412 -310 -439 -8 -9 -15 -21
-15 -27 0 -5 -3 -12 -8 -14 -4 -1 -38 -46 -77 -98 -38 -52 -86 -115 -105 -140
-20 -25 -90 -112 -156 -195 -65 -82 -128 -160 -139 -171 -11 -12 -31 -37 -45
-55 -14 -18 -32 -40 -41 -48 -8 -9 -56 -63 -106 -121 -133 -155 -367 -383
-542 -530 -23 -19 -52 -44 -65 -55 -50 -43 -73 -62 -131 -108 -87 -69 -87 -69
-130 -101 -22 -17 -42 -32 -45 -35 -6 -7 -105 -75 -165 -115 -22 -14 -45 -29
-50 -34 -22 -18 -203 -120 -305 -172 -123 -62 -284 -126 -405 -160 -133 -37
-269 -69 -277 -64 -4 3 -8 1 -8 -3 0 -5 -8 -9 -17 -9 -10 0 -43 -4 -73 -8
-114 -17 -289 -22 -340 -11 -14 3 -41 8 -60 11 -19 4 -59 17 -88 30 -29 13
-55 23 -57 24 -8 0 -58 43 -91 78 -61 64 -115 205 -128 333 l-6 57 147 88
c194 118 194 118 330 203 314 197 536 341 544 353 3 6 9 8 12 6 4 -1 15 4 25
12 10 8 72 51 138 95 65 44 124 83 129 88 6 4 75 53 155 109 224 156 441 317
491 363 9 8 19 15 22 15 4 0 15 6 24 14 10 8 77 60 148 117 72 56 146 116 166
133 19 17 58 50 85 73 27 23 60 51 74 63 211 179 374 354 431 460 13 25 27 48
32 51 10 8 85 222 92 267 14 81 16 102 20 222 3 99 -1 144 -16 209 -19 82 -65
188 -94 217 -8 9 -15 18 -15 22 -1 12 -64 77 -100 102 -19 13 -37 27 -40 30
-7 8 -98 46 -135 55 -51 14 -59 15 -105 23 -60 9 -347 9 -435 -1 -113 -12
-261 -46 -375 -84 -104 -35 -323 -135 -348 -160 -7 -7 -18 -13 -23 -13 -5 0
-15 -4 -22 -10 -7 -5 -57 -40 -112 -77 -55 -36 -126 -87 -159 -112 -32 -25
-66 -50 -75 -56 -9 -5 -18 -13 -21 -16 -3 -3 -39 -34 -80 -69 -231 -192 -513
-466 -695 -675 -27 -32 -55 -63 -60 -69 -6 -6 -26 -31 -45 -56 -19 -25 -37
-47 -40 -50 -24 -21 -200 -272 -200 -286 0 -3 -8 -18 -19 -32 -34 -49 -180
-316 -271 -497 -36 -72 -69 -133 -73 -136 -5 -3 -9 -10 -9 -15 -1 -5 -16 -40
-34 -79 -44 -94 -77 -177 -103 -255 -23 -68 -27 -80 -30 -92 -1 -4 -8 -27 -17
-50 -8 -23 -17 -55 -20 -72 -3 -17 -9 -48 -15 -69 -6 -21 -12 -54 -15 -74 -2
-19 -6 -38 -8 -42 -10 -16 -21 -164 -21 -287 l0 -131 -60 -34 c-33 -19 -66
-35 -72 -37 -7 -2 -13 -8 -13 -13 0 -5 -4 -9 -10 -9 -5 0 -43 -20 -83 -45 -41
-25 -80 -45 -86 -45 -6 0 -11 -3 -11 -7 0 -5 -10 -13 -23 -19 -12 -6 -98 -54
-190 -107 -92 -54 -172 -97 -178 -97 -5 0 -9 -4 -9 -10 0 -5 -4 -10 -10 -10
-5 0 -33 -14 -62 -31 -52 -31 -422 -219 -431 -219 -2 0 -26 -10 -53 -22 -27
-12 -53 -23 -59 -24 -5 -1 -50 -18 -100 -37 -49 -18 -103 -38 -120 -42 -16 -5
-32 -9 -35 -10 -70 -21 -121 -35 -147 -39 -17 -2 -35 -6 -40 -9 -4 -3 -26 -8
-48 -11 -47 -8 -80 -14 -115 -21 -90 -19 -320 -26 -410 -13 -144 22 -266 108
-328 231 -45 90 -63 165 -69 287 l-6 106 89 45 c106 54 232 121 372 201 57 32
105 58 107 58 3 0 38 20 78 45 41 25 80 45 86 45 6 0 11 4 11 8 0 5 18 17 40
27 22 10 40 21 40 24 0 4 12 12 27 19 16 6 60 32 98 57 39 24 81 50 95 57 14
7 27 15 30 18 3 3 30 21 60 40 30 19 56 38 58 42 2 5 8 8 14 8 5 0 24 10 41
23 17 12 40 27 49 32 68 38 531 363 536 377 2 4 8 8 13 8 13 0 219 149 334
241 213 171 416 349 545 479 83 83 170 182 170 194 0 3 15 29 33 58 44 69 98
202 112 278 3 14 7 36 10 50 19 89 25 283 12 365 -5 36 -10 57 -33 135 -4 14
-14 36 -23 50 -9 14 -23 37 -30 52 -8 15 -22 37 -33 47 -10 11 -18 23 -18 26
0 25 -149 130 -213 150 -12 4 -26 9 -32 10 -15 5 -56 15 -90 20 -16 3 -43 8
-59 11 -16 4 -91 6 -167 6 -122 0 -180 -4 -269 -17 -14 -3 -45 -7 -68 -10 -24
-3 -81 -14 -125 -26 -45 -11 -89 -23 -97 -24 -20 -5 -133 -47 -190 -70 -89
-37 -212 -106 -330 -183 -139 -91 -403 -295 -481 -371 -9 -9 -56 -52 -104 -96
-144 -130 -282 -271 -398 -403 -15 -18 -27 -37 -27 -44 0 -6 -3 -9 -6 -5 -13
12 -354 -462 -354 -492 0 -6 -3 -11 -7 -11 -7 0 -24 -26 -106 -165 -7 -11 -15
-22 -18 -25 -4 -3 -17 -25 -29 -50 -12 -25 -26 -47 -30 -50 -6 -4 -80 -130
-148 -253 -48 -86 -131 -254 -157 -317 -14 -36 -30 -74 -35 -85 -24 -54 -84
-250 -96 -310 -2 -11 -6 -31 -10 -45 -3 -14 -7 -38 -10 -55 -3 -16 -9 -54 -15
-82 -6 -29 -8 -57 -5 -62 4 -5 2 -12 -2 -15 -10 -6 -9 -290 1 -345 33 -184
167 -393 310 -487 89 -58 244 -122 312 -130 11 -1 31 -4 45 -8 50 -12 171 -26
257 -31 33 -1 66 -5 71 -9 6 -3 13 -2 16 3 3 5 21 6 40 1 19 -4 37 -6 39 -4 2
2 50 6 108 9 57 3 115 8 129 10 14 3 41 8 60 10 19 2 44 6 55 9 11 2 54 12 95
21 141 31 389 114 525 175 22 9 65 28 95 41 74 31 339 163 400 199 28 16 50
27 50 23 0 -3 8 1 18 9 9 9 46 31 82 49 36 19 67 36 70 39 3 3 57 31 120 64
178 91 391 204 534 283 43 23 82 43 86 43 5 0 10 3 12 8 1 4 17 15 34 24 30
17 32 17 38 1 16 -40 100 -154 155 -209 33 -32 84 -74 115 -92 61 -37 224
-102 257 -102 11 0 28 -4 37 -9 15 -8 40 -12 152 -27 160 -21 464 -21 596 0
30 4 111 16 154 21 14 2 58 11 99 20 40 10 78 18 85 19 6 1 17 5 24 9 6 5 12
6 12 2 0 -3 8 -1 19 4 10 6 32 13 49 16 34 6 207 66 257 90 32 14 86 37 95 40
66 16 586 323 648 382 7 7 17 13 21 13 4 0 16 8 27 18 10 9 48 38 84 64 36 26
72 53 80 61 8 7 35 29 60 48 24 19 56 44 70 56 14 12 36 31 50 43 138 116 407
385 572 571 13 14 51 56 85 95 75 83 94 106 141 163 21 24 42 49 48 55 35 36
395 480 474 585 22 29 70 90 104 131 6 9 32 42 56 75 25 33 47 62 50 65 11 10
389 522 405 548 6 9 15 21 20 28 6 6 37 51 70 99 33 48 70 100 83 115 12 15
22 33 22 39 0 6 3 11 8 11 4 0 16 16 26 35 11 19 23 35 28 35 4 0 8 4 8 10 0
5 15 31 34 57 18 27 43 66 55 88 l21 40 1 -35 c1 -19 2 -82 4 -140 2 -58 5
-149 6 -202 2 -54 6 -98 9 -98 3 0 20 46 39 103 18 56 39 116 46 132 7 17 19
50 28 75 37 108 139 397 147 415 5 11 14 38 21 60 6 22 15 45 19 50 5 6 8 12
7 15 -1 4 32 101 53 155 4 11 8 23 9 27 1 4 15 45 32 90 17 46 32 88 33 93 2
6 6 17 9 25 34 90 64 180 58 180 -3 -1 -17 -9 -31 -20z m-2998 -703 c94 -43
146 -100 188 -208 27 -67 33 -106 33 -214 0 -102 -9 -195 -22 -243 -5 -17 -8
-32 -6 -32 2 0 -7 -27 -20 -59 -13 -33 -20 -62 -17 -65 3 -3 0 -6 -6 -6 -7 0
-12 -9 -12 -20 0 -11 -4 -20 -10 -20 -5 0 -10 -9 -10 -20 0 -11 -4 -20 -8 -20
-4 0 -16 -15 -27 -32 -10 -18 -24 -37 -32 -41 -7 -4 -13 -14 -13 -22 0 -7 -3
-15 -7 -17 -5 -1 -42 -46 -84 -98 -177 -221 -431 -483 -615 -636 -26 -22 -52
-44 -58 -49 -6 -6 -33 -28 -61 -50 -27 -22 -55 -44 -61 -50 -21 -19 -370 -256
-426 -290 -9 -5 -106 -68 -215 -139 -109 -71 -229 -150 -268 -174 -38 -25 -81
-52 -95 -62 -46 -31 -380 -240 -384 -240 -5 0 -1 25 14 105 17 84 65 277 77
305 3 8 7 23 9 32 2 9 24 72 49 140 25 68 47 128 49 133 1 6 10 27 19 49 9 21
17 40 17 42 0 19 139 332 201 451 89 172 317 566 330 571 5 2 9 8 9 13 0 11
121 183 132 187 4 2 8 10 8 18 0 8 4 14 8 14 5 0 20 15 33 34 92 128 357 407
469 493 252 195 639 300 812 220z m-3575 -540 c27 -7 93 -38 111 -52 62 -50
121 -147 141 -235 11 -47 8 -320 -4 -380 -27 -136 -96 -269 -219 -420 -20 -25
-45 -56 -56 -70 -93 -116 -172 -203 -320 -350 -80 -80 -165 -163 -190 -185
-72 -65 -125 -109 -151 -128 -13 -9 -82 -60 -154 -113 -71 -52 -141 -103 -155
-112 -14 -9 -57 -40 -97 -69 -40 -29 -76 -53 -82 -53 -5 0 -11 -4 -13 -8 -1
-5 -100 -77 -218 -160 -118 -84 -224 -159 -235 -167 -28 -22 -47 -36 -160
-114 -55 -39 -108 -76 -117 -83 -9 -7 -42 -31 -73 -53 -31 -22 -92 -66 -137
-98 l-80 -59 7 49 c8 55 10 67 24 146 6 33 13 67 16 77 5 17 10 36 20 86 11
52 107 351 125 389 6 11 21 51 36 90 14 38 28 74 32 80 4 5 7 15 8 20 2 11 56
141 78 190 91 196 190 380 360 670 22 39 44 72 48 73 5 2 8 8 8 13 0 15 173
261 215 305 5 6 19 23 30 38 11 15 31 40 45 55 14 15 59 65 101 112 134 147
215 225 294 284 22 16 42 32 45 35 8 10 99 61 102 58 2 -2 17 6 33 18 25 17
147 71 180 79 6 1 17 5 25 8 76 32 304 52 377 34z"/>
</g>
</svg>
