<svg width="25" height="18" viewBox="0 0 25 18" fill="none" xmlns="http://www.w3.org/2000/svg">
<g clip-path="url(#clip0_526_11607)">
<mask id="mask0_526_11607" style="mask-type:luminance" maskUnits="userSpaceOnUse" x="0" y="0" width="25" height="18">
<path d="M0 0H25V18H0V0Z" fill="white"/>
</mask>
<g mask="url(#mask0_526_11607)">
<path d="M0 0H25V18H0V0Z" fill="white"/>
<path fill-rule="evenodd" clip-rule="evenodd" d="M0 0V18H25V0H0Z" fill="#2E42A5"/>
<mask id="mask1_526_11607" style="mask-type:luminance" maskUnits="userSpaceOnUse" x="0" y="0" width="25" height="18">
<path fill-rule="evenodd" clip-rule="evenodd" d="M0 0V18H25V0H0Z" fill="white"/>
</mask>
<g mask="url(#mask1_526_11607)">
<path d="M-2.78345 16.7133L2.71811 18.9476L25.1244 2.42805L28.0267 -0.891445L22.1439 -1.6377L13.0048 5.48055L5.64858 10.2776L-2.78345 16.7133Z" fill="white"/>
<path d="M-2.03125 18.279L0.772656 19.575L26.9844 -1.19922H23.0492L-2.03047 18.2783L-2.03125 18.279Z" fill="#F50100"/>
<path d="M27.7838 16.7133L22.2822 18.9476L-0.124023 2.42805L-3.02637 -0.891445L2.85645 -1.6377L11.9955 5.48055L19.3518 10.2776L27.7838 16.7133Z" fill="white"/>
<path d="M27.5962 17.8371L24.7931 19.1331L13.6321 10.2381L10.3228 9.24512L-3.30615 -0.879883H0.629785L14.2501 9.00512L17.8681 10.1961L27.5962 17.8371Z" fill="#F50100"/>
<path fill-rule="evenodd" clip-rule="evenodd" d="M15.4517 -1.5H9.54854V6H-1.54053V12H9.54854V19.5H15.4517V12H26.5845V6H15.4517V-1.5Z" fill="#F50100"/>
<mask id="mask2_526_11607" style="mask-type:luminance" maskUnits="userSpaceOnUse" x="-2" y="-2" width="29" height="22">
<path fill-rule="evenodd" clip-rule="evenodd" d="M15.4517 -1.5H9.54854V6H-1.54053V12H9.54854V19.5H15.4517V12H26.5845V6H15.4517V-1.5Z" fill="white"/>
</mask>
<g mask="url(#mask2_526_11607)">
<path d="M9.54854 -1.5V-3H7.98604V-1.5H9.54854ZM15.4517 -1.5H17.0142V-3H15.4517V-1.5ZM9.54854 6V7.5H11.111V6H9.54854ZM-1.54053 6V4.5H-3.10303V6H-1.54053ZM-1.54053 12H-3.10303V13.5H-1.54053V12ZM9.54854 12H11.111V10.5H9.54854V12ZM9.54854 19.5H7.98604V21H9.54854V19.5ZM15.4517 19.5V21H17.0142V19.5H15.4517ZM15.4517 12V10.5H13.8892V12H15.4517ZM26.5845 12V13.5H28.147V12H26.5845ZM26.5845 6H28.147V4.5H26.5845V6ZM15.4517 6H13.8892V7.5H15.4517V6ZM9.54854 0H15.4517V-3H9.54854V0ZM11.111 6V-1.5H7.98604V6H11.111ZM-1.54053 7.5H9.54854V4.5H-1.54053V7.5ZM0.0219727 12V6H-3.10303V12H0.0219727ZM9.54854 10.5H-1.54053V13.5H9.54854V10.5ZM11.111 19.5V12H7.98604V19.5H11.111ZM15.4517 18H9.54854V21H15.4517V18ZM13.8892 12V19.5H17.0142V12H13.8892ZM26.5845 10.5H15.4517V13.5H26.5845V10.5ZM25.022 6V12H28.147V6H25.022ZM15.4517 7.5H26.5845V4.5H15.4517V7.5ZM13.8892 -1.5V6H17.0142V-1.5H13.8892Z" fill="white"/>
</g>
</g>
</g>
</g>
<defs>
<clipPath id="clip0_526_11607">
<rect width="25" height="18" fill="white"/>
</clipPath>
</defs>
</svg>
