<svg width="120" height="120" viewBox="0 0 120 120" fill="none" xmlns="http://www.w3.org/2000/svg">
<circle cx="60" cy="60" r="60" fill="#FFEBEB" fill-opacity="0.3"/>
<circle cx="60" cy="60" r="48" fill="#FFEBEB"/>
<path d="M38 60.2222C38 47.9778 47.9778 38 60.2222 38C72.4667 38 82.4444 47.9778 82.4444 60.2222C82.4444 72.4667 72.4667 82.4444 60.2222 82.4444C47.9778 82.4444 38 72.4667 38 60.2222Z" fill="#FF5050"/>
<path fill-rule="evenodd" clip-rule="evenodd" d="M51.3994 53.3279C50.8669 52.7953 50.8669 51.9319 51.3994 51.3994C51.9319 50.8669 52.7953 50.8669 53.3279 51.3994L61.0007 59.0722L68.6735 51.3994C69.206 50.8669 70.0694 50.8669 70.6019 51.3994C71.1345 51.9319 71.1345 52.7953 70.6019 53.3279L62.9291 61.0007L70.6006 68.6721C71.1331 69.2047 71.1331 70.0681 70.6006 70.6006C70.0681 71.1331 69.2047 71.1331 68.6721 70.6006L61.0007 62.9291L53.3292 70.6006C52.7967 71.1331 51.9333 71.1331 51.4007 70.6006C50.8682 70.0681 50.8682 69.2047 51.4007 68.6721L59.0722 61.0007L51.3994 53.3279Z" fill="white"/>
</svg>
