<svg width="259" height="79" viewBox="0 0 259 79" fill="none" xmlns="http://www.w3.org/2000/svg">
<g clip-path="url(#clip0_273_13522)">
<path d="M203.052 49.5077C203.052 57.3333 194.961 64.8298 180.556 70.3612C166.149 75.8908 146.609 79 126.238 79C105.867 79 86.3269 75.8908 71.9197 70.3612C57.5145 64.8298 49.4238 57.3333 49.4238 49.5077C49.4238 33.2233 83.8114 20.0155 126.238 20.0155C168.664 20.0155 203.052 33.2233 203.052 49.5077Z" fill="#DDE4E2"/>
<path d="M129.68 27.0642C89.4467 26.6165 57.8122 38.2534 57.2145 53.7228C57.0497 58.2747 59.6303 62.8648 64.7495 67.1392C79.2314 74.5916 102.019 78.9923 126.237 79C168.656 79 203.051 65.8018 203.051 49.5077C203.02 48.155 202.752 46.8023 202.235 45.4572C189.303 35.3222 163.483 28.3041 135.105 27.2058C133.295 27.1312 131.482 27.0872 129.68 27.0642Z" fill="#090909"/>
<path d="M129.68 27.0642C89.4467 26.6165 57.8122 38.2534 57.2145 53.7228C57.0497 58.2747 59.6303 62.8648 64.7495 67.1392C79.2314 74.5916 96.5 81.5 126.237 79C154 84.5 203.051 65.8018 203.051 49.5077C203.02 48.155 202.752 46.8023 202.235 45.4572C189.303 35.3222 163.483 28.3041 135.105 27.2058C133.295 27.1312 131.482 27.0872 129.68 27.0642Z" fill="#090909"/>
<path d="M146.13 20.5608V25.105C146.13 25.8378 145.538 26.4213 144.812 26.4213H107.656C106.922 26.4213 106.338 25.8378 106.338 25.105V20.5608C106.338 19.8299 106.922 19.2463 107.656 19.2463H144.812C145.538 19.2463 146.13 19.8299 146.13 20.5608Z" fill="#99C2FF"/>
<path d="M146.13 52.7528V57.3046C146.13 58.0279 145.538 58.6191 144.812 58.6191H107.656C106.922 58.6191 106.338 58.0279 106.338 57.3046V52.7528C106.338 52.0276 106.922 51.4364 107.656 51.4364H144.812C145.538 51.4364 146.13 52.0276 146.13 52.7528Z" fill="#99C2FF"/>
<path d="M107.161 0C105.68 0 104.488 1.18819 104.488 2.66911V77.7601C106.839 78.0299 109.219 78.2538 111.621 78.4394C111.652 78.2825 111.673 78.1333 111.673 77.9687V2.66911C111.673 1.18819 110.475 0 109.002 0H107.161Z" fill="#99C2FF"/>
<path d="M141.616 0C140.135 0 138.945 1.18819 138.945 2.66911V77.9687C138.945 78.1715 138.968 78.3571 139.005 78.5446C141.407 78.3877 143.779 78.1868 146.13 77.94V2.66911C146.13 1.18819 144.94 0 143.457 0H141.616Z" fill="#99C2FF"/>
<path d="M258.999 65.3904C258.94 67.872 249.368 69.4868 237.626 68.9932C225.876 68.5072 216.408 66.0926 216.477 63.611C216.536 61.1236 226.108 59.5088 237.85 60.0024C249.6 60.496 259.066 62.9011 258.999 65.3904Z" fill="#DDE4E2"/>
<path d="M230.449 4.88858C226.301 12.1899 217.605 42.0859 213.588 61.16H250.303C246.284 42.0859 237.588 12.1899 233.442 4.88858H230.449Z" fill="#FF5050"/>
<path d="M209.584 59.3959C209.584 59.1357 209.689 58.8889 209.868 58.7014C210.055 58.5215 210.302 58.4182 210.565 58.4182H253.327C253.589 58.4182 253.836 58.5215 254.022 58.7014C254.21 58.8889 254.308 59.1357 254.308 59.3959V63.523C254.308 63.7755 254.21 64.03 254.022 64.2099C253.836 64.3974 253.589 64.5007 253.327 64.5007H210.565C210.302 64.5007 210.055 64.3974 209.868 64.2099C209.689 64.03 209.584 63.7755 209.584 63.523V59.3959Z" fill="#BC211F"/>
<path d="M222.787 25.9277C222.218 27.8047 221.649 29.718 221.08 31.683H242.814C242.245 29.718 241.683 27.8047 241.107 25.9277H222.787ZM217.854 43.3716C217.346 45.3156 216.86 47.2289 216.381 49.127H247.513C247.042 47.2289 246.555 45.3156 246.038 43.3716H217.854Z" fill="white"/>
<path d="M49.4229 65.3904C49.3558 67.872 39.7843 69.4868 28.042 68.9932C16.2998 68.5072 6.82588 66.0926 6.89293 63.611C6.95232 61.1236 16.5239 59.5088 28.2738 60.0024C40.0161 60.496 49.4842 62.9011 49.4229 65.3904Z" fill="#DDE4E2"/>
<path d="M20.873 4.88858C16.7271 12.1899 8.03102 42.0859 4.00391 61.16H40.7269C36.7017 42.0859 28.0057 12.1899 23.8579 4.88858H20.873Z" fill="#FF5050"/>
<path d="M0 59.3959C0 59.1357 0.105372 58.8889 0.293125 58.7014C0.471299 58.5215 0.718444 58.4182 0.980915 58.4182H43.7504C44.0052 58.4182 44.26 58.5215 44.4401 58.7014C44.6259 58.8889 44.7313 59.1357 44.7313 59.3959V63.523C44.7313 63.7755 44.6259 64.03 44.4401 64.2099C44.26 64.3974 44.0052 64.5007 43.7504 64.5007H0.980915C0.718444 64.5007 0.471299 64.3974 0.293125 64.2099C0.105372 64.03 0 63.7755 0 63.523L0 59.3959Z" fill="#BC211F"/>
<path d="M13.2017 25.9277C12.6327 27.8047 12.0637 29.718 11.4947 31.683H33.2357C32.6667 29.718 32.0977 27.8047 31.5287 25.9277H13.2017ZM8.27028 43.3716C7.76066 45.3156 7.27403 47.2289 6.80273 49.127H37.9276C37.4563 47.2289 36.9697 45.3156 36.462 43.3716H8.27028Z" fill="white"/>
<g clip-path="url(#clip1_273_13522)">
<path d="M158.374 56.2383C156.438 48.1538 151.94 41.4837 144.063 38.346C132.87 33.887 118.15 33.8822 106.937 38.346C106.828 38.3903 106.719 38.4342 106.612 38.4785C98.9348 41.6694 94.5339 48.2654 92.6241 56.2383C90.5493 64.9104 89.8126 76.4646 94.4178 84.4817C97.5126 89.8722 102.513 93.1933 108.182 95.1443C110.169 95.8271 111.726 97.397 112.344 99.4012C112.346 99.4079 112.348 99.4146 112.35 99.4213C111.504 99.2111 110.502 98.983 109.927 99.712C109.42 100.356 109.493 101.683 109.482 102.464C109.469 103.436 109.559 104.472 110.023 105.346C110.43 106.112 111.151 106.676 111.939 107.04C112.57 107.331 113.247 107.504 113.93 107.64C113.952 107.789 113.98 107.938 114.014 108.085C114.119 108.538 114.282 108.968 114.49 109.372C115.497 111.32 117.59 112.679 119.739 113.331C121.628 113.905 123.617 114.026 125.581 113.996C127.498 113.965 129.413 113.891 131.26 113.331C133.167 112.753 135.031 111.617 136.125 110.008C136.523 109.427 136.82 108.786 136.983 108.085C137.017 107.938 137.045 107.789 137.067 107.641C137.751 107.505 138.428 107.331 139.059 107.04C139.847 106.676 140.568 106.112 140.975 105.346C141.439 104.472 141.529 103.436 141.516 102.464C141.505 101.684 141.579 100.357 141.071 99.712C140.497 98.9826 139.495 99.2111 138.649 99.4213C138.704 99.2401 138.763 99.06 138.825 98.881C139.48 96.9974 140.979 95.532 142.861 94.8771C146.546 93.5903 149.985 91.7651 152.755 89.2243C154.246 87.8587 155.543 86.2865 156.579 84.4817C161.184 76.4646 160.452 64.9104 158.373 56.2383H158.374Z" fill="#C1DCFF"/>
<path d="M133.537 43.7514C128.13 43.6159 124.703 47.7486 126.369 56.145C127.984 64.2816 134.795 66.3144 139.792 65.0054C145.048 63.6285 145.315 55.8484 144.658 53.5885C144.001 51.3287 142.166 43.9676 133.538 43.7517L133.537 43.7514Z" fill="white"/>
<path d="M114.037 43.9207C118.501 43.9936 123.134 48.3325 122.228 56.225C121.35 63.8738 115.721 67.356 109.365 65.4832C104.237 63.9728 103.227 56.9342 103.567 54.2647C103.844 52.0897 105.124 43.7748 114.037 43.9207Z" fill="white"/>
<path d="M106.761 57.0399C107.667 61.624 111.821 64.5432 116.012 63.5258C120.183 62.5133 122.757 57.9951 121.788 53.4687C120.828 48.9848 116.74 46.1519 112.632 47.1075C108.504 48.0679 105.864 52.4994 106.761 57.0399Z" fill="#262727"/>
<path d="M113.453 49.7215C112.349 47.0818 108.285 52.3926 109.824 53.1037C111.364 53.8152 115.107 53.6767 113.453 49.7215Z" fill="white"/>
<path d="M126.601 56.3913C127.507 60.9754 131.66 63.8946 135.852 62.8772C140.023 61.8647 142.596 57.3465 141.627 52.8201C140.668 48.3362 136.58 45.5033 132.472 46.4589C128.343 47.4193 125.703 51.8508 126.601 56.3913Z" fill="#262727"/>
<path d="M132.032 49.1466C130.498 46.7309 127.389 52.6508 129.026 53.0922C130.664 53.5335 134.33 52.7662 132.032 49.1466Z" fill="white"/>
</g>
</g>
<defs>
<clipPath id="clip0_273_13522">
<rect width="259" height="79" fill="white"/>
</clipPath>
<clipPath id="clip1_273_13522">
<path d="M91 35H160V72C160 75.866 156.866 79 153 79H98C94.134 79 91 75.866 91 72V35Z" fill="white"/>
</clipPath>
</defs>
</svg>
