<svg width="213" height="77" viewBox="0 0 213 77" fill="none" xmlns="http://www.w3.org/2000/svg">
<g clip-path="url(#clip0_191_6976)">
<path d="M14.7341 20.7793C13.9901 20.3674 13.3125 19.844 12.7244 19.227C12.1426 18.6196 11.6707 17.9142 11.3301 17.1427C10.6589 15.5825 10.3681 13.6206 10.6848 11.3636C10.7545 10.8315 10.8402 10.2993 10.9557 9.79331C11.0712 9.28728 11.2226 8.80335 11.37 8.33949C11.5174 7.87564 11.6727 7.42985 11.8281 7.02825C11.9058 6.82744 11.9795 6.62664 12.0591 6.44391L12.2981 5.92383C12.7257 6.39634 13.1184 6.89968 13.4733 7.42985C13.9353 8.1067 14.3353 8.82452 14.6683 9.57443C15.0418 10.4143 15.3197 11.294 15.4969 12.1969C15.6863 13.094 15.7811 14.0087 15.7798 14.9258C15.7798 15.3877 15.7459 15.8515 15.6981 16.3315C15.6612 16.817 15.5994 17.3002 15.5129 17.7793C15.4252 18.2652 15.3117 18.7572 15.1723 19.2552C15.0408 19.7431 14.9074 20.2612 14.7341 20.7793Z" fill="#5483FC"/>
<path d="M12.2507 4.85913C12.7646 5.3707 13.235 5.92485 13.6569 6.51576C14.2514 7.34747 14.7587 8.23913 15.1707 9.1764C15.5818 10.1104 15.8833 11.0896 16.069 12.0941C16.1128 12.339 16.1506 12.584 16.1805 12.831C16.2104 13.078 16.2462 13.333 16.2681 13.586C16.314 14.0927 16.3299 14.6016 16.3159 15.1101C16.304 15.6242 16.2522 16.1342 16.1905 16.6603C16.1352 17.1999 16.0515 17.7362 15.9395 18.2668C15.8319 18.8069 15.6706 19.3451 15.5192 19.9073C15.3679 20.4696 15.1906 21.0399 14.9795 21.6182C13.1869 20.7567 11.8285 19.5138 10.9641 17.8029C10.5293 16.9013 10.244 15.934 10.1195 14.9395C10.0412 14.3806 10.0006 13.8171 9.99805 13.2527C10.0125 12.6483 10.0584 12.0451 10.1355 11.4455C10.2202 10.7695 10.3439 10.099 10.5059 9.43744C10.6772 8.79889 10.8684 8.18845 11.0676 7.61817C11.2668 7.04789 11.466 6.51977 11.6652 6.05793C11.8643 5.59608 12.0854 5.19046 12.2507 4.85913Z" fill="#5483FC"/>
<path d="M17.0859 21.7665C17.3118 21.3103 17.5639 20.8678 17.8408 20.4412C18.1256 20.0395 18.4204 19.654 18.7252 19.2986C19.0231 18.9546 19.3403 18.6281 19.6752 18.3207C20.0101 18.0353 20.3641 17.7736 20.7349 17.5375C21.443 17.0756 22.2167 16.7249 23.0294 16.4974C23.8612 16.2782 24.7193 16.1768 25.5788 16.1962C26.3481 16.2126 27.1133 16.3122 27.8614 16.4934C28.4676 16.6424 29.0626 16.8343 29.642 17.0677L29.3473 17.3689L29.0326 17.7022C28.8115 17.9311 28.5665 18.1721 28.2976 18.4171C28.0287 18.662 27.7359 18.913 27.4192 19.16C27.1025 19.407 26.7998 19.6681 26.4552 19.911C24.9713 20.9371 23.5213 21.656 21.9439 21.9793C21.1616 22.1394 20.3635 22.2068 19.5657 22.1801C18.7253 22.1466 17.8923 22.0077 17.0859 21.7665Z" fill="#5483FC"/>
<path d="M30.4994 16.8666C30.3222 17.0674 30.1011 17.3064 29.8481 17.5674C29.5952 17.8285 29.3263 18.1297 29.0076 18.4349C28.6889 18.7401 28.3404 19.0554 27.95 19.3706C27.5596 19.6859 27.1772 20.0192 26.735 20.3285C26.3395 20.6101 25.9292 20.8702 25.5061 21.1076C25.1118 21.3436 24.7056 21.5588 24.2891 21.7522C23.4758 22.1205 22.622 22.3901 21.7456 22.5554C19.9381 22.9038 18.0714 22.7653 16.334 22.1538C16.5849 21.6076 16.8518 21.0895 17.1307 20.6036C17.4152 20.1396 17.7314 19.6961 18.0768 19.2763C18.3988 18.874 18.7446 18.4918 19.1125 18.1317C19.4741 17.7955 19.861 17.488 20.2697 17.212C20.6616 16.9434 21.0724 16.7039 21.4986 16.4951C21.6978 16.3947 21.9169 16.2943 22.136 16.216C22.3551 16.1377 22.5822 16.0634 22.8092 16.0012C23.7265 15.7455 24.6763 15.6284 25.6276 15.6538C26.6031 15.6821 27.5707 15.8394 28.5057 16.1216C29.1877 16.3197 29.8541 16.5688 30.4994 16.8666Z" fill="#5483FC"/>
<path d="M20.0007 13.0878C19.7558 9.09582 21.5424 5.393 25.012 2.90706C25.7702 2.37493 26.5695 1.90489 27.4022 1.50144C28.0686 1.211 28.7517 0.96089 29.4477 0.752441C29.2943 1.33276 29.0812 2.03959 28.7964 2.80465C28.5178 3.65933 28.1804 4.49335 27.7866 5.30063C26.0378 8.95927 23.6039 11.403 20.0007 13.0878Z" fill="#5483FC"/>
<path d="M30.1875 -0.000488281C29.7471 1.89213 29.1039 3.7309 28.2694 5.48345C26.3374 9.49951 23.6326 12.11 19.5256 13.8991C19.4651 13.3471 19.4372 12.7919 19.4419 12.2365C19.4401 11.6922 19.4841 11.1487 19.5734 10.612C19.6613 10.0832 19.7803 9.56019 19.9299 9.0457C20.073 8.52704 20.2603 8.02182 20.4896 7.53566C20.7219 7.04706 20.9819 6.57238 21.2684 6.11397C21.5541 5.64166 21.8786 5.19431 22.2384 4.77662C22.6064 4.34911 22.996 3.94094 23.4055 3.55373C23.6167 3.35962 23.8324 3.16752 24.0529 2.97742C24.2779 2.79068 24.5209 2.61999 24.7639 2.4473C26.4032 1.2951 28.2432 0.464683 30.1875 -0.000488281V-0.000488281Z" fill="#5483FC"/>
<path d="M11.3645 31.5759C9.74586 31.067 8.34324 30.0255 7.38098 28.6181C7.1312 28.2511 6.91011 27.865 6.71971 27.4634C6.5127 27.0396 6.3434 26.5981 6.2138 26.1442C5.92933 25.1222 5.75832 24.0716 5.70391 23.0116C5.6815 21.9699 5.73943 20.9279 5.87719 19.8952C5.90906 19.6522 5.93894 19.4112 5.97678 19.1803C6.01462 18.9494 6.06641 18.7325 6.11222 18.5197C6.20583 18.092 6.3114 17.6984 6.39505 17.345C7.5256 18.2252 8.50702 19.2844 9.30104 20.4815C9.82415 21.2514 10.2629 22.0761 10.6096 22.9414C10.9385 23.7986 11.1885 24.6846 11.3565 25.5879C11.4432 26.0527 11.5043 26.522 11.5398 26.9936C11.5577 27.2325 11.5697 27.4715 11.5756 27.7145C11.5756 27.8349 11.5756 27.9554 11.5756 28.0799C11.5756 28.2044 11.5756 28.3269 11.5756 28.4514C11.5849 28.9521 11.5697 29.4621 11.5298 29.9815C11.5099 30.2406 11.484 30.5036 11.4502 30.7687C11.4163 31.0337 11.3904 31.3008 11.3645 31.5759Z" fill="#5483FC"/>
<path d="M6.16379 16.2944C7.58117 17.2937 8.79772 18.555 9.74897 20.0113C10.3096 20.8697 10.7808 21.7842 11.1552 22.7402C11.3355 23.211 11.4872 23.6925 11.6093 24.182C11.671 24.425 11.7228 24.6699 11.7726 24.9189C11.8224 25.1679 11.8782 25.425 11.922 25.68C12.0065 26.1958 12.0617 26.716 12.0873 27.2382C12.1152 27.7683 12.1052 28.3045 12.1092 28.8627C12.1132 29.4209 12.0674 29.9872 12.0036 30.5655C11.9738 30.8547 11.928 31.1479 11.8881 31.445C11.8483 31.7422 11.8184 32.0474 11.7726 32.3527C10.8484 32.1145 9.9663 31.7339 9.15741 31.2242C8.37752 30.7273 7.69604 30.0886 7.14772 29.3406C6.55694 28.5229 6.09659 27.617 5.78336 26.6559C5.44466 25.5295 5.24399 24.3656 5.18583 23.19C5.18583 23.0153 5.16591 22.8386 5.16193 22.6639C5.15794 22.4892 5.16193 22.3205 5.16193 22.1499C5.17189 21.8085 5.1918 21.4691 5.2157 21.1458C5.26749 20.4792 5.34318 19.8366 5.4348 19.2342C5.62058 18.2407 5.864 17.2591 6.16379 16.2944Z" fill="#5483FC"/>
<path d="M13.8574 32.1137C13.9225 31.8637 14.0037 31.6182 14.1004 31.3788C14.19 31.1398 14.2857 30.9069 14.3852 30.68C14.5759 30.24 14.7893 29.8103 15.0246 29.3929L15.1999 29.0937L15.3991 28.8105C15.5325 28.6238 15.6679 28.4431 15.8094 28.2704C16.0842 27.9298 16.381 27.6079 16.6977 27.3065C17.3117 26.7204 18.0177 26.2407 18.787 25.8868C19.5576 25.5221 20.3758 25.2699 21.217 25.1378C22.6094 24.9474 24.024 25.0024 25.3977 25.3005C25.2583 25.5194 25.095 25.7583 24.9097 26.0133C24.8161 26.1419 24.7106 26.2724 24.615 26.4149L24.3102 26.8346C23.844 27.4612 23.3299 28.05 22.7726 28.5957C22.1816 29.2196 21.5259 29.7776 20.8167 30.2603C20.4661 30.4933 20.1315 30.7121 19.7849 30.9089C19.4376 31.1055 19.0784 31.2798 18.7094 31.431C17.1723 32.0572 15.5058 32.2917 13.8574 32.1137Z" fill="#5483FC"/>
<path d="M26.1934 24.9633C25.8318 25.576 25.4326 26.1655 24.9984 26.7283C24.7534 27.0797 24.4725 27.4492 24.1578 27.8247C24.0005 28.0115 23.8332 28.2002 23.6559 28.389C23.4787 28.5777 23.2954 28.7645 23.1181 28.9572C22.4659 29.6442 21.742 30.2582 20.9591 30.7886C20.2368 31.307 19.4525 31.7314 18.6247 32.0516C17.7907 32.3707 16.9212 32.5859 16.0354 32.6922C15.0932 32.7986 14.1414 32.7831 13.2031 32.646C13.2708 32.3528 13.3445 32.0657 13.4222 31.7866C13.4999 31.5074 13.6214 31.2404 13.713 30.9833C13.9124 30.4736 14.1384 29.9749 14.3902 29.4894C14.6256 29.0282 14.9037 28.5905 15.2208 28.1821C15.5173 27.7901 15.8386 27.4178 16.1828 27.0677C16.3521 26.897 16.5254 26.7343 16.7007 26.5797C16.8759 26.4251 17.0771 26.2865 17.2703 26.15C17.655 25.8816 18.0592 25.6426 18.4793 25.4351C19.3313 25.0129 20.2454 24.7322 21.1861 24.6038C22.8623 24.385 24.5649 24.5072 26.1934 24.9633Z" fill="#5483FC"/>
<path d="M10.0958 42.8388C8.40764 42.6497 6.82975 41.9002 5.61031 40.7082C4.96323 40.0645 4.42498 39.3184 4.0169 38.4994C3.52145 37.5531 3.15625 36.5431 2.93139 35.4974C2.81387 34.9673 2.72026 34.4331 2.64656 33.909C2.56942 33.4003 2.5222 32.8873 2.50515 32.3729C2.47328 31.389 2.50515 30.4813 2.54698 29.7444C3.83729 30.4123 5.0128 31.2849 6.02859 32.3287C7.30751 33.6537 8.29857 35.2327 8.93856 36.9653C9.28556 37.8589 9.54636 38.7842 9.71734 39.7283C9.76315 39.9713 9.79701 40.2183 9.83485 40.4693C9.8727 40.7203 9.9205 40.9753 9.95436 41.2343C10.0241 41.7665 10.0699 42.2906 10.0958 42.8388Z" fill="#5483FC"/>
<path d="M2.13488 28.7368C2.79213 29.0404 3.42364 29.3977 4.02307 29.8051C4.87546 30.3779 5.66352 31.0424 6.37336 31.787C6.72697 32.1587 7.05946 32.5502 7.36924 32.9597C7.67797 33.3613 7.94287 33.777 8.21774 34.2107C8.75373 35.0684 9.18698 35.9871 9.5084 36.9477L9.75339 37.6846C9.83306 37.9356 9.90476 38.1886 9.97248 38.4457C10.1073 38.969 10.2143 39.4992 10.2932 40.034C10.3111 40.1685 10.329 40.3051 10.3489 40.4356C10.3688 40.5661 10.3927 40.7147 10.4166 40.8553C10.4585 41.1364 10.4943 41.4216 10.5222 41.7127C10.58 42.291 10.6138 42.8894 10.6198 43.5059C8.62804 43.3834 6.93305 42.7348 5.52287 41.4557C5.16215 41.1251 4.82906 40.7651 4.52699 40.3794C4.20916 39.9744 3.92787 39.5417 3.68647 39.0862C3.4182 38.5898 3.18137 38.0767 2.9774 37.5501C2.75105 36.9732 2.57121 36.3789 2.43962 35.773C1.7903 33.0179 1.95164 30.2448 2.13488 28.7368Z" fill="#5483FC"/>
<path d="M12.6504 42.8726C12.7062 42.3505 12.7832 41.8479 12.8814 41.3646C12.9312 41.1236 12.985 40.8867 13.0428 40.6558C13.1005 40.4248 13.1922 40.2019 13.2718 39.9811C13.5754 39.1413 13.9894 38.3464 14.5027 37.6176C15.5261 36.2382 16.9431 35.2069 18.5639 34.6618C19.8849 34.2211 21.2722 34.0172 22.663 34.0594C22.4348 34.641 22.1721 35.2083 21.8763 35.7582C21.695 36.0734 21.5337 36.4048 21.3405 36.7421C21.1473 37.0795 20.9421 37.4228 20.6951 37.7642C20.2155 38.4628 19.6828 39.1227 19.1017 39.7381C18.5302 40.31 17.9037 40.8233 17.2315 41.2702C15.8576 42.1745 14.2845 42.7247 12.6504 42.8726Z" fill="#5483FC"/>
<path d="M23.3833 33.5938C22.8009 35.1695 22.0339 36.6694 21.0987 38.0617C20.8059 38.4633 20.541 38.8448 20.2542 39.2063C19.9689 39.5635 19.6637 39.9041 19.34 40.2263C19.0233 40.5456 18.6668 40.8448 18.3441 41.1219C18.0083 41.3993 17.6557 41.6555 17.2885 41.889C15.719 42.8695 13.9281 43.4319 12.084 43.5235C12.1258 42.9211 12.1915 42.3428 12.2832 41.7866C12.329 41.5095 12.3808 41.2364 12.4385 40.9713L12.5281 40.5697C12.568 40.4412 12.6078 40.3127 12.6496 40.1862C12.8125 39.6982 13.0034 39.2201 13.2213 38.7544C13.3288 38.5275 13.4424 38.3087 13.5599 38.0958C13.675 37.8813 13.8041 37.6746 13.9463 37.4773C14.4911 36.7067 15.1477 36.023 15.8942 35.4492C16.2694 35.165 16.6694 34.9157 17.0893 34.7042C17.5209 34.4831 17.9675 34.2932 18.4258 34.136C19.3441 33.8264 20.2979 33.6367 21.264 33.5717C21.97 33.5241 22.6785 33.5315 23.3833 33.5938Z" fill="#5483FC"/>
<path d="M11.1262 54.138C10.2789 54.2139 9.42501 54.1577 8.59467 53.9713C8.18658 53.8775 7.78687 53.7499 7.39961 53.5898C7.01221 53.4238 6.64083 53.2222 6.29019 52.9874C5.52763 52.475 4.84437 51.8518 4.26258 51.138C4.10523 50.9472 3.94788 50.7464 3.79451 50.5356C3.64114 50.3247 3.51367 50.1058 3.37624 49.8769C3.09348 49.396 2.83554 48.9007 2.60343 48.393C2.37159 47.9 2.1668 47.3946 1.98997 46.8789C1.82864 46.3749 1.68921 45.8749 1.56971 45.387C1.34619 44.5283 1.18838 43.6536 1.09766 42.7705C1.69912 42.9463 2.28695 43.1664 2.85639 43.4291C3.59703 43.7633 4.30745 44.1617 4.97961 44.6199C5.74524 45.1431 6.45186 45.7491 7.0869 46.4271C7.38766 46.7605 7.70435 47.1058 7.99116 47.4693C8.27672 47.8328 8.54267 48.2115 8.78787 48.6038C9.03472 49.003 9.26011 49.4152 9.46308 49.8388C9.69413 50.2645 9.90924 50.7062 10.1044 51.1661C10.2996 51.6259 10.4749 52.1038 10.6303 52.5998C10.702 52.8508 10.7956 53.0998 10.8792 53.3548C10.9629 53.6099 11.0565 53.8709 11.1262 54.138Z" fill="#5483FC"/>
<path d="M0.5 41.8696C1.1967 42.035 1.87831 42.2594 2.53758 42.5403C2.93593 42.713 3.37412 42.9178 3.81629 43.1608C4.03738 43.2833 4.25847 43.4138 4.48752 43.5624C4.71657 43.711 4.95359 43.8556 5.18663 44.0162C6.86732 45.1918 8.28253 46.7124 9.33946 48.4781C9.60315 48.9237 9.84381 49.3828 10.0605 49.8536C10.3102 50.3379 10.5342 50.8353 10.7317 51.3435C10.9309 51.8616 11.1022 52.4018 11.2794 52.9499C11.4567 53.4981 11.638 54.0825 11.7854 54.6849C9.81948 54.9861 8.001 54.713 6.33588 53.7552C5.47977 53.2352 4.71406 52.5772 4.06925 51.8074C3.69725 51.3737 3.35709 50.9133 3.05145 50.4299C2.73346 49.8971 2.44423 49.3475 2.18504 48.7833C2.03764 48.4607 1.89822 48.1354 1.76676 47.8074C1.63929 47.4801 1.50783 47.1528 1.4182 46.8295C1.21903 46.1809 1.06168 45.5403 0.930222 44.9359C0.798765 44.3315 0.677267 43.7451 0.62349 43.2291C0.569712 42.713 0.525893 42.2532 0.5 41.8696Z" fill="#5483FC"/>
<path d="M13.624 53.6344C13.5922 53.3754 13.5663 53.1184 13.5464 52.8673C13.5226 52.6185 13.5146 52.3683 13.5225 52.1184C13.5348 51.6373 13.5734 51.1574 13.638 50.6806C13.6978 50.232 13.7843 49.7874 13.8969 49.3493C14.0276 48.9294 14.186 48.5189 14.371 48.1204C14.5486 47.7368 14.7529 47.3664 14.9824 47.0119C15.2043 46.6579 15.4605 46.327 15.7473 46.024C16.3334 45.4 17.0039 44.8626 17.739 44.4276C18.4001 44.0379 19.1014 43.7221 19.8304 43.4858C20.4244 43.2954 21.0306 43.1465 21.6449 43.04C21.5154 43.536 21.4158 44.1404 21.2186 44.8091C21.1211 45.1445 21.0075 45.4959 20.8721 45.8573C20.7366 46.2188 20.6231 46.5882 20.4737 46.9657C20.3089 47.3651 20.1241 47.7559 19.92 48.1364C19.8204 48.3252 19.7208 48.5099 19.6053 48.6906C19.4898 48.8714 19.4061 49.0441 19.2966 49.2147C18.8711 49.8981 18.3685 50.5295 17.7988 51.0963C17.5126 51.3795 17.2121 51.6476 16.8985 51.8995C16.5875 52.1512 16.2609 52.3826 15.9205 52.5922C15.1997 53.0321 14.4286 53.3821 13.624 53.6344Z" fill="#5483FC"/>
<path d="M22.2815 42.45C22.2377 42.701 22.178 43.0022 22.0963 43.3415C22.0505 43.5122 22.0186 43.6909 21.9788 43.8797C21.939 44.0684 21.8951 44.2632 21.8414 44.466C21.7378 44.8676 21.6083 45.3074 21.443 45.7612C21.3554 45.9881 21.2876 46.219 21.206 46.452C21.1243 46.6849 21.0327 46.9238 20.9331 47.1648C20.7507 47.6055 20.5445 48.0359 20.3157 48.454C20.0946 48.8556 19.8894 49.2572 19.6424 49.6347C19.1592 50.384 18.591 51.0741 17.9494 51.6909C16.6277 52.983 14.9988 53.9109 13.219 54.3857C13.1234 53.7933 13.0577 53.215 13.0198 52.6548C13.0023 52.1072 13.0223 51.559 13.0796 51.0142C13.1279 50.503 13.2077 49.9953 13.3186 49.4941C13.4444 49.0142 13.6055 48.5443 13.8006 48.0885C14.5196 46.3154 15.8362 44.9178 17.4953 43.9419C17.9343 43.683 18.3933 43.4601 18.8677 43.2753C19.2994 43.1052 19.7403 42.9597 20.1882 42.8395C20.8752 42.6563 21.575 42.5261 22.2815 42.45Z" fill="#5483FC"/>
<path d="M14.4903 64.9739C12.8808 65.5057 11.1405 65.4746 9.55074 64.8855C7.89558 64.2972 6.39777 63.0542 4.94378 61.1928C4.33293 60.3228 3.78637 59.4087 3.30854 58.4578C3.08949 58.0335 2.89594 57.5963 2.72893 57.1486C2.5676 56.7309 2.42619 56.3454 2.30469 55.9819C3.75165 56.0896 5.17167 56.4334 6.50931 57C7.36923 57.3524 8.19085 57.7931 8.96117 58.3153C9.33686 58.5717 9.69794 58.8493 10.0427 59.1466C10.216 59.2932 10.3793 59.4478 10.5486 59.6044C10.7179 59.761 10.8932 59.9197 11.0605 60.0823C11.7374 60.7552 12.3453 61.4953 12.875 62.2912C13.494 63.1335 14.0347 64.0315 14.4903 64.9739Z" fill="#5483FC"/>
<path d="M1.52539 55.2202C3.27695 55.2724 5.00294 55.658 6.61236 56.3568C7.09437 56.5576 7.53057 56.7945 7.99067 57.0395C8.43861 57.2828 8.87282 57.5509 9.29129 57.8427C9.70357 58.1316 10.0986 58.4447 10.4744 58.7805C10.6616 58.9471 10.8429 59.1198 11.0201 59.2985C11.1974 59.4772 11.3926 59.6539 11.5699 59.8407C11.9337 60.2157 12.2768 60.6105 12.5976 61.0234C12.7583 61.2323 12.9156 61.4471 13.0697 61.668C13.221 61.8909 13.3684 62.1178 13.5338 62.3427C13.8511 62.7979 14.1519 63.2784 14.436 63.7845C14.7248 64.2905 14.9698 64.8327 15.2706 65.3728C14.3789 65.726 13.4382 65.9373 12.4821 65.9993C11.5638 66.0454 10.6449 65.9208 9.77131 65.6319C8.80908 65.3092 7.90555 64.8303 7.09636 64.2142C6.17272 63.4604 5.34159 62.5982 4.6206 61.6459C4.40604 61.3664 4.20658 61.0755 4.02307 60.7744C3.83783 60.4792 3.65857 60.172 3.48927 59.8849C3.15067 59.2825 2.84593 58.6981 2.57904 58.1339C2.1755 57.1827 1.82376 56.21 1.52539 55.2202Z" fill="#5483FC"/>
<path d="M16.8321 63.9414C16.5318 63.0021 16.3257 62.0347 16.2167 61.0539C16.1651 60.1619 16.228 59.267 16.4039 58.3912C16.4451 58.1824 16.4949 57.9776 16.5533 57.7768C16.6131 57.576 16.6907 57.3752 16.7704 57.1744C16.9293 56.7846 17.1157 56.4068 17.3281 56.0439C17.7604 55.3113 18.2973 54.6469 18.9215 54.072C19.9718 53.1431 21.175 52.4064 22.4768 51.8953C22.4768 52.1483 22.4768 52.4314 22.4589 52.7386C22.441 53.0459 22.4131 53.3812 22.4051 53.7246C22.3682 54.4909 22.2669 55.2526 22.1024 56.0017C21.8319 57.6217 21.2486 59.1725 20.3855 60.5659C19.4885 61.9636 18.2694 63.1218 16.8321 63.9414Z" fill="#5483FC"/>
<path d="M22.9476 51.2039C22.9855 51.8924 22.9762 52.5828 22.9197 53.2701C22.9197 53.6858 22.8859 54.1356 22.8321 54.6115C22.8042 54.8504 22.7703 55.0934 22.7285 55.3424C22.6867 55.5914 22.6269 55.8504 22.5931 56.1015C22.444 57.0162 22.1941 57.9113 21.8482 58.7701C21.5465 59.596 21.1494 60.3832 20.665 61.1155C20.1667 61.8618 19.5787 62.543 18.9143 63.1436C18.2138 63.7793 17.4369 64.3237 16.6018 64.7641C16.3758 64.2276 16.1952 63.6727 16.0621 63.1055C15.9274 62.5761 15.8211 62.0399 15.7434 61.499C15.703 61.24 15.6823 60.9782 15.6816 60.7159C15.6816 60.4569 15.6816 60.2019 15.6816 59.9508C15.6982 59.4607 15.7481 58.9723 15.831 58.489C15.8694 58.2556 15.9199 58.0243 15.9824 57.7962C16.0501 57.5653 16.1278 57.3404 16.2115 57.1195C16.5422 56.2459 17.0058 55.4296 17.5858 54.6998C17.8887 54.3254 18.2218 53.9768 18.5817 53.6577C19.859 52.5528 21.3438 51.7183 22.9476 51.2039Z" fill="#5483FC"/>
<path d="M20.0726 74.821C19.3305 75.2409 18.5292 75.5442 17.6965 75.7206C16.8776 75.897 16.0335 75.9188 15.2067 75.7849C13.5297 75.5218 11.6992 74.7106 9.97437 73.1624C9.56009 72.803 9.16572 72.4275 8.79126 72.0459C8.41681 71.6644 8.1041 71.2427 7.79538 70.8592C7.24815 70.1573 6.73628 69.4282 6.26172 68.6745C7.6941 68.4668 9.14998 68.4878 10.5759 68.7367C11.4835 68.8948 12.3711 69.1527 13.2229 69.5058C14.0866 69.8332 14.9116 70.2561 15.6828 70.7668C16.0811 71.0198 16.4377 71.305 16.8141 71.6002C17.2054 71.8933 17.5817 72.2063 17.9414 72.5379C18.3066 72.8753 18.6618 73.2374 19.007 73.6242L19.264 73.9194C19.3536 74.0158 19.4452 74.1202 19.5349 74.2106C19.7161 74.4074 19.8954 74.6122 20.0726 74.821Z" fill="#5483FC"/>
<path d="M5.36133 68.0822C7.06785 67.7652 8.81747 67.7652 10.524 68.0822C11.528 68.2625 12.5083 68.5576 13.4459 68.9618C13.8961 69.1626 14.3741 69.3634 14.8202 69.6124C15.2701 69.8545 15.7057 70.1227 16.1248 70.4156C16.5511 70.7047 16.9435 71.034 17.3597 71.3654C17.7843 71.7026 18.1912 72.0618 18.5787 72.4417C18.9771 72.8272 19.3555 73.2449 19.7319 73.6867C20.1084 74.1284 20.5286 74.5682 20.9031 75.0541C19.23 76.1385 17.4613 76.6425 15.5552 76.4698C14.5624 76.3471 13.5955 76.065 12.691 75.6344C12.1766 75.3939 11.6776 75.1209 11.1972 74.8172C10.6909 74.4649 10.2042 74.0848 9.73923 73.6786C9.20743 73.2168 8.70351 72.7248 8.23346 72.2288C7.7634 71.7328 7.38297 71.2007 7.0125 70.7007C6.64203 70.2007 6.31738 69.7208 6.03255 69.281L5.83338 68.9598L5.66009 68.6465C5.55254 68.4397 5.45096 68.2529 5.36133 68.0822Z" fill="#5483FC"/>
<path d="M22.1479 73.3308C22.0125 73.1079 21.883 72.885 21.7615 72.6622C21.6997 72.5517 21.64 72.4413 21.5842 72.3288C21.5285 72.2164 21.4846 72.0999 21.4368 71.9854C21.2516 71.542 21.0901 71.0889 20.9528 70.628C20.8226 70.1937 20.7189 69.7518 20.6421 69.3047C20.5808 68.8692 20.5549 68.4293 20.5644 67.9895C20.5709 67.1478 20.6997 66.3116 20.9469 65.5075C21.2281 64.6916 21.6231 63.9201 22.12 63.2164C22.9341 62.0877 23.9402 61.1134 25.0917 60.3389C25.2439 60.9296 25.3603 61.5291 25.4403 62.134C25.4921 62.4814 25.512 62.861 25.5558 63.2405C25.5996 63.62 25.6315 64.0176 25.6434 64.4292C25.6534 66.2003 25.4901 67.7907 24.9065 69.2987C24.7626 69.6759 24.5964 70.0441 24.4086 70.4011C24.2311 70.7575 24.0316 71.1022 23.811 71.4332C23.3364 72.1325 22.7778 72.7699 22.1479 73.3308Z" fill="#5483FC"/>
<path d="M25.4343 59.5415C25.4641 59.666 25.496 59.8025 25.5259 59.9431C25.5398 60.0194 25.5558 60.0957 25.5717 60.176C25.5876 60.2564 25.6135 60.3367 25.6354 60.421C25.7171 60.7564 25.7968 61.1379 25.8645 61.5556C25.9322 61.9732 25.982 62.4311 26.0278 62.911C26.1592 63.8818 26.1859 64.8641 26.1075 65.8407C26.094 66.2938 26.0541 66.7457 25.988 67.1941C25.8591 68.0795 25.6243 68.9459 25.2889 69.7744C24.6196 71.4961 23.5164 73.0119 22.0881 74.172C21.7575 73.672 21.4587 73.168 21.1958 72.6801C20.9624 72.1843 20.7576 71.6755 20.5823 71.156C20.4203 70.6684 20.2872 70.1716 20.184 69.668C20.1341 69.4235 20.1002 69.176 20.0824 68.927C20.0625 68.6801 20.0485 68.4371 20.0445 68.1941C20.036 67.7196 20.062 67.2451 20.1222 66.7744C20.1757 66.3116 20.2758 65.8554 20.421 65.413C20.7226 64.5069 21.1569 63.6514 21.7097 62.8748C22.9127 61.162 24.536 60.0817 25.4343 59.5415Z" fill="#5483FC"/>
</g>
<path d="M63.8966 16.1392C63.1939 16.1392 62.5675 16.0099 62.0173 15.7514C61.4704 15.4929 61.0363 15.1366 60.7148 14.6825C60.3933 14.2285 60.2259 13.7081 60.2126 13.1214H62.3007C62.3239 13.5159 62.4896 13.8357 62.7979 14.081C63.1061 14.3262 63.4723 14.4489 63.8966 14.4489C64.2346 14.4489 64.5329 14.3743 64.7915 14.2251C65.0533 14.0727 65.2571 13.8622 65.403 13.5938C65.5521 13.322 65.6267 13.0104 65.6267 12.6591C65.6267 12.3011 65.5505 11.9863 65.398 11.7145C65.2488 11.4427 65.0417 11.2306 64.7765 11.0781C64.5114 10.9257 64.2081 10.8478 63.8667 10.8445C63.5684 10.8445 63.2784 10.9058 62.9967 11.0284C62.7183 11.151 62.5012 11.3184 62.3454 11.5305L60.4314 11.1875L60.9136 5.81818H67.1381V7.57812H62.6885L62.425 10.1286H62.4846C62.6636 9.87666 62.9337 9.66785 63.295 9.50213C63.6563 9.33641 64.0606 9.25355 64.5081 9.25355C65.1212 9.25355 65.6681 9.39773 66.1487 9.68608C66.6293 9.97443 67.0088 10.3705 67.2872 10.8743C67.5656 11.3748 67.7032 11.9515 67.6998 12.6044C67.7032 13.2905 67.5441 13.9003 67.2226 14.4339C66.9044 14.9643 66.4586 15.3819 65.8852 15.6868C65.3151 15.9884 64.6523 16.1392 63.8966 16.1392ZM73.979 10.9787V12.6591H69.3355V10.9787H73.979ZM82.1373 10.5412L80.1984 10.6605C80.1653 10.4948 80.094 10.3456 79.9846 10.2131C79.8753 10.0772 79.7311 9.96946 79.5521 9.88991C79.3765 9.80705 79.166 9.76562 78.9207 9.76562C78.5926 9.76562 78.3158 9.83523 78.0905 9.97443C77.8651 10.1103 77.7524 10.2926 77.7524 10.5213C77.7524 10.7036 77.8253 10.8577 77.9711 10.9837C78.117 11.1096 78.3672 11.2107 78.7219 11.2869L80.104 11.5653C80.8464 11.7178 81.3999 11.9631 81.7645 12.3011C82.1291 12.6392 82.3113 13.0833 82.3113 13.6335C82.3113 14.134 82.1639 14.5732 81.8689 14.951C81.5772 15.3288 81.1762 15.6238 80.6657 15.8359C80.1586 16.0447 79.5737 16.1491 78.9108 16.1491C77.8999 16.1491 77.0945 15.9387 76.4946 15.5178C75.898 15.0935 75.5483 14.5168 75.4456 13.7876L77.5287 13.6783C77.5916 13.9865 77.7441 14.2218 77.9861 14.3842C78.228 14.5433 78.5379 14.6229 78.9157 14.6229C79.287 14.6229 79.5853 14.5516 79.8106 14.4091C80.0393 14.2633 80.1553 14.076 80.1586 13.8473C80.1553 13.6551 80.0741 13.4976 79.915 13.375C79.7559 13.2491 79.5107 13.1529 79.1792 13.0866L77.8568 12.8232C77.1111 12.674 76.5559 12.4155 76.1913 12.0476C75.83 11.6797 75.6494 11.2107 75.6494 10.6406C75.6494 10.1501 75.782 9.72751 76.0471 9.37287C76.3156 9.01823 76.6918 8.74479 77.1757 8.55256C77.6629 8.36032 78.233 8.2642 78.8859 8.2642C79.8504 8.2642 80.6094 8.46804 81.1629 8.87571C81.7197 9.28338 82.0445 9.83854 82.1373 10.5412ZM87.7068 8.36364V9.95455H83.108V8.36364H87.7068ZM84.1521 6.53409H86.27V13.6534C86.27 13.849 86.2998 14.0014 86.3595 14.1108C86.4191 14.2169 86.502 14.2914 86.608 14.3345C86.7174 14.3776 86.8434 14.3991 86.9859 14.3991C87.0853 14.3991 87.1847 14.3909 87.2842 14.3743C87.3836 14.3544 87.4598 14.3395 87.5129 14.3295L87.846 15.9055C87.7399 15.9387 87.5908 15.9768 87.3985 16.0199C87.2063 16.0663 86.9726 16.0945 86.6975 16.1044C86.1871 16.1243 85.7397 16.0563 85.3552 15.9006C84.974 15.7448 84.6774 15.5028 84.4653 15.1747C84.2532 14.8466 84.1488 14.4323 84.1521 13.9318V6.53409ZM91.2639 16.1442C90.7767 16.1442 90.3425 16.0597 89.9614 15.8906C89.5802 15.7183 89.2786 15.4647 89.0566 15.13C88.8378 14.7919 88.7284 14.371 88.7284 13.8672C88.7284 13.4429 88.8063 13.0866 88.9621 12.7983C89.1179 12.5099 89.33 12.2779 89.5985 12.1023C89.8669 11.9266 90.1718 11.794 90.5132 11.7045C90.8579 11.6151 91.2192 11.5521 91.597 11.5156C92.0412 11.4692 92.3991 11.4261 92.6709 11.3864C92.9427 11.3433 93.1399 11.2803 93.2625 11.1974C93.3852 11.1146 93.4465 10.992 93.4465 10.8295V10.7997C93.4465 10.4848 93.347 10.2412 93.1482 10.0689C92.9526 9.89654 92.6742 9.81037 92.3129 9.81037C91.9318 9.81037 91.6285 9.89489 91.4031 10.0639C91.1778 10.2296 91.0286 10.4384 90.9557 10.6903L88.9969 10.5312C89.0963 10.0672 89.2919 9.66619 89.5835 9.32812C89.8752 8.98674 90.2514 8.7249 90.7121 8.54261C91.1761 8.35701 91.713 8.2642 92.3229 8.2642C92.7471 8.2642 93.1531 8.31392 93.5409 8.41335C93.932 8.51278 94.2784 8.6669 94.58 8.87571C94.8849 9.08452 95.1252 9.35298 95.3009 9.68111C95.4765 10.0059 95.5644 10.3954 95.5644 10.8494V16H93.5558V14.9411H93.4962C93.3735 15.1797 93.2095 15.3902 93.004 15.5724C92.7985 15.7514 92.5516 15.8923 92.2632 15.995C91.9749 16.0945 91.6418 16.1442 91.2639 16.1442ZM91.8705 14.6825C92.182 14.6825 92.4571 14.6212 92.6958 14.4986C92.9344 14.3726 93.1217 14.2036 93.2575 13.9915C93.3934 13.7794 93.4614 13.5391 93.4614 13.2706V12.4602C93.3951 12.5033 93.3039 12.5431 93.1879 12.5795C93.0753 12.6127 92.9477 12.6442 92.8051 12.674C92.6626 12.7005 92.5201 12.7254 92.3776 12.7486C92.2351 12.7685 92.1058 12.7867 91.9898 12.8033C91.7412 12.8397 91.5241 12.8977 91.3385 12.9773C91.1529 13.0568 91.0087 13.1645 90.906 13.3004C90.8032 13.433 90.7519 13.5987 90.7519 13.7976C90.7519 14.0859 90.8563 14.3063 91.0651 14.4588C91.2772 14.608 91.5457 14.6825 91.8705 14.6825ZM97.2075 16V8.36364H99.2607V9.69602H99.3403C99.4795 9.22206 99.7132 8.86411 100.041 8.62216C100.369 8.37689 100.747 8.25426 101.175 8.25426C101.281 8.25426 101.395 8.26089 101.518 8.27415C101.64 8.28741 101.748 8.30563 101.841 8.32883V10.2081C101.742 10.1783 101.604 10.1518 101.428 10.1286C101.253 10.1054 101.092 10.0938 100.946 10.0938C100.635 10.0938 100.356 10.1617 100.111 10.2976C99.8689 10.4302 99.6767 10.6158 99.5342 10.8544C99.395 11.093 99.3254 11.3681 99.3254 11.6797V16H97.2075ZM106.176 16V8.36364H108.229V9.69602H108.309C108.448 9.22206 108.682 8.86411 109.01 8.62216C109.338 8.37689 109.716 8.25426 110.144 8.25426C110.25 8.25426 110.364 8.26089 110.487 8.27415C110.609 8.28741 110.717 8.30563 110.81 8.32883V10.2081C110.71 10.1783 110.573 10.1518 110.397 10.1286C110.221 10.1054 110.061 10.0938 109.915 10.0938C109.603 10.0938 109.325 10.1617 109.08 10.2976C108.838 10.4302 108.645 10.6158 108.503 10.8544C108.364 11.093 108.294 11.3681 108.294 11.6797V16H106.176ZM113.864 16.1442C113.376 16.1442 112.942 16.0597 112.561 15.8906C112.18 15.7183 111.878 15.4647 111.656 15.13C111.437 14.7919 111.328 14.371 111.328 13.8672C111.328 13.4429 111.406 13.0866 111.562 12.7983C111.717 12.5099 111.93 12.2779 112.198 12.1023C112.467 11.9266 112.771 11.794 113.113 11.7045C113.458 11.6151 113.819 11.5521 114.197 11.5156C114.641 11.4692 114.999 11.4261 115.271 11.3864C115.542 11.3433 115.739 11.2803 115.862 11.1974C115.985 11.1146 116.046 10.992 116.046 10.8295V10.7997C116.046 10.4848 115.947 10.2412 115.748 10.0689C115.552 9.89654 115.274 9.81037 114.913 9.81037C114.531 9.81037 114.228 9.89489 114.003 10.0639C113.777 10.2296 113.628 10.4384 113.555 10.6903L111.597 10.5312C111.696 10.0672 111.891 9.66619 112.183 9.32812C112.475 8.98674 112.851 8.7249 113.312 8.54261C113.776 8.35701 114.313 8.2642 114.922 8.2642C115.347 8.2642 115.753 8.31392 116.141 8.41335C116.532 8.51278 116.878 8.6669 117.18 8.87571C117.485 9.08452 117.725 9.35298 117.9 9.68111C118.076 10.0059 118.164 10.3954 118.164 10.8494V16H116.155V14.9411H116.096C115.973 15.1797 115.809 15.3902 115.604 15.5724C115.398 15.7514 115.151 15.8923 114.863 15.995C114.574 16.0945 114.241 16.1442 113.864 16.1442ZM114.47 14.6825C114.782 14.6825 115.057 14.6212 115.295 14.4986C115.534 14.3726 115.721 14.2036 115.857 13.9915C115.993 13.7794 116.061 13.5391 116.061 13.2706V12.4602C115.995 12.5033 115.904 12.5431 115.788 12.5795C115.675 12.6127 115.547 12.6442 115.405 12.674C115.262 12.7005 115.12 12.7254 114.977 12.7486C114.835 12.7685 114.705 12.7867 114.589 12.8033C114.341 12.8397 114.124 12.8977 113.938 12.9773C113.753 13.0568 113.608 13.1645 113.506 13.3004C113.403 13.433 113.351 13.5987 113.351 13.7976C113.351 14.0859 113.456 14.3063 113.665 14.4588C113.877 14.608 114.145 14.6825 114.47 14.6825ZM123.869 8.36364V9.95455H119.27V8.36364H123.869ZM120.314 6.53409H122.432V13.6534C122.432 13.849 122.462 14.0014 122.522 14.1108C122.581 14.2169 122.664 14.2914 122.77 14.3345C122.88 14.3776 123.005 14.3991 123.148 14.3991C123.247 14.3991 123.347 14.3909 123.446 14.3743C123.546 14.3544 123.622 14.3395 123.675 14.3295L124.008 15.9055C123.902 15.9387 123.753 15.9768 123.561 16.0199C123.368 16.0663 123.135 16.0945 122.86 16.1044C122.349 16.1243 121.902 16.0563 121.517 15.9006C121.136 15.7448 120.84 15.5028 120.627 15.1747C120.415 14.8466 120.311 14.4323 120.314 13.9318V6.53409ZM125.248 16V8.36364H127.366V16H125.248ZM126.312 7.37926C125.998 7.37926 125.727 7.27486 125.502 7.06605C125.28 6.85393 125.169 6.60038 125.169 6.3054C125.169 6.01373 125.28 5.76349 125.502 5.55469C125.727 5.34257 125.998 5.23651 126.312 5.23651C126.627 5.23651 126.896 5.34257 127.118 5.55469C127.343 5.76349 127.456 6.01373 127.456 6.3054C127.456 6.60038 127.343 6.85393 127.118 7.06605C126.896 7.27486 126.627 7.37926 126.312 7.37926ZM131.181 11.5852V16H129.063V8.36364H131.081V9.71094H131.171C131.34 9.26681 131.623 8.91548 132.021 8.65696C132.419 8.39512 132.901 8.2642 133.468 8.2642C133.998 8.2642 134.46 8.38021 134.855 8.61222C135.249 8.84422 135.556 9.17566 135.775 9.60653C135.993 10.0341 136.103 10.5445 136.103 11.1378V16H133.985V11.5156C133.988 11.0483 133.869 10.6837 133.627 10.4219C133.385 10.1567 133.052 10.0241 132.628 10.0241C132.343 10.0241 132.091 10.0855 131.872 10.2081C131.656 10.3307 131.487 10.5097 131.365 10.745C131.245 10.977 131.184 11.2571 131.181 11.5852ZM141.212 19.0227C140.526 19.0227 139.938 18.9283 139.447 18.7393C138.96 18.5537 138.572 18.3002 138.284 17.9787C137.996 17.6572 137.808 17.2959 137.722 16.8949L139.681 16.6314C139.741 16.7839 139.835 16.9264 139.964 17.0589C140.094 17.1915 140.264 17.2976 140.476 17.3771C140.692 17.46 140.954 17.5014 141.262 17.5014C141.723 17.5014 142.102 17.3887 142.4 17.1634C142.702 16.9413 142.853 16.5684 142.853 16.0447V14.6477H142.763C142.671 14.8598 142.531 15.0604 142.346 15.2493C142.16 15.4382 141.922 15.5923 141.63 15.7116C141.338 15.831 140.99 15.8906 140.586 15.8906C140.012 15.8906 139.49 15.758 139.02 15.4929C138.552 15.2244 138.18 14.8151 137.901 14.2649C137.626 13.7114 137.489 13.0121 137.489 12.1669C137.489 11.3018 137.629 10.5793 137.911 9.99929C138.193 9.41927 138.567 8.98509 139.035 8.69673C139.505 8.40838 140.021 8.2642 140.581 8.2642C141.008 8.2642 141.366 8.33712 141.655 8.48295C141.943 8.62547 142.175 8.80445 142.351 9.01989C142.53 9.23201 142.667 9.44081 142.763 9.64631H142.843V8.36364H144.946V16.0746C144.946 16.7242 144.787 17.2678 144.469 17.7053C144.15 18.1428 143.71 18.4709 143.146 18.6896C142.586 18.9117 141.941 19.0227 141.212 19.0227ZM141.257 14.2997C141.598 14.2997 141.887 14.2152 142.122 14.0462C142.361 13.8738 142.543 13.6286 142.669 13.3104C142.798 12.9889 142.863 12.6044 142.863 12.157C142.863 11.7095 142.8 11.3217 142.674 10.9936C142.548 10.6622 142.366 10.4053 142.127 10.223C141.888 10.0407 141.598 9.94957 141.257 9.94957C140.909 9.94957 140.616 10.044 140.377 10.233C140.138 10.4186 139.958 10.6771 139.835 11.0085C139.713 11.34 139.651 11.7228 139.651 12.157C139.651 12.5978 139.713 12.9789 139.835 13.3004C139.961 13.6186 140.142 13.8655 140.377 14.0412C140.616 14.2135 140.909 14.2997 141.257 14.2997ZM152.985 10.5412L151.046 10.6605C151.013 10.4948 150.942 10.3456 150.832 10.2131C150.723 10.0772 150.579 9.96946 150.4 9.88991C150.224 9.80705 150.014 9.76562 149.768 9.76562C149.44 9.76562 149.164 9.83523 148.938 9.97443C148.713 10.1103 148.6 10.2926 148.6 10.5213C148.6 10.7036 148.673 10.8577 148.819 10.9837C148.965 11.1096 149.215 11.2107 149.57 11.2869L150.952 11.5653C151.694 11.7178 152.248 11.9631 152.612 12.3011C152.977 12.6392 153.159 13.0833 153.159 13.6335C153.159 14.134 153.012 14.5732 152.717 14.951C152.425 15.3288 152.024 15.6238 151.513 15.8359C151.006 16.0447 150.421 16.1491 149.758 16.1491C148.748 16.1491 147.942 15.9387 147.342 15.5178C146.746 15.0935 146.396 14.5168 146.293 13.7876L148.376 13.6783C148.439 13.9865 148.592 14.2218 148.834 14.3842C149.076 14.5433 149.386 14.6229 149.763 14.6229C150.135 14.6229 150.433 14.5516 150.658 14.4091C150.887 14.2633 151.003 14.076 151.006 13.8473C151.003 13.6551 150.922 13.4976 150.763 13.375C150.604 13.2491 150.358 13.1529 150.027 13.0866L148.704 12.8232C147.959 12.674 147.404 12.4155 147.039 12.0476C146.678 11.6797 146.497 11.2107 146.497 10.6406C146.497 10.1501 146.63 9.72751 146.895 9.37287C147.163 9.01823 147.539 8.74479 148.023 8.55256C148.511 8.36032 149.081 8.2642 149.734 8.2642C150.698 8.2642 151.457 8.46804 152.011 8.87571C152.567 9.28338 152.892 9.83854 152.985 10.5412Z" fill="#98A4A1"/>
<path d="M58.2818 28.4006C58.5453 27.8665 59.3069 27.8665 59.5705 28.4006L61.9267 33.1747C62.0313 33.3867 62.2336 33.5337 62.4677 33.5677L67.7362 34.3333C68.3256 34.419 68.561 35.1432 68.1345 35.559L64.3221 39.2751C64.1528 39.4402 64.0755 39.678 64.1155 39.9111L65.0154 45.1584C65.1161 45.7454 64.5 46.193 63.9728 45.9159L59.2605 43.4384C59.0512 43.3284 58.8011 43.3284 58.5918 43.4384L53.8794 45.9159C53.3523 46.193 52.7361 45.7454 52.8368 45.1584L53.7368 39.9111C53.7768 39.678 53.6995 39.4402 53.5301 39.2751L49.7178 35.559C49.2913 35.1432 49.5266 34.419 50.116 34.3333L55.3846 33.5677C55.6186 33.5337 55.8209 33.3867 55.9256 33.1747L58.2818 28.4006Z" fill="#99C2FF"/>
<path d="M82.2818 28.4006C82.5453 27.8665 83.3069 27.8665 83.5705 28.4006L85.9267 33.1747C86.0313 33.3867 86.2336 33.5337 86.4677 33.5677L91.7362 34.3333C92.3256 34.419 92.561 35.1432 92.1345 35.559L88.3221 39.2751C88.1528 39.4402 88.0755 39.678 88.1155 39.9111L89.0154 45.1584C89.1161 45.7454 88.5 46.193 87.9728 45.9159L83.2605 43.4384C83.0512 43.3284 82.8011 43.3284 82.5918 43.4384L77.8794 45.9159C77.3523 46.193 76.7361 45.7454 76.8368 45.1584L77.7368 39.9111C77.7768 39.678 77.6995 39.4402 77.5301 39.2751L73.7178 35.559C73.2913 35.1432 73.5266 34.419 74.116 34.3333L79.3846 33.5677C79.6186 33.5337 79.8209 33.3867 79.9256 33.1747L82.2818 28.4006Z" fill="#99C2FF"/>
<path d="M106.282 28.4006C106.545 27.8665 107.307 27.8665 107.57 28.4006L109.927 33.1747C110.031 33.3867 110.234 33.5337 110.468 33.5677L115.736 34.3333C116.326 34.419 116.561 35.1432 116.134 35.559L112.322 39.2751C112.153 39.4402 112.075 39.678 112.115 39.9111L113.015 45.1584C113.116 45.7454 112.5 46.193 111.973 45.9159L107.261 43.4384C107.051 43.3284 106.801 43.3284 106.592 43.4384L101.879 45.9159C101.352 46.193 100.736 45.7454 100.837 45.1584L101.737 39.9111C101.777 39.678 101.699 39.4402 101.53 39.2751L97.7178 35.559C97.2913 35.1432 97.5266 34.419 98.116 34.3333L103.385 33.5677C103.619 33.5337 103.821 33.3867 103.926 33.1747L106.282 28.4006Z" fill="#99C2FF"/>
<path d="M130.282 28.4006C130.545 27.8665 131.307 27.8665 131.57 28.4006L133.927 33.1747C134.031 33.3867 134.234 33.5337 134.468 33.5677L139.736 34.3333C140.326 34.419 140.561 35.1432 140.134 35.559L136.322 39.2751C136.153 39.4402 136.075 39.678 136.115 39.9111L137.015 45.1584C137.116 45.7454 136.5 46.193 135.973 45.9159L131.261 43.4384C131.051 43.3284 130.801 43.3284 130.592 43.4384L125.879 45.9159C125.352 46.193 124.736 45.7454 124.837 45.1584L125.737 39.9111C125.777 39.678 125.699 39.4402 125.53 39.2751L121.718 35.559C121.291 35.1432 121.527 34.419 122.116 34.3333L127.385 33.5677C127.619 33.5337 127.821 33.3867 127.926 33.1747L130.282 28.4006Z" fill="#99C2FF"/>
<path d="M154.282 28.4006C154.545 27.8665 155.307 27.8665 155.57 28.4006L157.927 33.1747C158.031 33.3867 158.234 33.5337 158.468 33.5677L163.736 34.3333C164.326 34.419 164.561 35.1432 164.134 35.559L160.322 39.2751C160.153 39.4402 160.075 39.678 160.115 39.9111L161.015 45.1584C161.116 45.7454 160.5 46.193 159.973 45.9159L155.261 43.4384C155.051 43.3284 154.801 43.3284 154.592 43.4384L149.879 45.9159C149.352 46.193 148.736 45.7454 148.837 45.1584L149.737 39.9111C149.777 39.678 149.699 39.4402 149.53 39.2751L145.718 35.559C145.291 35.1432 145.527 34.419 146.116 34.3333L151.385 33.5677C151.619 33.5337 151.821 33.3867 151.926 33.1747L154.282 28.4006Z" fill="#99C2FF"/>
<path d="M65.0313 69V67.4489L68.6556 64.093C68.9639 63.7947 69.2224 63.5263 69.4312 63.2876C69.6433 63.049 69.8041 62.8153 69.9134 62.5866C70.0228 62.3546 70.0775 62.1044 70.0775 61.8359C70.0775 61.5376 70.0096 61.2808 69.8737 61.0653C69.7378 60.8466 69.5522 60.6792 69.3169 60.5632C69.0815 60.4439 68.8147 60.3842 68.5164 60.3842C68.2049 60.3842 67.9331 60.4472 67.7011 60.5732C67.4691 60.6991 67.2901 60.8797 67.1642 61.1151C67.0382 61.3504 66.9752 61.6304 66.9752 61.9553H64.9319C64.9319 61.2891 65.0827 60.7107 65.3843 60.2202C65.6859 59.7296 66.1085 59.3501 66.6521 59.0817C67.1956 58.8132 67.8221 58.679 68.5313 58.679C69.2605 58.679 69.8952 58.8082 70.4355 59.0668C70.979 59.322 71.4016 59.6766 71.7032 60.1307C72.0048 60.5848 72.1556 61.1051 72.1556 61.6918C72.1556 62.0762 72.0794 62.4557 71.9269 62.8303C71.7778 63.2048 71.511 63.6207 71.1265 64.0781C70.742 64.5322 70.2001 65.0774 69.5008 65.7138L68.0143 67.1705V67.2401H72.2899V69H65.0313ZM77.7574 69.1392C77.2337 69.1359 76.7282 69.0481 76.241 68.8757C75.7571 68.7034 75.3229 68.4233 74.9385 68.0355C74.554 67.6477 74.2491 67.134 74.0237 66.4943C73.8016 65.8546 73.6906 65.0691 73.6906 64.1378C73.6939 63.2827 73.7917 62.5187 73.9839 61.8459C74.1795 61.1697 74.4579 60.5964 74.8192 60.1257C75.1837 59.6551 75.6196 59.2971 76.1267 59.0518C76.6338 58.8033 77.2022 58.679 77.8319 58.679C78.5114 58.679 79.1113 58.8116 79.6317 59.0767C80.152 59.3385 80.5696 59.6948 80.8845 60.1456C81.2027 60.5964 81.3949 61.1018 81.4612 61.6619H79.3383C79.2555 61.3073 79.0815 61.0289 78.8163 60.8267C78.5512 60.6245 78.223 60.5234 77.8319 60.5234C77.1691 60.5234 76.6653 60.8118 76.3206 61.3885C75.9792 61.9652 75.8052 62.7491 75.7986 63.7401H75.8682C76.0206 63.4384 76.2261 63.1816 76.4846 62.9695C76.7465 62.754 77.0431 62.59 77.3746 62.4773C77.7093 62.3613 78.0623 62.3033 78.4335 62.3033C79.0367 62.3033 79.5737 62.4458 80.0443 62.7308C80.5149 63.0125 80.8862 63.4003 81.1579 63.8942C81.4297 64.388 81.5656 64.9531 81.5656 65.5895C81.5656 66.2789 81.4049 66.892 81.0834 67.429C80.7652 67.9659 80.3194 68.3868 79.746 68.6918C79.1759 68.9934 78.5131 69.1425 77.7574 69.1392ZM77.7474 67.4489C78.0789 67.4489 78.3755 67.3693 78.6373 67.2102C78.8992 67.0511 79.1047 66.8357 79.2538 66.5639C79.403 66.2921 79.4775 65.9872 79.4775 65.6491C79.4775 65.3111 79.403 65.0078 79.2538 64.7393C79.108 64.4709 78.9058 64.2571 78.6473 64.098C78.3888 63.9389 78.0938 63.8594 77.7623 63.8594C77.5138 63.8594 77.2834 63.9058 77.0713 63.9986C76.8625 64.0914 76.6785 64.2206 76.5194 64.3864C76.3637 64.5521 76.241 64.7443 76.1515 64.9631C76.0621 65.1785 76.0173 65.4089 76.0173 65.6541C76.0173 65.9822 76.0919 66.2822 76.241 66.554C76.3935 66.8258 76.599 67.0429 76.8575 67.2053C77.1193 67.3677 77.416 67.4489 77.7474 67.4489ZM83.1515 69V58.8182H85.3042V63.3075H85.4385L89.1025 58.8182H91.6828L87.9044 63.3771L91.7275 69H89.1523L86.3632 64.8139L85.3042 66.1065V69H83.1515ZM96.0044 69V61.3636H98.0576V62.696H98.1372C98.2764 62.2221 98.51 61.8641 98.8382 61.6222C99.1663 61.3769 99.5441 61.2543 99.9717 61.2543C100.078 61.2543 100.192 61.2609 100.315 61.2741C100.437 61.2874 100.545 61.3056 100.638 61.3288V63.2081C100.538 63.1783 100.401 63.1518 100.225 63.1286C100.05 63.1054 99.8888 63.0938 99.743 63.0938C99.4314 63.0938 99.153 63.1617 98.9078 63.2976C98.6658 63.4302 98.4736 63.6158 98.3311 63.8544C98.1919 64.093 98.1222 64.3681 98.1222 64.6797V69H96.0044ZM104.858 69.1491C104.072 69.1491 103.396 68.9901 102.829 68.6719C102.266 68.3504 101.831 67.8963 101.527 67.3097C101.222 66.7197 101.069 66.022 101.069 65.2166C101.069 64.4311 101.222 63.7417 101.527 63.1484C101.831 62.5552 102.261 62.0928 102.814 61.7614C103.371 61.4299 104.024 61.2642 104.773 61.2642C105.277 61.2642 105.746 61.3454 106.18 61.5078C106.617 61.6669 106.999 61.9072 107.323 62.2287C107.652 62.5502 107.907 62.9545 108.089 63.4418C108.271 63.9257 108.362 64.4924 108.362 65.142V65.7237H101.914V64.4112H106.369C106.369 64.1063 106.303 63.8362 106.17 63.6009C106.037 63.3655 105.853 63.1816 105.618 63.049C105.386 62.9131 105.116 62.8452 104.808 62.8452C104.486 62.8452 104.201 62.9197 103.953 63.0689C103.707 63.2147 103.515 63.4119 103.376 63.6605C103.237 63.9058 103.166 64.1792 103.162 64.4808V65.7287C103.162 66.1065 103.232 66.433 103.371 66.7081C103.514 66.9832 103.714 67.1953 103.973 67.3445C104.231 67.4936 104.538 67.5682 104.892 67.5682C105.128 67.5682 105.343 67.535 105.539 67.4688C105.734 67.4025 105.902 67.303 106.041 67.1705C106.18 67.0379 106.286 66.8755 106.359 66.6832L108.318 66.8125C108.218 67.2831 108.014 67.6941 107.706 68.0455C107.401 68.3935 107.007 68.6652 106.523 68.8608C106.042 69.053 105.487 69.1491 104.858 69.1491ZM116.659 61.3636L113.989 69H111.603L108.933 61.3636H111.17L112.756 66.8274H112.836L114.417 61.3636H116.659ZM117.743 69V61.3636H119.861V69H117.743ZM118.807 60.3793C118.492 60.3793 118.222 60.2749 117.996 60.0661C117.774 59.8539 117.663 59.6004 117.663 59.3054C117.663 59.0137 117.774 58.7635 117.996 58.5547C118.222 58.3426 118.492 58.2365 118.807 58.2365C119.121 58.2365 119.39 58.3426 119.612 58.5547C119.837 58.7635 119.95 59.0137 119.95 59.3054C119.95 59.6004 119.837 59.8539 119.612 60.0661C119.39 60.2749 119.121 60.3793 118.807 60.3793ZM125.037 69.1491C124.252 69.1491 123.576 68.9901 123.009 68.6719C122.445 68.3504 122.011 67.8963 121.706 67.3097C121.401 66.7197 121.249 66.022 121.249 65.2166C121.249 64.4311 121.401 63.7417 121.706 63.1484C122.011 62.5552 122.44 62.0928 122.994 61.7614C123.551 61.4299 124.204 61.2642 124.953 61.2642C125.456 61.2642 125.925 61.3454 126.36 61.5078C126.797 61.6669 127.178 61.9072 127.503 62.2287C127.831 62.5502 128.086 62.9545 128.269 63.4418C128.451 63.9257 128.542 64.4924 128.542 65.142V65.7237H122.094V64.4112H126.549C126.549 64.1063 126.482 63.8362 126.35 63.6009C126.217 63.3655 126.033 63.1816 125.798 63.049C125.566 62.9131 125.296 62.8452 124.987 62.8452C124.666 62.8452 124.381 62.9197 124.132 63.0689C123.887 63.2147 123.695 63.4119 123.556 63.6605C123.416 63.9058 123.345 64.1792 123.342 64.4808V65.7287C123.342 66.1065 123.411 66.433 123.551 66.7081C123.693 66.9832 123.894 67.1953 124.152 67.3445C124.411 67.4936 124.717 67.5682 125.072 67.5682C125.307 67.5682 125.523 67.535 125.718 67.4688C125.914 67.4025 126.081 67.303 126.22 67.1705C126.36 67.0379 126.466 66.8755 126.539 66.6832L128.497 66.8125C128.398 67.2831 128.194 67.6941 127.886 68.0455C127.581 68.3935 127.187 68.6652 126.703 68.8608C126.222 69.053 125.667 69.1491 125.037 69.1491ZM131.376 69L129.298 61.3636H131.441L132.624 66.4943H132.693L133.926 61.3636H136.029L137.282 66.4645H137.347L138.51 61.3636H140.648L138.575 69H136.333L135.02 64.1974H134.926L133.613 69H131.376ZM148.131 63.5412L146.193 63.6605C146.159 63.4948 146.088 63.3456 145.979 63.2131C145.869 63.0772 145.725 62.9695 145.546 62.8899C145.371 62.8071 145.16 62.7656 144.915 62.7656C144.587 62.7656 144.31 62.8352 144.085 62.9744C143.859 63.1103 143.747 63.2926 143.747 63.5213C143.747 63.7036 143.819 63.8577 143.965 63.9837C144.111 64.1096 144.361 64.2107 144.716 64.2869L146.098 64.5653C146.841 64.7178 147.394 64.9631 147.759 65.3011C148.123 65.6392 148.305 66.0833 148.305 66.6335C148.305 67.134 148.158 67.5732 147.863 67.951C147.571 68.3288 147.17 68.6238 146.66 68.8359C146.153 69.0447 145.568 69.1491 144.905 69.1491C143.894 69.1491 143.089 68.9387 142.489 68.5178C141.892 68.0935 141.542 67.5168 141.44 66.7876L143.523 66.6783C143.586 66.9865 143.738 67.2218 143.98 67.3842C144.222 67.5433 144.532 67.6229 144.91 67.6229C145.281 67.6229 145.579 67.5516 145.805 67.4091C146.033 67.2633 146.149 67.076 146.153 66.8473C146.149 66.6551 146.068 66.4976 145.909 66.375C145.75 66.2491 145.505 66.1529 145.173 66.0866L143.851 65.8232C143.105 65.674 142.55 65.4155 142.185 65.0476C141.824 64.6797 141.644 64.2107 141.644 63.6406C141.644 63.1501 141.776 62.7275 142.041 62.3729C142.31 62.0182 142.686 61.7448 143.17 61.5526C143.657 61.3603 144.227 61.2642 144.88 61.2642C145.845 61.2642 146.604 61.468 147.157 61.8757C147.714 62.2834 148.039 62.8385 148.131 63.5412Z" fill="#98A4A1"/>
<g clip-path="url(#clip1_191_6976)">
<path d="M195.913 21.7669C194.335 22.2419 192.665 22.3109 191.055 21.9677C189.479 21.6464 188.027 20.9275 186.543 19.9014C186.199 19.6584 185.886 19.4014 185.579 19.1504C185.272 18.8993 184.972 18.6524 184.703 18.4074C184.434 18.1624 184.187 17.9214 183.968 17.6925L183.653 17.3632L183.356 17.068C183.936 16.8369 184.531 16.6471 185.137 16.4997C185.885 16.3169 186.65 16.2146 187.42 16.1945C188.28 16.1758 189.139 16.2778 189.971 16.4977C190.781 16.7265 191.553 17.0772 192.26 17.5379C192.63 17.7749 192.984 18.0365 193.319 18.321C193.654 18.6279 193.971 18.9545 194.267 19.299C194.582 19.6634 194.878 20.0449 195.152 20.4416C195.433 20.8668 195.687 21.3095 195.913 21.7669Z" fill="#5483FC"/>
<path d="M182.5 16.8676C183.144 16.5641 183.81 16.311 184.492 16.1105C185.427 15.8278 186.394 15.6705 187.37 15.6426C188.321 15.6173 189.271 15.7344 190.188 15.99C190.413 16.0523 190.638 16.1246 190.861 16.2049C191.085 16.2852 191.288 16.3836 191.499 16.484C191.924 16.6928 192.334 16.9317 192.726 17.1989C193.135 17.4762 193.522 17.7843 193.885 18.1206C194.253 18.4851 194.599 18.8713 194.921 19.2773C195.266 19.702 195.582 20.1502 195.867 20.6187C196.148 21.1066 196.414 21.6227 196.663 22.1709C194.927 22.7826 193.061 22.9211 191.254 22.5725C190.377 22.4076 189.524 22.138 188.71 21.7693C188.294 21.5763 187.887 21.3612 187.493 21.1247C187.07 20.8871 186.66 20.627 186.264 20.3456C185.822 20.0363 185.432 19.705 185.049 19.3877C184.667 19.0704 184.307 18.7572 183.99 18.4499C183.673 18.1427 183.402 17.8475 183.149 17.5845C182.896 17.3214 182.675 17.0684 182.5 16.8676Z" fill="#5483FC"/>
<path d="M198.265 20.7788C198.092 20.2607 197.962 19.7426 197.827 19.2426C197.691 18.7426 197.574 18.2526 197.488 17.7667C197.402 17.2876 197.34 16.8044 197.303 16.3189C197.147 14.9415 197.214 13.5478 197.502 12.1922C197.681 11.2895 197.959 10.4098 198.333 9.56968C198.665 8.81872 199.065 8.10015 199.528 7.42303C199.883 6.89474 200.275 6.39338 200.703 5.92299L200.942 6.44108C201.024 6.62582 201.095 6.82663 201.173 7.02744C201.326 7.42906 201.482 7.87485 201.631 8.33872C201.78 8.80259 201.92 9.28855 202.045 9.79257C202.171 10.2966 202.244 10.8308 202.316 11.3629C202.633 13.62 202.346 15.5799 201.663 17.1422C201.322 17.9137 200.851 18.6192 200.269 19.2266C199.682 19.8429 199.007 20.3663 198.265 20.7788Z" fill="#5483FC"/>
<path d="M200.741 4.85912C200.914 5.19046 201.113 5.59207 201.326 6.04992C201.539 6.50776 201.725 7.04392 201.924 7.6102C202.123 8.17648 202.322 8.79095 202.487 9.42952C202.649 10.0911 202.772 10.7616 202.856 11.4376C202.935 12.0404 202.981 12.6471 202.995 13.2549C202.992 13.8173 202.952 14.3788 202.874 14.9357C202.748 15.9302 202.462 16.8974 202.027 17.7992C201.163 19.5061 199.808 20.7491 198.014 21.6146C197.803 21.0363 197.615 20.466 197.472 19.9037C197.329 19.3414 197.167 18.8033 197.058 18.2731C196.946 17.7425 196.863 17.2063 196.809 16.6667C196.747 16.1425 196.693 15.6325 196.683 15.1184C196.67 14.6099 196.685 14.101 196.729 13.5943C196.751 13.3413 196.785 13.0883 196.819 12.8393C196.853 12.5902 196.885 12.3473 196.93 12.1003C197.119 11.0935 197.423 10.1123 197.837 9.17651C198.246 8.23923 198.752 7.34752 199.344 6.51579C199.763 5.92526 200.23 5.37111 200.741 4.85912Z" fill="#5483FC"/>
<path d="M192.997 13.0875C189.386 11.4027 186.96 8.95685 185.211 5.30012C184.815 4.49529 184.476 3.6632 184.197 2.8101C183.946 2.13811 183.729 1.45383 183.546 0.759844C184.241 0.968337 184.923 1.21845 185.589 1.50886C186.422 1.91144 187.222 2.38153 187.979 2.91452C191.463 5.3925 193.244 9.0954 192.997 13.0875Z" fill="#5483FC"/>
<path d="M182.813 -0.000488281C184.754 0.465746 186.59 1.29616 188.226 2.44737C188.469 2.62006 188.714 2.79075 188.937 2.9775C189.161 3.16425 189.376 3.35904 189.585 3.55382C189.997 3.94134 190.39 4.3495 190.762 4.77675C191.121 5.19495 191.446 5.64226 191.732 6.11413C192.018 6.57275 192.278 7.04743 192.511 7.53586C192.738 8.0193 192.924 8.52107 193.068 9.0359C193.22 9.55079 193.339 10.0745 193.427 10.6042C193.516 11.141 193.56 11.6845 193.558 12.2288C193.562 12.7841 193.534 13.3393 193.475 13.8914C189.366 12.1103 186.661 9.5078 184.729 5.48359C183.896 3.73051 183.254 1.89181 182.813 -0.000488281Z" fill="#5483FC"/>
<path d="M199.143 32.1153C197.502 32.2913 195.843 32.0597 194.311 31.4406C193.944 31.2906 193.586 31.1182 193.24 30.9245C192.893 30.7237 192.562 30.5128 192.212 30.2799C191.508 29.7976 190.856 29.2416 190.268 28.6212C189.706 28.0691 189.186 27.475 188.712 26.8441L188.406 26.4184C188.3 26.2838 188.206 26.1493 188.107 26.0167C187.92 25.7577 187.754 25.5147 187.613 25.2938C188.968 25.0019 190.363 24.9456 191.738 25.1272C192.584 25.2566 193.407 25.506 194.184 25.8681C194.957 26.2225 195.667 26.7021 196.287 27.2879C196.605 27.5896 196.903 27.9116 197.179 28.2517C197.321 28.4264 197.458 28.6072 197.594 28.7939L197.793 29.0811C197.855 29.1775 197.912 29.2819 197.97 29.3803C198.208 29.7988 198.423 30.2298 198.615 30.6715C198.715 30.8984 198.815 31.1333 198.9 31.3723C198.996 31.6147 199.077 31.8628 199.143 32.1153Z" fill="#5483FC"/>
<path d="M186.814 24.9625C188.425 24.5093 190.108 24.3831 191.768 24.591C192.713 24.7164 193.633 24.9944 194.49 25.4143C194.913 25.621 195.32 25.8593 195.707 26.1272C195.907 26.2637 196.106 26.4063 196.279 26.5589C196.452 26.7115 196.632 26.8762 196.801 27.0449C197.148 27.3959 197.471 27.7695 197.769 28.1634C198.088 28.5725 198.368 29.0109 198.605 29.4726C198.858 29.9594 199.085 30.4594 199.285 30.9707C199.386 31.2357 199.484 31.5048 199.577 31.784C199.671 32.0631 199.729 32.3522 199.799 32.6474C198.863 32.7836 197.915 32.7991 196.976 32.6936C196.535 32.6415 196.097 32.5617 195.666 32.4547C195.234 32.3488 194.809 32.2147 194.395 32.053C193.568 31.7382 192.784 31.3199 192.06 30.808C191.281 30.2846 190.559 29.6788 189.907 29.0007L189.639 28.7116L189.366 28.4284C189.186 28.2397 189.019 28.0489 188.86 27.8602C188.539 27.4826 188.262 27.1111 188.009 26.7557C187.575 26.1834 187.176 25.5845 186.814 24.9625Z" fill="#5483FC"/>
<path d="M201.635 31.5765C201.609 31.3014 201.567 31.0363 201.535 30.7733C201.504 30.5102 201.476 30.2492 201.456 29.9901C201.416 29.472 201.4 28.966 201.408 28.468C201.408 28.3415 201.408 28.219 201.408 28.0965C201.408 27.974 201.408 27.8515 201.408 27.733C201.408 27.4901 201.426 27.2511 201.444 27.0141C201.478 26.5426 201.539 26.0733 201.625 25.6085C201.79 24.7081 202.037 23.8249 202.362 22.9699C202.704 22.1076 203.138 21.2854 203.657 20.518C204.46 19.3061 205.454 18.2351 206.6 17.3472C206.692 17.6946 206.788 18.0842 206.879 18.5059C206.927 18.7067 206.971 18.9336 207.015 19.1585C207.059 19.3834 207.082 19.6224 207.114 19.8654C207.247 20.8885 207.304 21.9202 207.284 22.9518C207.235 24.018 207.068 25.0753 206.788 26.1045C206.659 26.5618 206.491 27.0067 206.284 27.4338C206.093 27.8378 205.872 28.2264 205.623 28.5965C204.662 30.0122 203.258 31.0616 201.635 31.5765Z" fill="#5483FC"/>
<path d="M206.837 16.2952C207.128 17.2475 207.364 18.2156 207.546 19.1949C207.638 19.7973 207.714 20.4278 207.765 21.0885C207.789 21.4198 207.809 21.7552 207.819 22.0925C207.838 22.437 207.838 22.7822 207.819 23.1267C207.767 24.3094 207.572 25.4814 207.24 26.6168C206.926 27.5843 206.463 28.4959 205.867 29.3176C205.32 30.0712 204.637 30.7143 203.854 31.2133C203.041 31.729 202.153 32.1138 201.223 32.3539C201.177 32.0486 201.137 31.7514 201.105 31.4502C201.073 31.149 201.021 30.8618 200.991 30.5727C200.928 30.0099 200.893 29.4442 200.886 28.8779C200.886 28.3196 200.886 27.7855 200.906 27.2593C200.931 26.7385 200.985 26.2196 201.069 25.7051C201.111 25.4501 201.159 25.197 201.215 24.948C201.27 24.699 201.316 24.454 201.378 24.2111C201.499 23.7239 201.649 23.2445 201.826 22.7753C202.197 21.8221 202.665 20.9096 203.22 20.0523C204.178 18.579 205.405 17.3038 206.837 16.2952Z" fill="#5483FC"/>
<path d="M200.354 42.8736C198.716 42.726 197.138 42.1743 195.761 41.2671C195.093 40.8212 194.471 40.3086 193.905 39.737C193.323 39.1228 192.79 38.4634 192.311 37.765C192.07 37.4237 191.861 37.0823 191.662 36.7469C191.463 36.4116 191.31 36.0782 191.128 35.761C190.831 35.2119 190.568 34.6445 190.342 34.0621C191.732 34.0202 193.12 34.2241 194.441 34.6645C196.062 35.2085 197.479 36.2401 198.502 37.6204C199.015 38.349 199.428 39.144 199.731 39.984C199.812 40.2028 199.894 40.4277 199.96 40.6587C200.026 40.8896 200.073 41.1266 200.121 41.3675C200.227 41.8475 200.298 42.3515 200.354 42.8736Z" fill="#5483FC"/>
<path d="M189.615 33.5948C190.323 33.5334 191.035 33.5273 191.744 33.5767C192.709 33.6415 193.662 33.8297 194.58 34.1369C195.036 34.2929 195.48 34.4814 195.909 34.7012C196.328 34.9127 196.728 35.162 197.104 35.4462C197.85 36.02 198.506 36.7037 199.05 37.4744C199.191 37.6709 199.318 37.8776 199.43 38.0929C199.55 38.3057 199.661 38.5266 199.769 38.7535C199.989 39.221 200.181 39.7019 200.342 40.1933C200.384 40.3198 200.426 40.4463 200.464 40.5769C200.502 40.7074 200.524 40.8379 200.555 40.9785C200.613 41.2436 200.665 41.5167 200.711 41.7938C200.8 42.35 200.868 42.9283 200.91 43.5288C199.065 43.4397 197.274 42.877 195.705 41.8942C195.338 41.6621 194.985 41.4065 194.65 41.1291C194.323 40.85 193.967 40.5528 193.654 40.2335C193.329 39.9115 193.024 39.5702 192.74 39.2114C192.451 38.8519 192.186 38.4684 191.893 38.0668C190.961 36.6722 190.196 35.171 189.615 33.5948Z" fill="#5483FC"/>
<path d="M202.902 42.8379C202.928 42.2897 202.975 41.7596 203.043 41.2314C203.079 40.9744 203.119 40.7194 203.163 40.4684C203.206 40.2174 203.234 39.9704 203.28 39.7274C203.451 38.7823 203.712 37.8562 204.061 36.9623C204.701 35.2313 205.691 33.6537 206.969 32.3296C207.984 31.2767 209.161 30.3952 210.454 29.7191C210.5 30.4581 210.528 31.3637 210.496 32.3497C210.481 32.8636 210.434 33.376 210.355 33.8839C210.283 34.41 210.19 34.9441 210.07 35.4743C209.849 36.5253 209.485 37.5408 208.99 38.4924C208.582 39.3115 208.044 40.0576 207.397 40.7013C206.175 41.897 204.594 42.6488 202.902 42.8379Z" fill="#5483FC"/>
<path d="M210.865 28.7374C211.048 30.2455 211.207 33.0166 210.558 35.7657C210.427 36.3719 210.247 36.9662 210.02 37.5429C209.82 38.0722 209.587 38.588 209.321 39.0871C209.081 39.5486 208.799 39.9868 208.479 40.3963C208.176 40.7817 207.843 41.1416 207.483 41.4727C206.071 42.7518 204.366 43.3984 202.384 43.5209C202.384 42.9044 202.424 42.3161 202.481 41.7277C202.511 41.4385 202.547 41.1534 202.589 40.8723C202.611 40.7317 202.635 40.5911 202.657 40.4526C202.679 40.314 202.695 40.1775 202.713 40.0509C202.791 39.5166 202.898 38.9871 203.033 38.4646C203.099 38.2075 203.173 37.9525 203.252 37.7035C203.332 37.4545 203.416 37.2055 203.495 36.9645C203.817 36.0023 204.251 35.0817 204.786 34.2215C205.063 33.7877 205.328 33.3741 205.634 32.9684C205.944 32.5589 206.277 32.1674 206.63 31.7957C207.34 31.0513 208.127 30.3867 208.979 29.8137C209.577 29.4035 210.208 29.0435 210.865 28.7374Z" fill="#5483FC"/>
<path d="M199.374 53.6357C198.574 53.3814 197.807 53.0308 197.09 52.5915C196.751 52.3825 196.426 52.1525 196.116 51.9027C195.802 51.6515 195.502 51.3833 195.217 51.0995C194.648 50.5377 194.145 49.9109 193.72 49.232C193.614 49.0613 193.52 48.8866 193.413 48.7099C193.305 48.5331 193.2 48.3464 193.098 48.1596C192.894 47.782 192.71 47.3939 192.546 46.997C192.383 46.6174 192.266 46.2459 192.132 45.8805C191.999 45.515 191.879 45.1596 191.782 44.8202C191.582 44.1435 191.479 43.531 191.347 43.029C191.954 43.1338 192.553 43.2807 193.14 43.4688C193.863 43.7011 194.559 44.0115 195.215 44.3945C195.959 44.8312 196.638 45.3721 197.231 46.0009C197.52 46.3043 197.779 46.6352 198.004 46.9889C198.235 47.3444 198.441 47.7162 198.619 48.1014C198.806 48.5004 198.966 48.9117 199.097 49.3324C199.212 49.7723 199.3 50.2189 199.36 50.6697C199.424 51.1479 199.464 51.6292 199.478 52.1116C199.485 52.3629 199.476 52.6144 199.452 52.8646C199.437 53.1176 199.411 53.3746 199.374 53.6357Z" fill="#5483FC"/>
<path d="M190.718 42.4485C191.416 42.5242 192.107 42.6545 192.786 42.8381C193.229 42.9563 193.666 43.0997 194.094 43.2678C194.321 43.3562 194.554 43.4546 194.783 43.565C195.012 43.6755 195.235 43.792 195.46 43.9245C197.132 44.8984 198.462 46.296 199.187 48.0732C199.383 48.5292 199.546 48.999 199.675 49.4789C199.787 49.982 199.867 50.4917 199.916 51.005C199.973 51.5512 199.994 52.1006 199.978 52.6496C199.941 53.2119 199.874 53.7915 199.779 54.3886C198.006 53.9142 196.383 52.9907 195.064 51.7058C194.424 51.0934 193.856 50.408 193.373 49.6636C193.128 49.2881 192.919 48.8985 192.702 48.4909C192.474 48.0749 192.267 47.6473 192.082 47.2097C191.981 46.9667 191.883 46.7278 191.806 46.4928C191.728 46.2579 191.656 46.027 191.567 45.796C191.403 45.3382 191.272 44.8984 191.168 44.4888C191.065 44.0791 190.997 43.6976 190.909 43.3522C190.822 43.0068 190.762 42.7016 190.718 42.4485Z" fill="#5483FC"/>
<path d="M201.874 54.137C201.948 53.874 202.027 53.6129 202.111 53.3599C202.195 53.1069 202.286 52.8559 202.358 52.6068C202.513 52.1129 202.688 51.6369 202.882 51.1791C203.072 50.7275 203.285 50.2858 203.519 49.8558C203.929 49.0166 204.428 48.2247 205.007 47.4943C205.292 47.1328 205.605 46.7874 205.907 46.4561C206.536 45.7783 207.237 45.1722 207.997 44.6488C208.675 44.1849 209.392 43.7818 210.14 43.444C210.716 43.178 211.311 42.9552 211.92 42.7773C211.828 43.6497 211.67 44.5137 211.446 45.3617C211.329 45.8416 211.191 46.3376 211.032 46.8396C210.862 47.3521 210.662 47.8543 210.435 48.3437C210.202 48.8553 209.943 49.3547 209.66 49.8397C209.522 50.0706 209.383 50.2935 209.241 50.5044C209.1 50.7152 208.931 50.918 208.773 51.1068C208.19 51.8267 207.505 52.456 206.74 52.9743C206.388 53.2098 206.015 53.4115 205.626 53.5768C205.24 53.7395 204.84 53.8691 204.431 53.9643C203.593 54.1564 202.73 54.2147 201.874 54.137Z" fill="#5483FC"/>
<path d="M212.5 41.8696C212.474 42.2511 212.436 42.705 212.38 43.215C212.357 43.4701 212.307 43.7411 212.255 44.0183C212.203 44.2954 212.143 44.5906 212.078 44.8918C211.946 45.4942 211.787 46.1247 211.596 46.7693C211.498 47.0989 211.383 47.4233 211.253 47.7412C211.12 48.0666 210.982 48.3905 210.839 48.7132C210.581 49.2823 210.293 49.8367 209.974 50.3738C209.67 50.8631 209.329 51.3283 208.955 51.7654C208.308 52.5484 207.538 53.2187 206.676 53.7494C205.001 54.7173 203.18 54.9924 201.207 54.6912C201.352 54.0888 201.519 53.5165 201.709 52.9623C201.898 52.408 202.049 51.8699 202.254 51.3558C202.45 50.8489 202.673 50.3529 202.922 49.8698C203.14 49.3985 203.382 48.9387 203.647 48.4923C204.697 46.7336 206.102 45.2164 207.77 44.0383C208.244 43.711 208.71 43.4259 209.15 43.1789C209.59 42.9319 210.03 42.725 210.44 42.5503C211.107 42.266 211.796 42.0383 212.5 41.8696Z" fill="#5483FC"/>
<path d="M196.174 63.9428C194.738 63.1227 193.521 61.9654 192.624 60.5692C191.759 59.1758 191.176 57.624 190.907 56.0028C190.742 55.2545 190.64 54.4933 190.603 53.7276C190.603 53.3823 190.565 53.0489 190.549 52.7417C190.533 52.4344 190.529 52.1493 190.533 51.8983C191.834 52.4104 193.037 53.147 194.088 54.075C194.713 54.6482 195.251 55.3121 195.682 56.045C195.896 56.4083 196.083 56.7868 196.243 57.1775C196.321 57.3783 196.399 57.5791 196.46 57.78C196.522 57.9808 196.566 58.1816 196.61 58.3824C196.783 59.2585 196.843 60.1535 196.789 61.0451C196.681 62.0294 196.475 63.0001 196.174 63.9428Z" fill="#5483FC"/>
<path d="M190.051 51.2053C191.652 51.7187 193.134 52.5519 194.409 53.6552C194.77 53.9735 195.103 54.3229 195.405 54.6994C195.694 55.0615 195.955 55.4462 196.183 55.85C196.415 56.2564 196.614 56.68 196.781 57.1171C196.867 57.338 196.942 57.5649 197.012 57.7938C197.075 58.0226 197.125 58.2545 197.163 58.4886C197.244 58.9715 197.294 59.4592 197.313 59.9485C197.313 60.2015 197.323 60.4566 197.313 60.7156C197.31 60.9772 197.289 61.2383 197.249 61.4968C197.172 62.0378 197.066 62.5741 196.93 63.1032C196.799 63.6704 196.619 64.2248 196.391 64.7599C195.555 64.3208 194.779 63.7763 194.08 63.1394C193.416 62.5394 192.828 61.8589 192.329 61.1132C191.845 60.3812 191.448 59.5939 191.146 58.7678C190.801 57.9086 190.55 57.0136 190.399 56.099C190.366 55.846 190.304 55.587 190.264 55.34C190.224 55.093 190.188 54.846 190.162 54.609C190.109 54.1331 190.081 53.6833 190.073 53.2656C190.018 52.5802 190.011 51.8918 190.051 51.2053Z" fill="#5483FC"/>
<path d="M198.508 64.9736C198.965 64.0352 199.506 63.1406 200.123 62.3008C200.652 61.5036 201.261 60.7634 201.94 60.0919C202.105 59.9273 202.276 59.7686 202.452 59.614C202.627 59.4594 202.784 59.3028 202.957 59.1542C203.302 58.8576 203.662 58.5808 204.037 58.3248C206.024 56.9913 208.314 56.1877 210.693 55.9894C210.574 56.3448 210.433 56.7384 210.269 57.1561C210.104 57.605 209.911 58.043 209.692 58.4674C209.213 59.4174 208.665 60.3308 208.054 61.2004C206.6 63.0619 205.103 64.3069 203.447 64.8933C201.857 65.4808 200.116 65.5091 198.508 64.9736Z" fill="#5483FC"/>
<path d="M211.474 55.2098C211.177 56.2037 210.827 57.1804 210.425 58.1356C210.156 58.6999 209.851 59.2923 209.512 59.8847C209.344 60.1818 209.166 60.4784 208.978 60.7742C208.796 61.076 208.596 61.367 208.381 61.6457C207.657 62.5952 206.824 63.4546 205.899 64.206C205.087 64.8228 204.18 65.3017 203.214 65.6238C202.34 65.9135 201.421 66.0381 200.502 65.9912C199.546 65.93 198.605 65.7193 197.713 65.3667C198.014 64.8265 198.259 64.2824 198.55 63.7783C198.825 63.2822 199.126 62.8009 199.452 62.3365C199.615 62.1096 199.765 61.8827 199.914 61.6618C200.063 61.4409 200.225 61.226 200.388 61.0172C200.71 60.6057 201.055 60.2128 201.422 59.8405C201.599 59.6537 201.792 59.477 201.971 59.2983C202.151 59.1196 202.332 58.9489 202.519 58.7802C202.895 58.4462 203.29 58.1338 203.7 57.8444C204.119 57.5524 204.553 57.2842 205.001 57.0412C205.463 56.7962 205.897 56.5613 206.379 56.3564C207.991 55.6535 209.719 55.2644 211.474 55.2098Z" fill="#5483FC"/>
<path d="M190.852 73.3312C190.224 72.7706 189.667 72.1339 189.194 71.4356C188.975 71.1032 188.775 70.7578 188.597 70.4014C188.41 70.044 188.245 69.6758 188.101 69.299C187.517 67.7929 187.352 66.2025 187.362 64.4314C187.374 64.0177 187.406 63.6282 187.452 63.2406C187.497 62.853 187.515 62.4816 187.565 62.1342C187.646 61.5293 187.764 60.9298 187.916 60.3389C189.055 61.1046 190.051 62.0664 190.859 63.1804C191.365 63.8847 191.767 64.6583 192.055 65.4776C192.307 66.2836 192.441 67.1225 192.453 67.9676C192.462 68.4094 192.437 68.8512 192.377 69.289C192.298 69.738 192.192 70.1819 192.061 70.6183C191.922 71.0811 191.76 71.5362 191.575 71.9818C191.525 72.0943 191.477 72.2107 191.425 72.3272C191.373 72.4437 191.31 72.5501 191.25 72.6605C191.116 72.8935 190.987 73.1083 190.852 73.3312Z" fill="#5483FC"/>
<path d="M187.563 59.5416C188.453 60.0737 190.057 61.148 191.27 62.8449C191.829 63.623 192.268 64.4813 192.574 65.3911C192.723 65.8337 192.826 66.2907 192.881 66.7546C192.943 67.2272 192.97 67.7038 192.963 68.1804C192.959 68.6766 192.913 69.1717 192.827 69.6603C192.722 70.1657 192.586 70.664 192.419 71.1523C192.245 71.6772 192.041 72.1915 191.807 72.6925C191.541 73.1885 191.242 73.6966 190.909 74.1926C189.482 73.0311 188.379 71.5147 187.71 69.7929C187.205 68.5427 186.927 67.2107 186.892 65.861C186.853 65.3849 186.839 64.9069 186.85 64.4293C186.862 63.9274 186.902 63.4266 186.969 62.9292C187.017 62.4493 187.063 61.9894 187.133 61.5738C187.202 61.1581 187.282 60.7705 187.364 60.4372C187.386 60.3549 187.406 60.2725 187.426 60.1942C187.445 60.1159 187.457 60.0356 187.473 59.9613C187.503 59.8026 187.535 59.6641 187.563 59.5416Z" fill="#5483FC"/>
<path d="M192.927 74.8228C193.102 74.622 193.28 74.4111 193.461 74.2204L193.732 73.9292L193.989 73.636C194.331 73.2505 194.686 72.889 195.048 72.5537C195.406 72.2227 195.78 71.9104 196.17 71.6179C196.546 71.3247 196.909 71.0396 197.297 70.7866C198.063 70.2764 198.882 69.8534 199.741 69.5255C200.589 69.1725 201.472 68.9133 202.376 68.7524C203.816 68.4969 205.288 68.4739 206.736 68.6841C206.262 69.435 205.752 70.1615 205.206 70.8609C204.895 71.2734 204.563 71.6688 204.21 72.0456C203.838 72.4272 203.442 72.8047 203.029 73.1621C201.304 74.7104 199.472 75.5216 197.797 75.7867C197.384 75.8503 196.966 75.8785 196.548 75.871C196.131 75.8553 195.716 75.8049 195.307 75.7204C194.473 75.5458 193.67 75.243 192.927 74.8228Z" fill="#5483FC"/>
<path d="M207.638 68.0835L207.337 68.6458L207.164 68.957L206.965 69.2783C206.678 69.7181 206.351 70.2 205.985 70.7001C205.618 71.2001 205.218 71.7202 204.764 72.2262C204.31 72.7322 203.792 73.2122 203.258 73.676C202.794 74.0817 202.308 74.4611 201.802 74.8126C201.322 75.1167 200.823 75.3897 200.308 75.6299C199.402 76.0624 198.433 76.3452 197.438 76.4673C195.534 76.638 193.763 76.1339 192.09 75.0496C192.469 74.5656 192.857 74.1138 193.256 73.6961C193.654 73.2784 194.008 72.8407 194.403 72.4551C194.789 72.0765 195.194 71.7186 195.618 71.3828C195.833 71.2202 196.016 71.0495 196.229 70.8908C196.442 70.7322 196.628 70.5796 196.847 70.433C197.265 70.1413 197.698 69.8731 198.145 69.6297C198.587 69.3868 199.067 69.184 199.514 68.9791C200.445 68.5733 201.419 68.2756 202.418 68.0916C204.143 67.7669 205.912 67.7642 207.638 68.0835Z" fill="#5483FC"/>
</g>
<defs>
<clipPath id="clip0_191_6976">
<rect width="30" height="76.5" fill="white" transform="translate(0.5)"/>
</clipPath>
<clipPath id="clip1_191_6976">
<rect width="30" height="76.5" fill="white" transform="translate(182.5)"/>
</clipPath>
</defs>
</svg>
