<svg width="120" height="120" viewBox="0 0 120 120" fill="none" xmlns="http://www.w3.org/2000/svg">
<circle cx="60" cy="60" r="60" fill="#A6EFB6" fill-opacity="0.2"/>
<circle cx="60" cy="60" r="48" fill="#A6EFB6" fill-opacity="0.25"/>
<path d="M59.6675 37.4445C47.4231 37.4445 37.4453 47.4222 37.4453 59.6667C37.4453 71.9111 47.4231 81.8889 59.6675 81.8889C71.912 81.8889 81.8898 71.9111 81.8898 59.6667C81.8898 47.4222 71.912 37.4445 59.6675 37.4445ZM70.2898 54.5556L57.6898 67.1556C57.3786 67.4667 56.9564 67.6445 56.512 67.6445C56.0675 67.6445 55.6453 67.4667 55.3342 67.1556L49.0453 60.8667C48.4009 60.2222 48.4009 59.1556 49.0453 58.5111C49.6898 57.8667 50.7564 57.8667 51.4009 58.5111L56.512 63.6222L67.9342 52.2C68.5786 51.5556 69.6453 51.5556 70.2898 52.2C70.9342 52.8445 70.9342 53.8889 70.2898 54.5556Z" fill="#3AA36A"/>
</svg>
