<svg width="31" height="30" viewBox="0 0 31 30" fill="none" xmlns="http://www.w3.org/2000/svg">
<g clip-path="url(#clip0_315_14733)">
<circle cx="15.2676" cy="15" r="13.8317" stroke="#221B15" stroke-width="2.33661"/>
<path d="M6.78356 19.231V12.4891L4.71488 13.2306L4.22886 11.7975L8.35376 10.3207H8.47838V19.231H6.78356ZM13.5774 19.4179C12.9045 19.4179 12.3271 19.3037 11.8452 19.0752C11.3634 18.8426 10.9937 18.529 10.7361 18.1343C10.4827 17.7397 10.356 17.2952 10.356 16.8009C10.356 16.452 10.4163 16.1384 10.5367 15.86C10.6614 15.5817 10.84 15.3408 11.0726 15.1372C11.3094 14.9295 11.5918 14.7592 11.92 14.6263C11.6002 14.4892 11.3094 14.2628 11.0477 13.9471C10.7901 13.6273 10.6614 13.2202 10.6614 12.7259C10.6614 12.2606 10.7881 11.8473 11.0414 11.4859C11.2948 11.1245 11.6438 10.84 12.0882 10.6323C12.5327 10.4246 13.0416 10.3207 13.6148 10.3207C14.1964 10.3207 14.7094 10.4266 15.1539 10.6385C15.6025 10.8462 15.9535 11.1307 16.2069 11.4921C16.4603 11.8535 16.587 12.2648 16.587 12.7259C16.587 13.0582 16.5268 13.351 16.4063 13.6044C16.2858 13.8537 16.1301 14.0634 15.939 14.2338C15.7479 14.4041 15.5464 14.5349 15.3346 14.6263C15.7915 14.8215 16.1612 15.104 16.4437 15.4737C16.7303 15.8434 16.8736 16.2858 16.8736 16.8009C16.8736 17.2952 16.7345 17.7397 16.4561 18.1343C16.1778 18.529 15.7894 18.8426 15.291 19.0752C14.7966 19.3037 14.2255 19.4179 13.5774 19.4179ZM13.6148 17.9661C13.8807 17.9661 14.1299 17.9163 14.3625 17.8166C14.5952 17.7127 14.7842 17.5632 14.9296 17.3679C15.0791 17.1685 15.1539 16.9255 15.1539 16.6389C15.1539 16.3481 15.0833 16.1051 14.942 15.9099C14.8049 15.7146 14.6201 15.5672 14.3875 15.4675C14.1548 15.3636 13.8973 15.3117 13.6148 15.3117C13.1828 15.3117 12.8173 15.4259 12.5182 15.6544C12.2232 15.8829 12.0758 16.211 12.0758 16.6389C12.0758 16.9255 12.1464 17.1685 12.2876 17.3679C12.4289 17.5632 12.6158 17.7127 12.8484 17.8166C13.0852 17.9163 13.3407 17.9661 13.6148 17.9661ZM13.6273 13.9035C13.889 13.9035 14.1216 13.8578 14.3252 13.7664C14.5287 13.6709 14.6886 13.538 14.8049 13.3677C14.9213 13.1973 14.9794 13 14.9794 12.7757C14.9794 12.4392 14.8527 12.1609 14.5993 11.9408C14.3501 11.7164 14.0261 11.6043 13.6273 11.6043C13.3614 11.6043 13.1267 11.6562 12.9232 11.7601C12.7196 11.8598 12.5597 11.9989 12.4434 12.1775C12.3313 12.352 12.2752 12.5514 12.2752 12.7757C12.2752 13.1122 12.4019 13.3843 12.6553 13.592C12.9128 13.7997 13.2368 13.9035 13.6273 13.9035ZM20.821 18.2901V15.7043H18.1293V14.4331H20.821V11.8535H22.142V14.4331H24.8338V15.7043H22.142V18.2901H20.821Z" fill="#221B15"/>
</g>
<defs>
<clipPath id="clip0_315_14733">
<rect width="30" height="30" fill="white" transform="translate(0.267578)"/>
</clipPath>
</defs>
</svg>
