<svg width="31" height="30" viewBox="0 0 31 30" fill="none" xmlns="http://www.w3.org/2000/svg">
<g clip-path="url(#clip0_315_14736)">
<path d="M11.9812 24.75C11.8585 24.619 11.7135 24.5119 11.6354 24.369C11.2561 23.6905 11.1446 22.9286 11.0554 22.1547C10.9438 21.1428 11.3342 20.3095 11.7915 19.4881C12.1262 18.8928 12.4385 18.2976 12.7843 17.7024C13.1189 17.1071 13.052 16.5357 12.762 15.9524C12.3827 15.2143 12.0258 14.4643 11.6688 13.7143C11.1334 12.5714 10.9773 11.369 11.0777 10.1071C11.2004 8.59522 11.4792 7.10713 11.8473 5.64284C11.9254 5.33332 12.0258 5.24998 12.3269 5.24998C13.3643 5.24998 14.4128 5.24998 15.4501 5.24998C15.729 5.24998 15.807 5.32141 15.9186 5.59522C16.2309 6.34522 16.5544 7.08332 16.8778 7.82141C17.1232 8.36903 17.5136 8.74998 18.0267 8.98808C18.5175 9.21427 19.0194 9.41665 19.5102 9.63094C19.9564 9.83332 20.2018 10.3214 20.1014 10.8214C20.001 11.3214 19.8114 11.7738 19.5102 12.1667C19.4098 12.3095 19.2983 12.4405 19.1756 12.5952C19.3429 12.6905 19.4991 12.7738 19.6664 12.869C20.8822 13.5952 21.7745 14.6428 22.1092 16.1071C22.533 17.9286 22.1872 19.619 21.161 21.1428C20.7707 21.7262 20.291 22.2381 19.711 22.7143C19.6552 22.6428 19.6106 22.5595 19.5437 22.4762C18.7071 21.4524 17.6921 20.6428 16.6994 19.8214C16.4986 19.6547 16.2755 19.6667 16.1528 19.8571C16.0301 20.0357 16.0747 20.25 16.2755 20.4167C16.2978 20.4405 16.3201 20.4524 16.3424 20.4762C17.0005 21.0476 17.6809 21.5833 18.2944 22.2024C18.9079 22.8214 19.4433 23.5238 20.0122 24.1905C20.1237 24.3214 20.1014 24.5 19.9787 24.6309C19.9341 24.6786 19.8895 24.7143 19.8449 24.75C17.2236 24.75 14.6024 24.75 11.9812 24.75Z" fill="#221B15"/>
<circle cx="15.5352" cy="15" r="13.8317" stroke="#221B15" stroke-width="2.33661"/>
<rect x="4.97461" y="6.01566" width="2.30171" height="27.0513" transform="rotate(-45 4.97461 6.01566)" fill="#221B15"/>
</g>
<defs>
<clipPath id="clip0_315_14736">
<rect width="30" height="30" fill="white" transform="translate(0.535156)"/>
</clipPath>
</defs>
</svg>
