<svg width="30" height="30" viewBox="0 0 30 30" fill="none" xmlns="http://www.w3.org/2000/svg">
<g clip-path="url(#clip0_315_14728)">
<path d="M14.1505 0C14.7362 0 15.3219 0 15.9075 0C15.9792 0.0119522 16.0629 0.0478088 16.1346 0.0478088C18.4772 0.215139 20.6645 0.884462 22.6605 2.10359C26.533 4.48207 28.9235 7.91235 29.7601 12.3944C29.8677 12.9562 29.9155 13.5299 29.9992 14.0916C29.9992 14.6773 29.9992 15.2629 29.9992 15.8486C29.9752 15.9562 29.9633 16.0518 29.9394 16.1594C29.8438 16.8048 29.796 17.4622 29.6525 18.0956C28.8756 21.6932 27.0231 24.6335 24.0948 26.8566C20.4494 29.6175 16.3497 30.5259 11.8796 29.5936C8.29397 28.8526 5.38959 26.9761 3.16648 24.0717C0.764091 20.9522 -0.239893 17.3904 0.142577 13.4701C0.453334 10.2908 1.68441 7.49402 3.79995 5.10359C6.10672 2.48606 8.99915 0.848606 12.4414 0.227092C13.0151 0.131474 13.5768 0.0717131 14.1505 0ZM24.788 23.0677C28.7681 18.3825 28.9235 10.8884 23.9872 5.9761C18.9434 0.956175 11.4494 1.33865 6.90752 5.22311C6.94337 5.25896 6.96728 5.29482 7.00313 5.33068C10.0509 8.37849 13.1107 11.4382 16.1585 14.4861C16.2422 14.5697 16.3976 14.6175 16.5171 14.6175C16.9354 14.6295 17.3537 14.6295 17.796 14.6295C17.796 15.0717 17.796 15.4781 17.796 15.8845C17.796 15.9801 17.784 16.0996 17.8438 16.1594C18.1306 16.4701 18.4294 16.757 18.7282 17.0558C18.7521 17.0438 18.776 17.0319 18.788 17.0199C18.788 16.2311 18.788 15.4303 18.788 14.6295C19.5171 14.6295 20.2223 14.6056 20.9155 14.6414C21.3816 14.6534 21.6087 14.9402 21.6087 15.4422C21.6207 16.0996 21.6207 16.7689 21.6087 17.4263C21.5968 17.988 21.3338 18.2271 20.7721 18.239C20.5091 18.239 20.2342 18.239 19.9713 18.239C21.5848 19.8645 23.1864 21.4542 24.788 23.0677ZM5.27007 6.87251C1.3378 11.4382 1.0629 19.0159 6.09477 23.988C11.3657 29.1873 18.9553 28.3865 23.1625 24.6693C23.0788 24.6096 22.9952 24.5498 22.9354 24.49C20.9274 22.4821 18.9075 20.4741 16.8995 18.4542C16.7442 18.2988 16.6007 18.239 16.3856 18.239C13.3019 18.251 10.2063 18.239 7.12266 18.239C6.46529 18.239 6.22624 18.012 6.22624 17.3426C6.22624 16.757 6.22624 16.1713 6.22624 15.5857C6.22624 14.8446 6.44138 14.6295 7.17047 14.6295C9.0111 14.6295 10.8517 14.6295 12.6924 14.6295C12.788 14.6295 12.8836 14.6295 13.0031 14.6295C10.4215 12.0239 7.85174 9.44223 5.27007 6.87251Z" fill="#221B15"/>
<path d="M19.805 4.72113C19.7452 4.81675 19.6855 4.91236 19.6138 4.99603C18.6337 6.32272 18.7771 7.76894 19.9723 8.9044C20.4146 9.32272 20.8687 9.753 21.2154 10.255C22.064 11.4622 21.4663 13.1833 20.0799 13.6255C19.9723 13.6614 19.8528 13.6733 19.6855 13.7092C19.7333 13.5777 19.7572 13.494 19.805 13.4343C20.6297 12.251 20.295 11.1634 19.542 10.0996C19.1835 9.59762 18.801 9.10758 18.55 8.55778C17.8687 7.07571 18.5261 5.60559 19.6496 4.72113C19.6735 4.69722 19.7213 4.69722 19.7452 4.68527C19.7572 4.68527 19.7811 4.70918 19.805 4.72113Z" fill="#221B15"/>
<path d="M22.4932 11.247C22.529 11.1753 22.541 11.1275 22.5649 11.0917C22.9593 10.4702 22.792 9.9084 22.3975 9.37055C22.1944 9.09565 21.9792 8.79684 21.8477 8.48609C21.5489 7.76896 21.8358 6.94425 22.541 6.47812C22.4454 6.62155 22.3856 6.71716 22.3378 6.81278C21.9434 7.49406 22.039 8.15143 22.6246 8.73708C22.8637 8.97613 23.1266 9.21517 23.3059 9.49007C23.784 10.2909 23.1864 11.247 22.4932 11.247Z" fill="#221B15"/>
</g>
<defs>
<clipPath id="clip0_315_14728">
<rect width="30" height="30" fill="white"/>
</clipPath>
</defs>
</svg>
