<svg width="30" height="30" viewBox="0 0 30 30" fill="none" xmlns="http://www.w3.org/2000/svg">
<path d="M5 25V8.875L2.5625 3.5625L4.8125 2.5L7.75 8.8125H22.25L25.1875 2.5L27.4375 3.5625L25 8.875V25H5ZM12.5 16.25H17.5C17.8542 16.25 18.1512 16.13 18.3913 15.89C18.6313 15.65 18.7508 15.3533 18.75 15C18.75 14.6458 18.63 14.3487 18.39 14.1087C18.15 13.8687 17.8533 13.7492 17.5 13.75H12.5C12.1458 13.75 11.8487 13.87 11.6087 14.11C11.3687 14.35 11.2492 14.6467 11.25 15C11.25 15.3542 11.37 15.6513 11.61 15.8913C11.85 16.1313 12.1467 16.2508 12.5 16.25Z" fill="#F5A964"/>
</svg>
