<svg width="30" height="30" viewBox="0 0 30 30" fill="none" xmlns="http://www.w3.org/2000/svg">
<path fill-rule="evenodd" clip-rule="evenodd" d="M3.125 5C3.125 4.33696 3.38839 3.70108 3.85723 3.23224C4.32607 2.7634 4.96196 2.5 5.625 2.5C6.33448 2.49916 7.03598 2.6497 7.68265 2.94156C8.32932 3.23343 8.90628 3.6599 9.375 4.1925C9.84372 3.6599 10.4207 3.23343 11.0674 2.94156C11.714 2.6497 12.4155 2.49916 13.125 2.5C13.788 2.5 14.4239 2.7634 14.8928 3.23224C15.3616 3.70108 15.625 4.33696 15.625 5C15.625 5.91125 15.3813 6.765 14.9563 7.5H16.25C16.5815 7.5 16.8995 7.6317 17.1339 7.86612C17.3683 8.10054 17.5 8.41848 17.5 8.75V10H22.5C23.3208 10 24.1335 10.1617 24.8918 10.4758C25.6501 10.7898 26.3391 11.2502 26.9194 11.8306C27.4998 12.411 27.9602 13.0999 28.2742 13.8582C28.5883 14.6165 28.75 15.4292 28.75 16.25V21.25C28.7501 22.0547 28.4915 22.8381 28.0123 23.4845C27.5331 24.131 26.8587 24.6062 26.0888 24.84C25.8595 25.5963 25.3972 26.2608 24.7678 26.7386C24.1385 27.2165 23.3742 27.4834 22.5842 27.5012C21.7942 27.5189 21.0187 27.2866 20.3686 26.8374C19.7184 26.3883 19.2267 25.7452 18.9637 25H11.0375C10.7745 25.7452 10.2829 26.3883 9.63269 26.8374C8.98252 27.2866 8.20707 27.5189 7.41704 27.5012C6.627 27.4834 5.86276 27.2165 5.23341 26.7386C4.60405 26.2608 4.14175 25.5963 3.9125 24.84C3.1423 24.6064 2.46765 24.1313 1.98821 23.4848C1.50876 22.8384 1.24995 22.0548 1.25 21.25V8.75C1.25 8.41848 1.3817 8.10054 1.61612 7.86612C1.85054 7.6317 2.16848 7.5 2.5 7.5H3.79375C3.35431 6.74021 3.1236 5.87772 3.125 5ZM5.625 5C6.28804 5 6.92393 5.2634 7.39277 5.73224C7.86161 6.20108 8.125 6.83696 8.125 7.5C7.46196 7.5 6.82607 7.23661 6.35723 6.76777C5.88839 6.29893 5.625 5.66304 5.625 5ZM10.625 7.5C11.288 7.5 11.9239 7.23661 12.3928 6.76777C12.8616 6.29893 13.125 5.66304 13.125 5C12.462 5 11.8261 5.2634 11.3572 5.73224C10.8884 6.20108 10.625 6.83696 10.625 7.5ZM18.9637 22.5H17.5V12.5H22.5C23.4946 12.5 24.4484 12.8951 25.1517 13.5984C25.8549 14.3016 26.25 15.2554 26.25 16.25V21.25C26.2502 21.4142 26.2179 21.5768 26.155 21.7284C26.0922 21.8801 26 22.0178 25.8838 22.1338C25.5642 21.4643 25.0532 20.9047 24.4156 20.5257C23.7779 20.1466 23.0421 19.9653 22.3014 20.0045C21.5606 20.0437 20.8481 20.3017 20.254 20.7459C19.6599 21.1901 19.2109 21.8006 18.9637 22.5ZM6.61625 22.8663C6.73156 22.7469 6.86949 22.6516 7.02199 22.5861C7.1745 22.5206 7.33852 22.4861 7.5045 22.4847C7.67047 22.4832 7.83507 22.5149 7.98869 22.5777C8.14231 22.6406 8.28188 22.7334 8.39924 22.8508C8.51661 22.9681 8.60943 23.1077 8.67228 23.2613C8.73513 23.4149 8.76676 23.5795 8.76531 23.7455C8.76387 23.9115 8.72939 24.0755 8.66388 24.228C8.59837 24.3805 8.50314 24.5184 8.38375 24.6338C8.148 24.8615 7.83224 24.9874 7.5045 24.9846C7.17675 24.9817 6.86324 24.8503 6.63148 24.6185C6.39972 24.3868 6.26826 24.0732 6.26541 23.7455C6.26256 23.4178 6.38855 23.102 6.61625 22.8663ZM21.25 23.75C21.25 23.4185 21.3817 23.1005 21.6161 22.8661C21.8505 22.6317 22.1685 22.5 22.5 22.5C22.8315 22.5 23.1495 22.6317 23.3839 22.8661C23.6183 23.1005 23.75 23.4185 23.75 23.75C23.75 24.0815 23.6183 24.3995 23.3839 24.6339C23.1495 24.8683 22.8315 25 22.5 25C22.1685 25 21.8505 24.8683 21.6161 24.6339C21.3817 24.3995 21.25 24.0815 21.25 23.75Z" fill="#8CB869"/>
</svg>
