<svg width="125" height="125" viewBox="0 0 125 125" fill="none" xmlns="http://www.w3.org/2000/svg">
<g clip-path="url(#clip0_2417_4095)">
<circle cx="62.5" cy="62.5" r="62.5" fill="#8CB869"/>
<path d="M40.0191 43.2123C43.6263 46.8195 47.4875 50.3967 50.2983 54.6208C54.5125 62.5849 58.3607 71.0503 61.9206 79.2757C62.0885 79.5842 62.1875 79.34 62.0928 79.4385C61.9981 79.537 62.0196 79.4685 61.9981 79.4085C59.4627 70.352 57.4267 61.0512 56.5313 51.6777C57.9776 42.0727 60.3279 32.4678 62.7213 23C66.2467 31.6453 67.8049 41.0703 68.8122 50.2468C68.1665 59.6717 66.0315 69.8207 63.311 78.7102C66.5394 70.2149 70.7191 60.8156 76.4011 53.4341C81.5278 48.0919 86.3145 42.3555 91.9793 37.4588C91.1485 44.6732 88.4668 51.9133 85.5612 58.635C83.9728 64.3671 69.4579 75.45 64.3355 79.8198C72.4754 74.5718 81.7043 69.0325 91.7253 68.5698C94.2693 68.287 96.3441 68.0514 99 67.8372C97.106 69.6879 95.268 71.2345 93.4041 72.7725C89.982 76.4182 84.8509 79.6827 79.7673 80.4838C74.4443 81.2722 69.057 81.5448 63.6812 81.2978C68.6357 81.9447 73.672 83.2642 78.506 84.7508C82.9139 86.82 86.392 90.4829 90.1283 93.5417C91.5488 94.4756 91.1872 95.5809 89.4783 94.9383C86.4996 94.4114 83.5208 93.8844 80.5765 93.1776C74.5286 91.7767 69.445 86.7814 64.7315 83.4441C67.792 87.0899 71.8211 90.5428 73.3061 95.7737C73.8012 96.6948 73.6892 97.7915 72.4452 97.0589C69.9055 95.5595 66.802 94.013 65.799 91.0612C64.6411 88.3151 63.6467 84.8279 62.7858 82.326C63.5219 84.8107 63.5434 87.8353 64.004 90.5C64.4775 93.8216 64.9352 97.1432 65.3772 100.465C65.545 101.711 65.3772 101.934 64.1288 101.977C61.6537 102.058 61.5892 102.054 61.658 99.6165C61.9335 94.0472 61.7613 88.4479 62.3295 82.9086C61.5762 87.6982 59.4412 91.7938 55.283 95.3325C54.8224 95.7223 54.1078 96.4377 53.7592 96.6691C48.7831 101.232 52.2913 93.8502 53.2943 91.5796C54.8525 88.3622 58.1326 85.9332 60.4054 83.3799C56.385 86.4301 52.1579 90.7742 46.9752 92.068C43.2303 92.9719 39.4681 93.7816 35.7016 94.5613C35.2238 94.6599 34.5695 94.9897 34.3026 94.3985C34.0831 93.9187 34.6771 93.5674 35.0129 93.259C40.1439 88.3023 46.1057 84.845 53.1738 83.3627C55.7134 82.7844 59.7554 81.5548 61.5461 81.4606C57.7581 81.8547 53.9959 80.8994 50.2122 80.8137C47.6858 80.578 45.173 80.2148 42.6836 79.7255C36.4979 77.4935 31.608 72.6268 26.4683 68.6769C25.7581 68.1971 25.8313 67.3917 26.8557 67.6658C42.1756 68.9211 47.3411 71.3245 60.0008 79.3485C54.0045 74.2933 47.3411 68.6383 42.0379 62.6835C37.0145 55.6533 35.3443 46.8752 33.1404 38.6926C32.8262 37.8358 33.4804 37.4074 34.1477 38.05C36.1622 39.7079 38.3231 41.2288 40.0191 43.2123Z" fill="#38854D"/>
</g>
<defs>
<clipPath id="clip0_2417_4095">
<rect width="125" height="125" rx="62.5" fill="white"/>
</clipPath>
</defs>
</svg>
