<svg width="192" height="192" viewBox="0 0 192 192" fill="none" xmlns="http://www.w3.org/2000/svg">
<circle cx="96.5" cy="96.5" r="95.5" fill="currentColor"/>
<path d="M99.6142 168V179.2H95.7662C94.6942 179.2 93.8276 178.96 93.1662 178.48C92.5049 178.005 92.1742 177.304 92.1742 176.376C92.1742 176.019 92.2596 175.68 92.4302 175.36C92.5956 175.045 92.8116 174.768 93.0782 174.528C93.3449 174.288 93.6222 174.112 93.9102 174C93.3022 173.813 92.7956 173.472 92.3902 172.976C91.9796 172.48 91.7742 171.869 91.7742 171.144C91.7742 170.531 91.9289 169.987 92.2382 169.512C92.5476 169.043 92.9876 168.672 93.5582 168.4C94.1289 168.133 94.8062 168 95.5902 168H99.6142ZM97.8222 169.408H95.8942C95.1262 169.408 94.5556 169.557 94.1822 169.856C93.8089 170.16 93.6222 170.616 93.6222 171.224C93.6222 171.827 93.8116 172.285 94.1902 172.6C94.5636 172.915 95.1422 173.072 95.9262 173.072H97.8222V169.408ZM97.8222 174.416H96.0462C95.6142 174.416 95.2409 174.485 94.9262 174.624C94.6116 174.763 94.3662 174.963 94.1902 175.224C94.0142 175.485 93.9262 175.8 93.9262 176.168C93.9262 176.691 94.1129 177.091 94.4862 177.368C94.8542 177.651 95.3822 177.792 96.0702 177.792H97.8222V174.416Z" fill="white"/>
<path d="M85.3231 166.964C86.0237 167.075 86.5811 167.306 86.9952 167.658C87.4031 168.014 87.6836 168.442 87.8367 168.941C87.9898 169.441 88.023 169.964 87.9362 170.512L87.144 175.514L85.4057 175.238L86.1466 170.561C86.2317 170.023 86.1421 169.566 85.8777 169.19C85.6073 168.818 85.1903 168.587 84.6266 168.497C84.2579 168.439 83.9157 168.469 83.6001 168.586C83.2837 168.709 83.0174 168.907 82.8013 169.18C82.5799 169.453 82.4379 169.787 82.3754 170.182L81.6683 174.646L79.93 174.371L81.1689 166.549L82.7334 166.796L82.587 167.721C82.9509 167.401 83.3599 167.171 83.8138 167.032C84.2617 166.898 84.7648 166.875 85.3231 166.964Z" fill="white"/>
<path d="M76.7199 161.672C76.9938 161.761 77.2527 161.879 77.4967 162.026C77.7407 162.172 77.9656 162.36 78.1714 162.59L77.3262 163.897C77.202 163.744 77.0542 163.612 76.883 163.5C76.7118 163.388 76.5527 163.309 76.4056 163.261C76.0505 163.146 75.7444 163.139 75.4871 163.24C75.2298 163.342 74.986 163.548 74.7556 163.86L74.2672 164.509L74.7475 173.127L72.9139 172.532L72.7278 166.011L68.7977 171.194L67.0249 170.618L73.0823 163.056C73.5117 162.528 73.9254 162.144 74.3233 161.903C74.7228 161.657 75.119 161.525 75.5119 161.507C75.9064 161.484 76.309 161.539 76.7199 161.672Z" fill="white"/>
<path d="M57.0475 156.696L50.4643 165.757L49.0793 164.751L49.2857 154.844L44.5035 161.426L43.0926 160.401L49.6758 151.34L51.0608 152.346L50.7915 162.326L55.6301 155.666L57.0475 156.696Z" fill="white"/>
<path d="M45.2614 146.745C45.846 147.329 46.2344 147.986 46.4268 148.713C46.6115 149.441 46.6097 150.16 46.4211 150.869C46.2288 151.581 45.863 152.207 45.3237 152.747C44.9239 153.146 44.4733 153.45 43.9717 153.657C43.4626 153.865 42.9346 153.971 42.3878 153.974C41.8372 153.974 41.2979 153.869 40.7699 153.657C40.2419 153.446 39.7573 153.12 39.3161 152.679C38.7315 152.094 38.3469 151.438 38.1621 150.71C37.9698 149.982 37.9698 149.262 38.1621 148.549C38.3506 147.84 38.7146 147.216 39.2539 146.677C39.6498 146.281 40.1024 145.979 40.6115 145.772C41.1169 145.561 41.6429 145.453 42.1898 145.449C42.7366 145.446 43.274 145.549 43.802 145.761C44.3299 145.972 44.8164 146.3 45.2614 146.745ZM44.1584 147.848C43.8114 147.501 43.4286 147.269 43.01 147.152C42.5839 147.035 42.1539 147.039 41.7202 147.163C41.2866 147.288 40.8793 147.541 40.4984 147.921C40.1175 148.302 39.8648 148.71 39.7404 149.143C39.6121 149.581 39.6084 150.011 39.729 150.433C39.8459 150.852 40.0779 151.234 40.4248 151.581C40.7718 151.928 41.1564 152.162 41.5788 152.283C41.9974 152.4 42.4255 152.394 42.8629 152.266C43.2929 152.138 43.6983 151.883 44.0792 151.502C44.4601 151.121 44.7127 150.714 44.8372 150.28C44.9616 149.847 44.9673 149.419 44.8541 148.996C44.7335 148.574 44.5015 148.191 44.1584 147.848Z" fill="white"/>
<path d="M39.6289 140.906L34.6839 147.574L33.6541 146.157L37.4207 141.324L31.5663 143.283L30.5553 141.892L34.2984 137.026L28.5192 139.089L27.5365 137.736L35.4063 135.094L36.4737 136.563L32.8971 141.317L38.5615 139.437L39.6289 140.906Z" fill="white"/>
<path d="M28.6409 121.687L17.9891 125.148L16.8 121.488C16.4687 120.468 16.4292 119.57 16.6813 118.793C16.9284 118.017 17.4932 117.486 18.3758 117.199C18.7156 117.089 19.0641 117.065 19.4212 117.129C19.7715 117.189 20.102 117.308 20.4127 117.488C20.7234 117.667 20.9764 117.877 21.172 118.116C21.1616 117.48 21.3297 116.893 21.6761 116.354C22.021 115.81 22.5383 115.426 23.2281 115.202C23.8114 115.012 24.3766 114.991 24.9236 115.139C25.4656 115.288 25.9541 115.592 26.3891 116.051C26.8191 116.511 27.1552 117.114 27.3974 117.86L28.6409 121.687ZM26.7481 120.417L26.1523 118.584C25.915 117.853 25.5966 117.357 25.1972 117.094C24.7927 116.833 24.3013 116.796 23.7231 116.984C23.1499 117.17 22.7722 117.492 22.59 117.95C22.4061 118.402 22.4352 119.001 22.6775 119.746L23.2634 121.55L26.7481 120.417ZM21.9852 121.965L21.4364 120.276C21.3029 119.865 21.1216 119.531 20.8925 119.275C20.6633 119.019 20.3973 118.847 20.0944 118.76C19.7915 118.674 19.465 118.687 19.115 118.801C18.6179 118.963 18.2952 119.264 18.1468 119.704C17.9917 120.142 18.0204 120.688 18.233 121.342L18.7744 123.008L21.9852 121.965Z" fill="white"/>
<path d="M25.2099 107.775C25.3208 108.475 25.273 109.077 25.0664 109.579C24.8537 110.078 24.5335 110.477 24.1058 110.776C23.6781 111.076 23.1904 111.27 22.6425 111.357L17.6409 112.149L17.3656 110.41L22.0433 109.669C22.5806 109.584 22.9875 109.358 23.264 108.99C23.5345 108.618 23.625 108.15 23.5358 107.586C23.4774 107.218 23.3436 106.901 23.1344 106.637C22.9199 106.374 22.6492 106.182 22.3223 106.061C21.9945 105.935 21.633 105.903 21.238 105.966L16.7736 106.673L16.4983 104.935L24.3208 103.696L24.5686 105.26L23.6441 105.407C24.0612 105.654 24.4059 105.972 24.6781 106.361C24.9442 106.745 25.1214 107.216 25.2099 107.775Z" fill="white"/>
<path d="M27.584 98.0295C27.584 98.3175 27.552 98.6001 27.488 98.8775C27.424 99.1548 27.3147 99.4268 27.16 99.6935L25.656 99.2935C25.7627 99.1281 25.8427 98.9468 25.896 98.7495C25.9493 98.5521 25.976 98.3761 25.976 98.2215C25.976 97.8481 25.888 97.5548 25.712 97.3415C25.536 97.1281 25.264 96.9601 24.896 96.8375L24.128 96.5735L16.08 99.6935V97.7655L22.224 95.5735L16.08 93.4375V91.5735L25.144 94.9975C25.7787 95.2428 26.272 95.5175 26.624 95.8215C26.9813 96.1255 27.2293 96.4615 27.368 96.8295C27.512 97.1975 27.584 97.5975 27.584 98.0295Z" fill="white"/>
<path d="M26.2378 77.71L15.5859 74.249L16.115 72.6208L25.6006 69.7558L17.8628 67.2416L18.4017 65.583L29.0535 69.044L28.5245 70.6722L18.9501 73.4999L26.7792 76.0437L26.2378 77.71Z" fill="white"/>
<path d="M32.0596 63.4252C31.6843 64.1617 31.1803 64.734 30.5475 65.1418C29.9124 65.5425 29.2285 65.7627 28.4959 65.8024C27.7586 65.8398 27.0502 65.6853 26.3707 65.3391C25.867 65.0824 25.439 64.7476 25.0867 64.3347C24.7321 63.9146 24.4685 63.4451 24.296 62.9262C24.1258 62.4025 24.0596 61.857 24.0973 61.2896C24.135 60.7222 24.2955 60.1605 24.5788 59.6045C24.9541 58.868 25.4593 58.2994 26.0944 57.8987C26.7272 57.4909 27.4123 57.2683 28.1496 57.2309C28.8821 57.1912 29.5882 57.3444 30.2677 57.6907C30.7667 57.9449 31.1935 58.2821 31.5481 58.7022C31.9051 59.1175 32.1699 59.5846 32.3424 60.1035C32.515 60.6224 32.5824 61.1656 32.5447 61.733C32.507 62.3004 32.3453 62.8644 32.0596 63.4252ZM30.6696 62.717C30.8924 62.2798 30.9947 61.8441 30.9765 61.4098C30.956 60.9684 30.8196 60.5607 30.5672 60.1867C30.3148 59.8127 29.9487 59.5034 29.4687 59.2588C28.9887 59.0143 28.5233 58.8998 28.0724 58.9155C27.6167 58.9287 27.2067 59.058 26.8422 59.3033C26.4803 59.5438 26.1879 59.8827 25.9651 60.3199C25.7424 60.7571 25.6389 61.1952 25.6546 61.6342C25.6728 62.0684 25.8104 62.4738 26.0676 62.8502C26.3224 63.2194 26.6897 63.5263 27.1697 63.7709C27.6496 64.0154 28.1151 64.1299 28.566 64.1142C29.0169 64.0986 29.4258 63.9717 29.7925 63.7336C30.1569 63.4883 30.4493 63.1494 30.6696 62.717Z" fill="white"/>
<path d="M35.8719 56.2649L28.002 53.6225L29.0318 52.2051L34.7922 54.2939L31.1196 49.3314L32.1306 47.9399L37.9145 49.9964L34.1667 45.1375L35.1495 43.7848L40.0945 50.4529L39.0271 51.9221L33.4003 49.9897L36.9393 54.7957L35.8719 56.2649Z" fill="white"/>
<path d="M50.7548 39.8753L44.1716 30.8143L47.2847 28.5525C48.1519 27.9224 48.9942 27.6071 49.8113 27.6068C50.6254 27.602 51.3051 27.9751 51.8506 28.7258C52.0606 29.0149 52.1906 29.3391 52.2407 29.6983C52.2919 30.05 52.2801 30.4014 52.2054 30.7523C52.1308 31.1032 52.0099 31.4086 51.8427 31.6685C52.4443 31.4621 53.0548 31.4404 53.6743 31.6035C54.2981 31.7633 54.8231 32.1367 55.2495 32.7235C55.61 33.2197 55.8046 33.7507 55.8334 34.3166C55.859 34.8781 55.7209 35.4366 55.4191 35.9921C55.1141 36.5432 54.6445 37.0492 54.0103 37.51L50.7548 39.8753ZM51.3769 37.6829L52.9367 36.5496C53.558 36.0982 53.9319 35.642 54.0584 35.1809C54.1818 34.7155 54.0648 34.2369 53.7074 33.745C53.3531 33.2574 52.9304 32.9977 52.4391 32.9657C51.9521 32.9305 51.3915 33.1434 50.7572 33.6042L49.2233 34.7186L51.3769 37.6829ZM48.4333 33.6313L49.8701 32.5874C50.2196 32.3335 50.4809 32.058 50.654 31.7608C50.827 31.4637 50.9079 31.1577 50.8967 30.8428C50.8855 30.5279 50.7717 30.2216 50.5554 29.9239C50.2482 29.5011 49.8621 29.2872 49.397 29.2823C48.9332 29.2699 48.4229 29.4659 47.8663 29.8703L46.4489 30.9001L48.4333 33.6313Z" fill="white"/>
<path d="M62.9258 32.3137C62.2938 32.6358 61.7069 32.7762 61.1651 32.735C60.6257 32.6866 60.1473 32.5054 59.7299 32.1913C59.3125 31.8773 58.9779 31.4731 58.7261 30.9789L56.4271 26.4668L57.9952 25.6678L60.1453 29.8876C60.3923 30.3723 60.7334 30.6894 61.1686 30.8387C61.6062 30.9809 62.0792 30.9224 62.5877 30.6634C62.9203 30.4939 63.1798 30.2689 63.3661 29.9884C63.55 29.7032 63.649 29.3864 63.663 29.038C63.6818 28.6873 63.6004 28.3337 63.4188 27.9773L61.3668 23.9499L62.935 23.1509L66.5306 30.2077L65.1192 30.9268L64.6943 30.0928C64.5882 30.5659 64.3922 30.9919 64.1065 31.371C63.8231 31.7428 63.4295 32.0571 62.9258 32.3137Z" fill="white"/>
<path d="M72.9969 31.5373C72.723 31.6263 72.4443 31.6832 72.1607 31.708C71.8772 31.7329 71.5847 31.7129 71.2833 31.6482L71.199 30.0942C71.3892 30.1446 71.5864 30.1646 71.7905 30.1544C71.9947 30.1441 72.1703 30.1151 72.3174 30.0673C72.6725 29.9519 72.9242 29.7776 73.0728 29.5443C73.2213 29.311 73.297 29.0004 73.2999 28.6125L73.3137 27.8005L67.8594 21.1105L69.6931 20.5147L73.6764 25.6807L73.8092 19.1773L75.582 18.6013L75.1265 28.2798C75.0893 28.9592 74.9805 29.5132 74.8002 29.942C74.6215 30.3757 74.3786 30.7154 74.0714 30.961C73.7659 31.2117 73.4078 31.4038 72.9969 31.5373Z" fill="white"/>
<path d="M92.0893 24V12.8H93.8013L99.4573 20.936V12.8H101.201V24H99.4893L93.8413 15.768V24H92.0893Z" fill="white"/>
<path d="M107.945 25.058C107.128 24.9287 106.428 24.6261 105.845 24.1503C105.268 23.6701 104.847 23.0878 104.583 22.4033C104.319 21.7136 104.247 20.9922 104.367 20.2389C104.455 19.6805 104.641 19.17 104.925 18.7074C105.215 18.2403 105.58 17.8446 106.02 17.5201C106.466 17.1965 106.964 16.9649 107.515 16.8254C108.067 16.686 108.65 16.665 109.267 16.7626C110.083 16.892 110.78 17.1967 111.357 17.677C111.941 18.1527 112.364 18.7355 112.628 19.4252C112.892 20.1096 112.964 20.8284 112.845 21.5817C112.757 22.1348 112.568 22.6449 112.278 23.112C111.994 23.5799 111.631 23.976 111.191 24.3005C110.751 24.625 110.255 24.8569 109.704 24.9964C109.153 25.1359 108.566 25.1564 107.945 25.058ZM108.189 23.5172C108.673 23.5939 109.119 23.5566 109.527 23.4051C109.94 23.2492 110.286 22.9935 110.564 22.6378C110.841 22.2822 111.022 21.8384 111.107 21.3064C111.191 20.7744 111.156 20.2963 111.002 19.8723C110.848 19.443 110.599 19.093 110.253 18.8222C109.912 18.5523 109.499 18.3789 109.015 18.3022C108.53 18.2254 108.081 18.2624 107.669 18.413C107.261 18.5645 106.918 18.8206 106.64 19.1815C106.367 19.5379 106.189 19.9822 106.105 20.5142C106.021 21.0462 106.056 21.5243 106.21 21.9483C106.364 22.3723 106.611 22.7219 106.951 22.9971C107.297 23.2679 107.709 23.4413 108.189 23.5172Z" fill="white"/>
<path d="M116.084 26.8897L116.165 18.5885L117.832 19.1299L117.625 25.2538L121.21 20.2275L122.846 20.759L122.677 26.8953L126.14 21.8295L127.73 22.3462L122.917 29.1097L121.19 28.5485L121.289 22.6L117.811 27.4509L116.084 26.8897Z" fill="white"/>
<path d="M135.397 35.6263L141.98 26.5654L145.093 28.8272C145.96 29.4573 146.52 30.1608 146.773 30.9379C147.029 31.7106 146.884 32.4724 146.339 33.2231C146.129 33.5122 145.861 33.7361 145.535 33.8946C145.216 34.052 144.878 34.1494 144.521 34.1868C144.165 34.2243 143.837 34.2036 143.538 34.125C143.92 34.6334 144.129 35.2073 144.166 35.8468C144.206 36.4895 144.014 37.1042 143.587 37.691C143.227 38.1872 142.782 38.5364 142.253 38.7386C141.726 38.9365 141.153 38.9777 140.531 38.8624C139.913 38.7427 139.286 38.4524 138.652 37.9916L135.397 35.6263ZM137.674 35.5406L139.234 36.6738C139.855 37.1252 140.404 37.3398 140.882 37.3177C141.363 37.2912 141.782 37.032 142.139 36.5401C142.493 36.0525 142.61 35.5702 142.488 35.093C142.371 34.619 141.996 34.1516 141.361 33.6908L139.828 32.5763L137.674 35.5406ZM140.618 31.489L142.054 32.5329C142.404 32.7868 142.747 32.9502 143.083 33.023C143.419 33.0957 143.735 33.0781 144.031 32.9702C144.327 32.8622 144.583 32.6593 144.799 32.3616C145.106 31.9388 145.191 31.5054 145.052 31.0616C144.92 30.6167 144.576 30.192 144.019 29.7876L142.602 28.7578L140.618 31.489Z" fill="white"/>
<path d="M146.348 44.8649C145.847 44.3633 145.532 43.8485 145.404 43.3205C145.283 42.7926 145.307 42.2816 145.477 41.7875C145.647 41.2935 145.928 40.8504 146.32 40.4582L149.901 36.8774L151.145 38.1219L147.796 41.4707C147.412 41.8554 147.216 42.2778 147.208 42.7379C147.208 43.198 147.41 43.6298 147.813 44.0333C148.077 44.2973 148.372 44.4745 148.696 44.565C149.024 44.6518 149.356 44.648 149.691 44.5537C150.031 44.4632 150.342 44.2765 150.625 43.9937L153.821 40.7976L155.065 42.0421L149.465 47.6424L148.345 46.5223L149.007 45.8605C148.524 45.9057 148.058 45.851 147.61 45.6964C147.168 45.5418 146.748 45.2646 146.348 44.8649Z" fill="white"/>
<path d="M150.199 54.2027C150.03 53.9697 149.889 53.7222 149.778 53.4603C149.667 53.1983 149.596 52.914 149.564 52.6073L151.016 52.0469C151.027 52.2433 151.069 52.4371 151.141 52.6281C151.214 52.819 151.296 52.9771 151.387 53.1022C151.607 53.4043 151.85 53.5899 152.118 53.659C152.386 53.7281 152.704 53.7042 153.074 53.5871L153.851 53.3493L158.528 46.0946L159.661 47.6544L155.979 53.0391L162.205 51.1559L163.301 52.6639L153.955 55.2215C153.298 55.396 152.737 55.4638 152.274 55.4248C151.806 55.3889 151.408 55.2628 151.079 55.0466C150.746 54.8335 150.453 54.5522 150.199 54.2027Z" fill="white"/>
<path d="M163.19 69.7915L173.841 66.3305L174.37 67.9588L168.38 75.8521L176.118 73.3379L176.657 74.9966L166.005 78.4576L165.476 76.8294L171.56 68.914L163.731 71.4578L163.19 69.7915Z" fill="white"/>
<path d="M166.876 84.7704C166.747 83.9539 166.819 83.1947 167.091 82.4928C167.369 81.7954 167.793 81.2153 168.362 80.7525C168.937 80.2889 169.601 79.9975 170.354 79.8782C170.912 79.7897 171.455 79.809 171.983 79.936C172.517 80.0675 173.006 80.2924 173.451 80.6108C173.896 80.9344 174.27 81.3368 174.573 81.818C174.876 82.2992 175.077 82.848 175.174 83.4643C175.304 84.2808 175.229 85.0377 174.951 85.7352C174.679 86.4371 174.255 87.0198 173.681 87.4834C173.111 87.9462 172.45 88.2372 171.697 88.3565C171.144 88.4441 170.6 88.4222 170.066 88.2907C169.534 88.1646 169.045 87.9423 168.6 87.6239C168.155 87.3055 167.782 86.9058 167.479 86.4246C167.176 85.9434 166.975 85.392 166.876 84.7704ZM168.417 84.5264C168.494 85.011 168.667 85.4236 168.937 85.7643C169.213 86.1093 169.563 86.359 169.987 86.5132C170.411 86.6675 170.889 86.7024 171.422 86.6182C171.954 86.5339 172.397 86.3529 172.753 86.0752C173.114 85.7967 173.37 85.4511 173.52 85.0384C173.672 84.631 173.709 84.185 173.632 83.7004C173.556 83.2158 173.382 82.8005 173.111 82.4546C172.841 82.114 172.491 81.867 172.062 81.7136C171.639 81.5646 171.161 81.5322 170.629 81.6165C170.097 81.7008 169.653 81.8818 169.298 82.1595C168.942 82.4372 168.686 82.7802 168.529 83.1884C168.379 83.601 168.341 84.047 168.417 84.5264Z" fill="white"/>
<path d="M168 92.7318L175.92 90.2438V91.9958L170.032 93.6918L175.92 95.5478V97.2678L170.032 99.0038L175.92 100.732V102.404L168 99.9158V98.0998L173.688 96.3558L168 94.5478V92.7318Z" fill="white"/>
<path d="M165.593 114.812L176.245 118.273L175.055 121.932C174.724 122.952 174.228 123.702 173.567 124.183C172.911 124.665 172.142 124.763 171.26 124.476C170.92 124.366 170.624 124.18 170.373 123.919C170.124 123.664 169.927 123.373 169.782 123.045C169.636 122.717 169.554 122.399 169.536 122.091C169.171 122.611 168.69 122.988 168.093 123.22C167.494 123.457 166.85 123.464 166.16 123.24C165.577 123.05 165.107 122.735 164.751 122.294C164.401 121.855 164.184 121.322 164.102 120.695C164.024 120.07 164.107 119.384 164.349 118.639L165.593 114.812ZM166.378 116.951L165.782 118.785C165.545 119.515 165.511 120.104 165.679 120.551C165.853 121 166.229 121.319 166.807 121.507C167.38 121.693 167.875 121.655 168.292 121.392C168.706 121.134 169.035 120.632 169.277 119.887L169.863 118.083L166.378 116.951ZM171.141 118.499L170.592 120.188C170.459 120.599 170.409 120.975 170.444 121.317C170.479 121.659 170.593 121.955 170.787 122.203C170.981 122.451 171.253 122.632 171.603 122.745C172.1 122.907 172.538 122.853 172.918 122.584C173.3 122.321 173.598 121.863 173.81 121.208L174.352 119.542L171.141 118.499Z" fill="white"/>
<path d="M160.191 128.083C160.513 127.451 160.905 126.992 161.368 126.707C161.833 126.429 162.326 126.295 162.849 126.304C163.371 126.312 163.879 126.443 164.373 126.694L168.885 128.993L168.086 130.562L163.866 128.411C163.382 128.164 162.919 128.108 162.48 128.243C162.042 128.386 161.694 128.711 161.435 129.219C161.265 129.552 161.187 129.887 161.202 130.223C161.22 130.562 161.327 130.876 161.52 131.166C161.711 131.461 161.985 131.699 162.341 131.881L166.368 133.933L165.569 135.501L158.513 131.906L159.232 130.494L160.066 130.919C159.873 130.474 159.782 130.014 159.79 129.54C159.801 129.072 159.934 128.587 160.191 128.083Z" fill="white"/>
<path d="M152.5 134.631C152.669 134.398 152.861 134.188 153.076 134.001C153.291 133.814 153.539 133.658 153.821 133.534L154.802 134.741C154.619 134.812 154.448 134.912 154.289 135.04C154.129 135.169 154.004 135.295 153.913 135.42C153.694 135.722 153.593 136.011 153.61 136.288C153.627 136.564 153.748 136.859 153.974 137.175L154.44 137.84L162.785 140.046L161.651 141.606L155.392 139.768L159.108 145.107L158.012 146.615L152.692 138.518C152.322 137.946 152.085 137.434 151.979 136.981C151.868 136.525 151.865 136.108 151.969 135.728C152.069 135.346 152.246 134.98 152.5 134.631Z" fill="white"/>
<path d="M141.688 151.802L148.271 160.863L146.886 161.87L137.528 158.612L142.31 165.194L140.899 166.219L134.316 157.158L135.701 156.152L145.109 159.492L140.27 152.832L141.688 151.802Z" fill="white"/>
<path d="M128.582 159.937C129.319 159.562 130.063 159.395 130.815 159.437C131.564 159.486 132.247 159.71 132.863 160.108C133.481 160.511 133.964 161.053 134.31 161.732C134.566 162.236 134.716 162.759 134.758 163.3C134.798 163.848 134.735 164.383 134.57 164.904C134.4 165.428 134.133 165.908 133.769 166.345C133.405 166.782 132.945 167.142 132.389 167.425C131.652 167.8 130.909 167.963 130.16 167.914C129.408 167.872 128.723 167.65 128.105 167.246C127.489 166.848 127.008 166.309 126.661 165.629C126.407 165.13 126.26 164.607 126.22 164.059C126.175 163.513 126.236 162.979 126.401 162.458C126.567 161.937 126.831 161.458 127.195 161.021C127.559 160.584 128.022 160.223 128.582 159.937ZM129.291 161.327C128.853 161.55 128.515 161.842 128.274 162.204C128.031 162.573 127.902 162.983 127.886 163.434C127.871 163.885 127.985 164.35 128.23 164.83C128.474 165.31 128.783 165.677 129.157 165.929C129.534 166.186 129.941 166.322 130.38 166.338C130.815 166.356 131.25 166.254 131.688 166.031C132.125 165.809 132.466 165.515 132.711 165.151C132.952 164.789 133.079 164.38 133.092 163.924C133.103 163.476 132.986 163.011 132.742 162.531C132.497 162.051 132.188 161.685 131.814 161.433C131.44 161.181 131.034 161.043 130.598 161.02C130.159 161.004 129.723 161.106 129.291 161.327Z" fill="white"/>
<path d="M121.289 163.489L126.102 170.252L124.436 170.793L121.003 165.718L121.058 171.891L119.422 172.423L115.951 167.359L116.127 173.493L114.537 174.01L114.456 165.708L116.183 165.147L119.6 170.018L119.561 164.05L121.289 163.489Z" fill="white"/>
<defs>
</defs>
</svg>
