<svg width="31" height="31" viewBox="0 0 31 31" fill="none" xmlns="http://www.w3.org/2000/svg">
<circle cx="15.1169" cy="15.1169" r="14.6169" stroke="#C54F1D"/>
<g clip-path="url(#clip0_3018_14448)">
<path d="M19.1235 18C18.7841 18.4068 18.408 18.7817 18 19.12L18.8827 20L20 18.8862L19.1235 18Z" fill="#221B15"/>
<path d="M20 13.9976C19.9995 12.8105 19.6469 11.6502 18.9868 10.6636C18.3267 9.67695 17.3888 8.90829 16.2917 8.45489C15.1946 8.00149 13.9876 7.88371 12.8236 8.11646C11.6595 8.34922 10.5907 8.92204 9.75228 9.76245C8.91388 10.6029 8.34362 11.6731 8.11366 12.8377C7.8837 14.0023 8.00437 15.2089 8.4604 16.305C8.91643 17.401 9.68733 18.3371 10.6755 18.9948C11.6638 19.6525 12.8249 20.0024 14.012 20C15.6008 19.9943 17.1228 19.3596 18.2449 18.2348C19.3671 17.1099 19.9981 15.5865 20 13.9976ZM14.012 18.8742C13.047 18.8766 12.1029 18.5926 11.2994 18.0582C10.4959 17.5238 9.86895 16.763 9.49801 15.8721C9.12708 14.9812 9.02879 14.0003 9.2156 13.0536C9.40241 12.1068 9.86592 11.2368 10.5475 10.5535C11.229 9.87033 12.0979 9.40469 13.0442 9.21555C13.9905 9.02641 14.9716 9.12228 15.8634 9.49103C16.7552 9.85977 17.5176 10.4848 18.0539 11.287C18.5903 12.0893 18.8766 13.0326 18.8766 13.9976C18.8773 14.6382 18.7516 15.2726 18.5067 15.8646C18.2619 16.4565 17.9027 16.9943 17.4497 17.4473C16.9968 17.9003 16.4589 18.2595 15.867 18.5043C15.275 18.7492 14.6406 18.8749 14 18.8742H14.012Z" fill="#221B15"/>
<path d="M22.6806 21.1205L20.6556 19.0973C20.5926 19.0349 20.5076 19 20.419 19C20.3304 19 20.2454 19.0349 20.1824 19.0973L19.0972 20.1827C19.0349 20.2457 19 20.3307 19 20.4193C19 20.5079 19.0349 20.593 19.0972 20.656L21.1201 22.6792C21.3274 22.8847 21.6074 23 21.8992 23C22.1911 23 22.4711 22.8847 22.6784 22.6792C22.8844 22.4722 23 22.192 23 21.8999C23 21.6078 22.8844 21.3276 22.6784 21.1205H22.6806Z" fill="#221B15"/>
<path d="M18 13.2538C17.2577 13.3107 16.5413 13.5667 15.9187 13.9977C15.296 14.4286 14.7877 15.0202 14.4417 15.7165C15.3051 14.0053 15.1628 12.0936 14 10C12.8472 12.0936 12.7049 14.0053 13.5733 15.7165C13.2258 15.0182 12.7151 14.4253 12.0896 13.9943C11.4642 13.5632 10.7449 13.3083 10 13.2538C10.2749 13.9275 10.6979 14.5221 11.2339 14.9885C11.7698 15.4549 12.4033 15.7795 13.0817 15.9354C12.6605 15.8393 12.2253 15.8347 11.8024 15.9217C11.3794 16.0087 10.9776 16.1856 10.6213 16.4417C11.1016 16.704 11.6272 16.8605 12.1663 16.9017C12.7055 16.943 13.247 16.8681 13.758 16.6816V17.7363C13.758 17.8063 13.7842 17.8733 13.831 17.9228C13.8778 17.9722 13.9413 18 14.0075 18C14.0737 18 14.1371 17.9722 14.1839 17.9228C14.2307 17.8733 14.257 17.8063 14.257 17.7363V16.6816C15.2427 17.1114 16.5926 16.9084 17.3886 16.4417C17.0312 16.185 16.6281 16.0077 16.2039 15.9207C15.7797 15.8337 15.3431 15.8387 14.9208 15.9354C15.5995 15.7809 16.2332 15.4568 16.769 14.9903C17.3047 14.5237 17.7269 13.9282 18 13.2538Z" fill="#221B15"/>
</g>
<defs>
<clipPath id="clip0_3018_14448">
<rect width="16.6667" height="16.6667" fill="white" transform="translate(7.16016 7.16064)"/>
</clipPath>
</defs>
</svg>
